{
.formatVersion = 3;
date = "2012-02-15 22:16:39 +0000";
familyName = ConcertOne;
fontMaster = (
{
customParameters = (
{
name = typoAscender;
value = 2005;
},
{
name = typoDescender;
value = -410;
},
{
name = typoLineGap;
value = 0;
},
{
name = winAscent;
value = 2005;
},
{
name = winDescent;
value = 410;
},
{
name = hheaAscender;
value = 2005;
},
{
name = hheaDescender;
value = -410;
},
{
name = hheaLineGap;
value = 0;
}
);
id = "ee3f1d96-5840-4730-b38c-b1c88b21a886";
metricValues = (
{
},
{
pos = -100;
},
{
pos = 100;
},
{
pos = 1638;
},
{
pos = -410;
},
{
pos = 1434;
},
{
pos = 1331;
},
{
},
{
pos = 287;
},
{
pos = 1434;
},
{
pos = 1331;
},
{
},
{
pos = 977;
},
{
pos = 102;
},
{
pos = 512;
}
);
name = Regular;
visible = 1;
}
);
glyphs = (
{
glyphname = .notdef;
layers = (
{
layerId = "ee3f1d96-5840-4730-b38c-b1c88b21a886";
name = Fore;
shapes = (
{
closed = 1;
nodes = (
(1066,84,o),
(1057,59,q),
(1048,34,o),
(1027,20.5,q),
(1006,7,o),
(971,3.5,q),
(936,0,o),
(884,0,q),
(420,0,l),
(367,0,o),
(332,3.5,q),
(297,7,o),
(276,20.5,q),
(255,34,o),
(246.5,59,q),
(238,84,o),
(238,128,q),
(238,1272,l),
(238,1315,o),
(246.5,1340.5,q),
(255,1366,o),
(276,1379.5,q),
(297,1393,o),
(332,1396.5,q),
(367,1400,o),
(420,1400,q),
(884,1400,l),
(936,1400,o),
(971,1396.5,q),
(1006,1393,o),
(1027,1379.5,q),
(1048,1366,o),
(1057,1340.5,q),
(1066,1315,o),
(1066,1272,q),
(1066,128,l)
);
},
{
closed = 1;
nodes = (
(488,214,l),
(816,214,l),
(816,1186,l),
(488,1186,l)
);
}
);
width = 1304;
}
);
},
{
glyphname = exclam;
layers = (
{
layerId = "ee3f1d96-5840-4730-b38c-b1c88b21a886";
name = Fore;
shapes = (
{
closed = 1;
nodes = (
(506,576,o),
(502.5,546,q),
(499,516,o),
(487,492.5,q),
(475,469,o),
(452.5,454.5,q),
(430,440,o),
(392,440,q),
(354,440,o),
(331.5,454.5,q),
(309,469,o),
(297,492.5,q),
(285,516,o),
(281.5,546,q),
(278,576,o),
(278,608,q),
(226,932,l),
(226,1176,l),
(226,1218,o),
(233,1258,q),
(240,1298,o),
(258,1329,q),
(276,1360,o),
(308.5,1379,q),
(341,1398,o),
(392,1398,q),
(443,1398,o),
(475,1378.5,q),
(507,1359,o),
(525,1327.5,q),
(543,1296,o),
(549.5,1256,q),
(556,1216,o),
(556,1174,q),
(556,928,l),
(506,608,l)
);
},
{
closed = 1;
nodes = (
(556,79,o),
(513,38.5,q),
(470,-2,o),
(392,-2,q),
(312,-2,o),
(269,38.5,q),
(226,79,o),
(226,164,q),
(226,250,o),
(269,289,q),
(312,328,o),
(392,328,q),
(475,328,o),
(515.5,289,q),
(556,250,o),
(556,164,q)
);
}
);
width = 808;
}
);
unicode = 33;
},
{
glyphname = quotedbl;
layers = (
{
layerId = "ee3f1d96-5840-4730-b38c-b1c88b21a886";
name = Fore;
shapes = (
{
closed = 1;
nodes = (
(354,1020,o),
(350.5,994,q),
(347,968,o),
(334.5,948,q),
(322,928,o),
(298,916,q),
(274,904,o),
(234,904,q),
(190,904,o),
(165,916,q),
(140,928,o),
(128,948,q),
(116,968,o),
(113,994,q),
(110,1020,o),
(110,1048,q),
(110,1260,l),
(110,1285,o),
(113,1311,q),
(116,1337,o),
(128,1357.5,q),
(140,1378,o),
(165,1391,q),
(190,1404,o),
(234,1404,q),
(274,1404,o),
(298,1391,q),
(322,1378,o),
(334.5,1357.5,q),
(347,1337,o),
(350.5,1311,q),
(354,1285,o),
(354,1260,q),
(354,1104,l),
(354,1048,l)
);
},
{
closed = 1;
nodes = (
(766,1024,o),
(762.5,998,q),
(759,972,o),
(746.5,952,q),
(734,932,o),
(710,920,q),
(686,908,o),
(646,908,q),
(602,908,o),
(577,920,q),
(552,932,o),
(540,952,q),
(528,972,o),
(525,998,q),
(522,1024,o),
(522,1052,q),
(522,1256,l),
(522,1281,o),
(525,1307,q),
(528,1333,o),
(540,1353.5,q),
(552,1374,o),
(577,1387,q),
(602,1400,o),
(646,1400,q),
(686,1400,o),
(710,1387,q),
(734,1374,o),
(746.5,1353.5,q),
(759,1333,o),
(762.5,1307,q),
(766,1281,o),
(766,1256,q),
(766,1108,l),
(766,1052,l)
);
}
);
width = 898;
}
);
unicode = 34;
},
{
glyphname = numbersign;
layers = (
{
layerId = "ee3f1d96-5840-4730-b38c-b1c88b21a886";
name = Fore;
shapes = (
{
closed = 1;
nodes = (
(277,812,o),
(257,815,q),
(237,818,o),
(222,827.5,q),
(207,837,o),
(197.5,855,q),
(188,873,o),
(188,904,q),
(188,938,o),
(197.5,957,q),
(207,976,o),
(222,985,q),
(237,994,o),
(257,996,q),
(277,998,o),
(298,998,q),
(428,998,l),
(450,1128,l),
(451,1138,o),
(455.5,1154,q),
(460,1170,o),
(469.5,1185,q),
(479,1200,o),
(494.5,1211,q),
(510,1222,o),
(534,1222,q),
(553,1222,o),
(572,1219,q),
(591,1216,o),
(605.5,1207,q),
(620,1198,o),
(629,1181,q),
(638,1164,o),
(638,1136,q),
(638,1133,o),
(637.5,1128.5,q),
(637,1124,o),
(635,1110.5,q),
(633,1097,o),
(628.5,1070.5,q),
(624,1044,o),
(616,998,q),
(786,998,l),
(808,1128,l),
(809,1138,o),
(813.5,1154,q),
(818,1170,o),
(827.5,1185,q),
(837,1200,o),
(852.5,1211,q),
(868,1222,o),
(892,1222,q),
(911,1222,o),
(930,1219,q),
(949,1216,o),
(963.5,1207,q),
(978,1198,o),
(987,1181,q),
(996,1164,o),
(996,1136,q),
(996,1133,o),
(995.5,1128.5,q),
(995,1124,o),
(993,1110.5,q),
(991,1097,o),
(986.5,1070.5,q),
(982,1044,o),
(974,998,q),
(1060,998,l),
(1079,998,o),
(1099,996,q),
(1119,994,o),
(1134.5,985,q),
(1150,976,o),
(1160,957,q),
(1170,938,o),
(1170,904,q),
(1170,873,o),
(1160,855,q),
(1150,837,o),
(1134.5,827.5,q),
(1119,818,o),
(1099,815,q),
(1079,812,o),
(1060,812,q),
(944,812,l),
(904,588,l),
(988,588,l),
(1007,588,o),
(1027,586,q),
(1047,584,o),
(1062.5,575,q),
(1078,566,o),
(1088,547,q),
(1098,528,o),
(1098,494,q),
(1098,462,o),
(1088,444,q),
(1078,426,o),
(1062.5,416.5,q),
(1047,407,o),
(1027,404.5,q),
(1007,402,o),
(988,402,q),
(872,402,l),
(856,298,l),
(851,269,o),
(844.5,244,q),
(838,219,o),
(827.5,200.5,q),
(817,182,o),
(801.5,171,q),
(786,160,o),
(764,160,q),
(745,160,o),
(726.5,162,q),
(708,164,o),
(693,172.5,q),
(678,181,o),
(669,197,q),
(660,213,o),
(660,242,q),
(660,245,o),
(660.5,250.5,q),
(661,256,o),
(663,272,q),
(665,288,o),
(670,318.5,q),
(675,349,o),
(684,402,q),
(514,402,l),
(498,298,l),
(493,269,o),
(486.5,244,q),
(480,219,o),
(469.5,200.5,q),
(459,182,o),
(443.5,171,q),
(428,160,o),
(406,160,q),
(387,160,o),
(368.5,162,q),
(350,164,o),
(335,172.5,q),
(320,181,o),
(311,197,q),
(302,213,o),
(302,242,q),
(302,245,o),
(302.5,250.5,q),
(303,256,o),
(305,272,q),
(307,288,o),
(312,318.5,q),
(317,349,o),
(326,402,q),
(228,402,l),
(207,402,o),
(187,404.5,q),
(167,407,o),
(152,416.5,q),
(137,426,o),
(127.5,444,q),
(118,462,o),
(118,494,q),
(118,528,o),
(127.5,547,q),
(137,566,o),
(152,575,q),
(167,584,o),
(187,586,q),
(207,588,o),
(228,588,q),
(356,588,l),
(396,812,l),
(298,812,l)
);
},
{
closed = 1;
nodes = (
(714,588,l),
(754,812,l),
(586,812,l),
(546,588,l)
);
}
);
width = 1268;
}
);
unicode = 35;
},
{
glyphname = dollar;
layers = (
{
layerId = "ee3f1d96-5840-4730-b38c-b1c88b21a886";
name = Fore;
shapes = (
{
closed = 1;
nodes = (
(759,719,o),
(802,691.5,q),
(845,664,o),
(867.5,631.5,q),
(890,599,o),
(897,559.5,q),
(904,520,o),
(904,468,q),
(904,404,o),
(884,354,q),
(864,304,o),
(828,267.5,q),
(792,231,o),
(741.5,208.5,q),
(691,186,o),
(630,178,q),
(630,150,l),
(630,122,o),
(626.5,96,q),
(623,70,o),
(610.5,50,q),
(598,30,o),
(574,18,q),
(550,6,o),
(510,6,q),
(466,6,o),
(441,18,q),
(416,30,o),
(404,50,q),
(392,70,o),
(389,96,q),
(386,122,o),
(386,150,q),
(386,190,l),
(305,209,o),
(258.5,242,q),
(212,275,o),
(189,310.5,q),
(166,346,o),
(160,377.5,q),
(154,409,o),
(154,426,q),
(154,442,l),
(154,452,o),
(157,472,q),
(160,492,o),
(175,512,q),
(190,532,o),
(221,547,q),
(252,562,o),
(308,562,q),
(318,562,o),
(340.5,560,q),
(363,558,o),
(386,547.5,q),
(409,537,o),
(426.5,515.5,q),
(444,494,o),
(444,456,q),
(444,420,o),
(472,401,q),
(500,382,o),
(536,382,q),
(568,382,o),
(589,395.5,q),
(610,409,o),
(610,448,q),
(610,467,o),
(599,481.5,q),
(588,496,o),
(571,507.5,q),
(554,519,o),
(532.5,528.5,q),
(511,538,o),
(490,546,q),
(478,552,l),
(398,585,o),
(335.5,618,q),
(273,651,o),
(230,688.5,q),
(187,726,o),
(164.5,770,q),
(142,814,o),
(142,870,q),
(142,928,l),
(142,983,o),
(160,1023.5,q),
(178,1064,o),
(210,1092.5,q),
(242,1121,o),
(287,1138.5,q),
(332,1156,o),
(386,1164,q),
(386,1240,l),
(386,1265,o),
(389,1291,q),
(392,1317,o),
(404,1337.5,q),
(416,1358,o),
(441,1371,q),
(466,1384,o),
(510,1384,q),
(550,1384,o),
(574,1371,q),
(598,1358,o),
(610.5,1337.5,q),
(623,1317,o),
(626.5,1291,q),
(630,1265,o),
(630,1240,q),
(630,1164,l),
(704,1152,o),
(753,1125.5,q),
(802,1099,o),
(830.5,1064.5,q),
(859,1030,o),
(870.5,991.5,q),
(882,953,o),
(882,918,q),
(882,879,o),
(867.5,856.5,q),
(853,834,o),
(830.5,822,q),
(808,810,o),
(779,807,q),
(750,804,o),
(722,804,q),
(707,804,o),
(685,807.5,q),
(663,811,o),
(642,820,q),
(621,829,o),
(606.5,846,q),
(592,863,o),
(592,890,q),
(592,909,o),
(589,924.5,q),
(586,940,o),
(577,951,q),
(568,962,o),
(551.5,968,q),
(535,974,o),
(508,974,q),
(493,974,o),
(479,972.5,q),
(465,971,o),
(454.5,964.5,q),
(444,958,o),
(438,944.5,q),
(432,931,o),
(432,906,q),
(432,874,o),
(462.5,849.5,q),
(493,825,o),
(535,806,q),
(577,787,o),
(620,773,q),
(663,759,o),
(688,748,q)
);
}
);
width = 1052;
}
);
unicode = 36;
},
{
glyphname = percent;
layers = (
{
layerId = "ee3f1d96-5840-4730-b38c-b1c88b21a886";
name = Fore;
shapes = (
{
closed = 1;
nodes = (
(551,77,o),
(540,60.5,q),
(529,44,o),
(514.5,30.5,q),
(500,17,o),
(481.5,8.5,q),
(463,0,o),
(438,0,q),
(426,0,o),
(412.5,5,q),
(399,10,o),
(384,18,q),
(345,39,o),
(328.5,62.5,q),
(312,86,o),
(310,110,q),
(312,140,o),
(320,161.5,q),
(328,183,o),
(340,204,q),
(916,1310,l),
(924,1326,o),
(934,1342,q),
(944,1358,o),
(956,1371,q),
(968,1384,o),
(983,1392,q),
(998,1400,o),
(1018,1400,q),
(1039,1400,o),
(1056.5,1395.5,q),
(1074,1391,o),
(1092,1382,q),
(1130,1362,o),
(1146,1339,q),
(1162,1316,o),
(1162,1292,q),
(1162,1262,o),
(1152.5,1239,q),
(1143,1216,o),
(1132,1198,q),
(560,92,l)
);
},
{
closed = 1;
nodes = (
(664,974,o),
(591,905,q),
(518,836,o),
(384,836,q),
(247,836,o),
(172.5,905,q),
(98,974,o),
(98,1120,q),
(98,1265,o),
(172.5,1332.5,q),
(247,1400,o),
(384,1400,q),
(527,1400,o),
(595.5,1333,q),
(664,1266,o),
(664,1120,q)
);
},
{
closed = 1;
nodes = (
(1384,132,o),
(1311,63,q),
(1238,-6,o),
(1104,-6,q),
(967,-6,o),
(892.5,63,q),
(818,132,o),
(818,278,q),
(818,423,o),
(892.5,490.5,q),
(967,558,o),
(1104,558,q),
(1247,558,o),
(1315.5,491,q),
(1384,424,o),
(1384,278,q)
);
},
{
closed = 1;
nodes = (
(482,1220,o),
(384,1220,q),
(336,1220,o),
(310,1195.5,q),
(284,1171,o),
(284,1120,q),
(284,1070,o),
(310,1045,q),
(336,1020,o),
(384,1020,q),
(482,1020,o),
(482,1120,q)
);
},
{
closed = 1;
nodes = (
(1202,378,o),
(1104,378,q),
(1056,378,o),
(1030,353.5,q),
(1004,329,o),
(1004,278,q),
(1004,228,o),
(1030,203,q),
(1056,178,o),
(1104,178,q),
(1202,178,o),
(1202,278,q)
);
}
);
width = 1484;
}
);
unicode = 37;
},
{
glyphname = ampersand;
layers = (
{
layerId = "ee3f1d96-5840-4730-b38c-b1c88b21a886";
name = Fore;
shapes = (
{
closed = 1;
nodes = (
(222,1149,o),
(243.5,1210.5,q),
(265,1272,o),
(308,1315.5,q),
(351,1359,o),
(416,1383.5,q),
(481,1408,o),
(568,1408,q),
(641,1408,o),
(706.5,1383.5,q),
(772,1359,o),
(820.5,1313,q),
(869,1267,o),
(897.5,1202,q),
(926,1137,o),
(926,1056,q),
(926,969,o),
(876.5,881,q),
(827,793,o),
(712,714,q),
(846,558,l),
(898,620,l),
(931,661,o),
(967.5,690.5,q),
(1004,720,o),
(1046,720,q),
(1085,720,o),
(1128,686,q),
(1155,662,o),
(1166.5,639,q),
(1178,616,o),
(1178,592,q),
(1178,554,o),
(1156,518,q),
(1134,482,o),
(1104,446,q),
(1022,346,l),
(1092,264,l),
(1122,228,o),
(1144,191,q),
(1166,154,o),
(1166,118,q),
(1166,97,o),
(1154,74.5,q),
(1142,52,o),
(1118,32,q),
(1098,15,o),
(1077,6.5,q),
(1056,-2,o),
(1036,-2,q),
(997,-2,o),
(956,34,q),
(915,70,o),
(854,148,q),
(832,119,o),
(800.5,92,q),
(769,65,o),
(728,44.5,q),
(687,24,o),
(637.5,12,q),
(588,0,o),
(530,0,q),
(429,0,o),
(350,32,q),
(271,64,o),
(216.5,119,q),
(162,174,o),
(133,248,q),
(104,322,o),
(104,406,q),
(104,463,o),
(124.5,518,q),
(145,573,o),
(179.5,622,q),
(214,671,o),
(260,711,q),
(306,751,o),
(356,778,q),
(332,814,o),
(308,845,q),
(284,876,o),
(265,909.5,q),
(246,943,o),
(234,983,q),
(222,1023,o),
(222,1076,q)
);
},
{
closed = 1;
nodes = (
(480,580,o),
(461,559,q),
(442,538,o),
(427,513,q),
(412,488,o),
(403,461,q),
(394,434,o),
(394,406,q),
(394,362,o),
(407,334,q),
(420,306,o),
(439.5,289.5,q),
(459,273,o),
(481,266.5,q),
(503,260,o),
(520,260,q),
(548,260,o),
(569,266.5,q),
(590,273,o),
(608,286,q),
(626,299,o),
(644,318,q),
(662,337,o),
(684,362,q),
(500,596,l)
);
},
{
closed = 1;
nodes = (
(546,1184,o),
(529.5,1173.5,q),
(513,1163,o),
(501.5,1146.5,q),
(490,1130,o),
(484,1109,q),
(478,1088,o),
(478,1066,q),
(478,1060,o),
(479.5,1047.5,q),
(481,1035,o),
(490.5,1013,q),
(500,991,o),
(520,959,q),
(540,927,o),
(578,882,q),
(605,898,o),
(625.5,919.5,q),
(646,941,o),
(660,965,q),
(674,989,o),
(681,1014.5,q),
(688,1040,o),
(688,1064,q),
(688,1089,o),
(680.5,1110.5,q),
(673,1132,o),
(658,1148.5,q),
(643,1165,o),
(620.5,1174.5,q),
(598,1184,o),
(568,1184,q)
);
}
);
width = 1296;
}
);
unicode = 38;
},
{
glyphname = quotesingle;
layers = (
{
layerId = "ee3f1d96-5840-4730-b38c-b1c88b21a886";
name = Fore;
shapes = (
{
closed = 1;
nodes = (
(374,1020,o),
(370.5,994,q),
(367,968,o),
(354.5,948,q),
(342,928,o),
(318,916,q),
(294,904,o),
(254,904,q),
(210,904,o),
(185,916,q),
(160,928,o),
(148,948,q),
(136,968,o),
(133,994,q),
(130,1020,o),
(130,1048,q),
(130,1260,l),
(130,1285,o),
(133,1311,q),
(136,1337,o),
(148,1357.5,q),
(160,1378,o),
(185,1391,q),
(210,1404,o),
(254,1404,q),
(294,1404,o),
(318,1391,q),
(342,1378,o),
(354.5,1357.5,q),
(367,1337,o),
(370.5,1311,q),
(374,1285,o),
(374,1260,q),
(374,1104,l),
(374,1048,l)
);
}
);
width = 522;
}
);
unicode = 39;
},
{
glyphname = parenleft;
layers = (
{
layerId = "ee3f1d96-5840-4730-b38c-b1c88b21a886";
name = Fore;
shapes = (
{
closed = 1;
nodes = (
(814,-65,o),
(805.5,-86.5,q),
(797,-108,o),
(776,-124,q),
(755,-140,o),
(719.5,-149,q),
(684,-158,o),
(630,-158,q),
(520,-152,o),
(435,-106,q),
(398,-87,o),
(363,-56.5,q),
(328,-26,o),
(300.5,17.5,q),
(273,61,o),
(256.5,120.5,q),
(240,180,o),
(240,258,q),
(240,1198,l),
(240,1289,o),
(273.5,1357,q),
(307,1425,o),
(365.5,1470.5,q),
(424,1516,o),
(502.5,1539,q),
(581,1562,o),
(672,1562,q),
(710,1562,o),
(737,1552.5,q),
(764,1543,o),
(781,1526.5,q),
(798,1510,o),
(806,1488.5,q),
(814,1467,o),
(814,1442,q),
(814,1392,o),
(782,1358,q),
(750,1324,o),
(680,1324,q),
(636,1322,o),
(603,1304,q),
(588,1296,o),
(574.5,1283.5,q),
(561,1271,o),
(550,1252.5,q),
(539,1234,o),
(532.5,1208.5,q),
(526,1183,o),
(526,1150,q),
(526,240,l),
(526,210,o),
(532.5,187,q),
(539,164,o),
(550,147.5,q),
(561,131,o),
(574.5,119,q),
(588,107,o),
(603,100,q),
(636,82,o),
(680,80,q),
(715,80,o),
(740.5,70.5,q),
(766,61,o),
(782.5,44.5,q),
(799,28,o),
(806.5,6.5,q),
(814,-15,o),
(814,-40,q)
);
}
);
width = 888;
}
);
unicode = 40;
},
{
glyphname = parenright;
layers = (
{
layerId = "ee3f1d96-5840-4730-b38c-b1c88b21a886";
name = Fore;
shapes = (
{
closed = 1;
nodes = (
(74,-15,o),
(81.5,6.5,q),
(89,28,o),
(105.5,44.5,q),
(122,61,o),
(147.5,70.5,q),
(173,80,o),
(208,80,q),
(251,82,o),
(285,100,q),
(299,107,o),
(313,119,q),
(327,131,o),
(338,147.5,q),
(349,164,o),
(355.5,187,q),
(362,210,o),
(362,240,q),
(362,1150,l),
(362,1183,o),
(355.5,1208.5,q),
(349,1234,o),
(338,1252.5,q),
(327,1271,o),
(313,1283.5,q),
(299,1296,o),
(285,1304,q),
(251,1322,o),
(208,1324,q),
(173,1324,o),
(147.5,1333,q),
(122,1342,o),
(105.5,1358,q),
(89,1374,o),
(81.5,1395.5,q),
(74,1417,o),
(74,1442,q),
(74,1467,o),
(82,1488.5,q),
(90,1510,o),
(107,1526.5,q),
(124,1543,o),
(151,1552.5,q),
(178,1562,o),
(216,1562,q),
(307,1562,o),
(385.5,1539,q),
(464,1516,o),
(522.5,1470.5,q),
(581,1425,o),
(614.5,1357,q),
(648,1289,o),
(648,1198,q),
(648,258,l),
(648,180,o),
(631,120.5,q),
(614,61,o),
(586.5,17.5,q),
(559,-26,o),
(524,-56.5,q),
(489,-87,o),
(453,-106,q),
(367,-152,o),
(258,-158,q),
(204,-158,o),
(168.5,-149,q),
(133,-140,o),
(112,-124,q),
(91,-108,o),
(82.5,-86.5,q),
(74,-65,o),
(74,-40,q)
);
}
);
width = 888;
}
);
unicode = 41;
},
{
glyphname = asterisk;
layers = (
{
layerId = "ee3f1d96-5840-4730-b38c-b1c88b21a886";
name = Fore;
shapes = (
{
closed = 1;
nodes = (
(472,952,l),
(472,1116,l),
(472,1185,o),
(499,1222.5,q),
(526,1260,o),
(598,1260,q),
(667,1260,o),
(693.5,1222.5,q),
(720,1185,o),
(720,1116,q),
(720,952,l),
(730,944,l),
(878,1044,l),
(927,1078,o),
(970,1078,q),
(991,1078,o),
(1011.5,1065,q),
(1032,1052,o),
(1048,1032,q),
(1064,1012,o),
(1074,988,q),
(1084,964,o),
(1084,942,q),
(1084,910,o),
(1064.5,883.5,q),
(1045,857,o),
(1010,836,q),
(828,726,l),
(828,714,l),
(1006,608,l),
(1042,587,o),
(1063,559.5,q),
(1084,532,o),
(1084,500,q),
(1084,478,o),
(1073,454,q),
(1062,430,o),
(1045.5,410,q),
(1029,390,o),
(1008,377,q),
(987,364,o),
(968,364,q),
(926,364,o),
(872,400,q),
(730,496,l),
(720,488,l),
(720,304,l),
(720,241,o),
(693.5,202.5,q),
(667,164,o),
(598,164,q),
(562,164,o),
(538,174,q),
(514,184,o),
(499,202.5,q),
(484,221,o),
(478,246.5,q),
(472,272,o),
(472,304,q),
(472,488,l),
(462,496,l),
(322,400,l),
(268,364,o),
(226,364,q),
(206,364,o),
(185.5,377,q),
(165,390,o),
(148.5,410,q),
(132,430,o),
(121,454,q),
(110,478,o),
(110,500,q),
(110,532,o),
(131,559.5,q),
(152,587,o),
(188,608,q),
(366,714,l),
(366,726,l),
(184,836,l),
(149,857,o),
(129.5,883.5,q),
(110,910,o),
(110,942,q),
(110,964,o),
(120,988,q),
(130,1012,o),
(146,1032,q),
(162,1052,o),
(182.5,1065,q),
(203,1078,o),
(224,1078,q),
(245,1078,o),
(269,1069.5,q),
(293,1061,o),
(316,1044,q),
(460,944,l)
);
}
);
width = 1194;
}
);
unicode = 42;
},
{
glyphname = plus;
layers = (
{
layerId = "ee3f1d96-5840-4730-b38c-b1c88b21a886";
name = Fore;
shapes = (
{
closed = 1;
nodes = (
(307,600,o),
(281,603.5,q),
(255,607,o),
(234.5,619.5,q),
(214,632,o),
(202,655.5,q),
(190,679,o),
(190,720,q),
(190,764,o),
(202,789,q),
(214,814,o),
(234,826,q),
(254,838,o),
(280,841,q),
(306,844,o),
(334,844,q),
(432,844,l),
(432,942,l),
(432,967,o),
(435,993,q),
(438,1019,o),
(450,1039.5,q),
(462,1060,o),
(487,1073,q),
(512,1086,o),
(556,1086,q),
(596,1086,o),
(620,1073,q),
(644,1060,o),
(656.5,1039.5,q),
(669,1019,o),
(672.5,993,q),
(676,967,o),
(676,942,q),
(676,844,l),
(776,844,l),
(801,844,o),
(827,841,q),
(853,838,o),
(873.5,826,q),
(894,814,o),
(907,789,q),
(920,764,o),
(920,720,q),
(920,679,o),
(907,655.5,q),
(894,632,o),
(873.5,619.5,q),
(853,607,o),
(827,603.5,q),
(801,600,o),
(776,600,q),
(676,600,l),
(676,500,l),
(676,472,o),
(672.5,446,q),
(669,420,o),
(656.5,400,q),
(644,380,o),
(620,368,q),
(596,356,o),
(556,356,q),
(512,356,o),
(487,368,q),
(462,380,o),
(450,400,q),
(438,420,o),
(435,446,q),
(432,472,o),
(432,500,q),
(432,600,l),
(356,600,l),
(336,600,l)
);
}
);
width = 1102;
}
);
unicode = 43;
},
{
glyphname = comma;
layers = (
{
layerId = "ee3f1d96-5840-4730-b38c-b1c88b21a886";
name = Fore;
shapes = (
{
closed = 1;
nodes = (
(464,117,o),
(453,59.5,q),
(442,2,o),
(419.5,-47.5,q),
(397,-97,o),
(362.5,-130.5,q),
(328,-164,o),
(282,-164,q),
(265,-164,o),
(249.5,-152,q),
(234,-140,o),
(234,-114,q),
(234,-106,l),
(235,-96,o),
(240,-85.5,q),
(245,-75,o),
(251,-65,q),
(257,-55,o),
(261.5,-45,q),
(266,-35,o),
(266,-24,q),
(266,-13,o),
(256,-6,q),
(246,1,o),
(231.5,9,q),
(217,17,o),
(200,27.5,q),
(183,38,o),
(168.5,55.5,q),
(154,73,o),
(144,99.5,q),
(134,126,o),
(134,166,q),
(134,252,o),
(177,291,q),
(220,330,o),
(300,330,q),
(383,330,o),
(423.5,291,q),
(464,252,o),
(464,166,q)
);
}
);
width = 598;
}
);
unicode = 44;
},
{
glyphname = hyphen;
layers = (
{
layerId = "ee3f1d96-5840-4730-b38c-b1c88b21a886";
name = Fore;
shapes = (
{
closed = 1;
nodes = (
(224,480,o),
(198,483.5,q),
(172,487,o),
(152,499.5,q),
(132,512,o),
(120,535.5,q),
(108,559,o),
(108,600,q),
(108,644,o),
(120,669,q),
(132,694,o),
(152,706,q),
(172,718,o),
(198,721,q),
(224,724,o),
(252,724,q),
(694,724,l),
(719,724,o),
(745,721,q),
(771,718,o),
(791.5,706,q),
(812,694,o),
(825,669,q),
(838,644,o),
(838,600,q),
(838,559,o),
(825,535.5,q),
(812,512,o),
(791.5,499.5,q),
(771,487,o),
(745,483.5,q),
(719,480,o),
(694,480,q),
(308,480,l),
(252,480,l)
);
}
);
width = 966;
}
);
unicode = 45;
},
{
glyphname = period;
layers = (
{
layerId = "ee3f1d96-5840-4730-b38c-b1c88b21a886";
name = Fore;
shapes = (
{
closed = 1;
nodes = (
(464,81,o),
(421,40.5,q),
(378,0,o),
(300,0,q),
(220,0,o),
(177,40.5,q),
(134,81,o),
(134,166,q),
(134,252,o),
(177,291,q),
(220,330,o),
(300,330,q),
(383,330,o),
(423.5,291,q),
(464,252,o),
(464,166,q)
);
}
);
width = 598;
}
);
unicode = 46;
},
{
glyphname = slash;
layers = (
{
layerId = "ee3f1d96-5840-4730-b38c-b1c88b21a886";
name = Fore;
shapes = (
{
closed = 1;
nodes = (
(310,57,o),
(300.5,39.5,q),
(291,22,o),
(277.5,7.5,q),
(264,-7,o),
(246.5,-16.5,q),
(229,-26,o),
(206,-26,q),
(181,-26,o),
(150,-12,q),
(109,6,o),
(91,28,q),
(73,50,o),
(70,74,q),
(70,103,o),
(76.5,124,q),
(83,145,o),
(92,168,q),
(580,1310,l),
(587,1326,o),
(595,1343,q),
(603,1360,o),
(614,1373.5,q),
(625,1387,o),
(639.5,1396.5,q),
(654,1406,o),
(674,1408,q),
(695,1408,o),
(712.5,1405,q),
(730,1402,o),
(750,1394,q),
(789,1377,o),
(806,1355.5,q),
(823,1334,o),
(826,1310,q),
(826,1280,o),
(819.5,1257,q),
(813,1234,o),
(804,1214,q),
(318,74,l)
);
}
);
width = 906;
}
);
unicode = 47;
},
{
glyphname = zero;
layers = (
{
layerId = "ee3f1d96-5840-4730-b38c-b1c88b21a886";
name = Fore;
shapes = (
{
closed = 1;
nodes = (
(102,1097,o),
(129.5,1165.5,q),
(157,1234,o),
(200,1279,q),
(243,1324,o),
(295,1350,q),
(347,1376,o),
(396.5,1389,q),
(446,1402,o),
(485.5,1405,q),
(525,1408,o),
(544,1408,q),
(578,1408,l),
(597,1408,o),
(637,1405,q),
(677,1402,o),
(725.5,1389,q),
(774,1376,o),
(825.5,1350,q),
(877,1324,o),
(919.5,1279,q),
(962,1234,o),
(989,1165.5,q),
(1016,1097,o),
(1016,1000,q),
(1016,410,l),
(1016,310,o),
(989,240,q),
(962,170,o),
(919.5,123.5,q),
(877,77,o),
(825.5,51,q),
(774,25,o),
(725.5,11.5,q),
(677,-2,o),
(637,-5,q),
(597,-8,o),
(578,-8,q),
(544,-8,l),
(525,-8,o),
(485.5,-5,q),
(446,-2,o),
(396.5,11.5,q),
(347,25,o),
(295,51,q),
(243,77,o),
(200,123.5,q),
(157,170,o),
(129.5,240,q),
(102,310,o),
(102,410,q),
(102,1000,l)
);
},
{
closed = 1;
nodes = (
(433,323,o),
(449,296,q),
(462,273,o),
(488.5,253.5,q),
(515,234,o),
(562,234,q),
(608,234,o),
(634,253.5,q),
(660,273,o),
(673,296,q),
(688,323,o),
(692,358,q),
(692,1034,l),
(688,1069,o),
(673,1096,q),
(660,1119,o),
(634,1138.5,q),
(608,1158,o),
(562,1158,q),
(515,1158,o),
(488.5,1138.5,q),
(462,1119,o),
(449,1096,q),
(433,1069,o),
(430,1034,q),
(430,358,l)
);
}
);
width = 1118;
}
);
unicode = 48;
},
{
glyphname = one;
layers = (
{
layerId = "ee3f1d96-5840-4730-b38c-b1c88b21a886";
name = Fore;
shapes = (
{
closed = 1;
nodes = (
(327,932,o),
(288,915,q),
(249,898,o),
(196,898,q),
(166,898,o),
(140.5,909.5,q),
(115,921,o),
(97,940.5,q),
(79,960,o),
(68.5,985,q),
(58,1010,o),
(58,1038,q),
(58,1066,o),
(67,1086.5,q),
(76,1107,o),
(92,1122,q),
(108,1137,o),
(129,1149,q),
(150,1161,o),
(174,1174,q),
(224,1207,o),
(263.5,1241,q),
(303,1275,o),
(334,1304.5,q),
(365,1334,o),
(388,1355,q),
(411,1376,o),
(428,1384,q),
(438,1389,o),
(446.5,1392.5,q),
(455,1396,o),
(464,1397.5,q),
(473,1399,o),
(484,1399.5,q),
(495,1400,o),
(512,1400,q),
(564,1400,o),
(594.5,1379,q),
(625,1358,o),
(640.5,1324.5,q),
(656,1291,o),
(660,1249,q),
(664,1207,o),
(664,1164,q),
(664,236,l),
(664,192,o),
(660,149.5,q),
(656,107,o),
(640.5,74,q),
(625,41,o),
(594.5,20.5,q),
(564,0,o),
(512,0,q),
(459,0,o),
(429,20.5,q),
(399,41,o),
(383.5,74,q),
(368,107,o),
(364,149.5,q),
(360,192,o),
(360,236,q),
(360,962,l)
);
}
);
width = 786;
}
);
unicode = 49;
},
{
glyphname = two;
layers = (
{
layerId = "ee3f1d96-5840-4730-b38c-b1c88b21a886";
name = Fore;
shapes = (
{
closed = 1;
nodes = (
(665,1408,o),
(750.5,1377.5,q),
(836,1347,o),
(893,1292.5,q),
(950,1238,o),
(979,1162.5,q),
(1008,1087,o),
(1008,996,q),
(1008,936,o),
(991.5,885,q),
(975,834,o),
(948.5,792,q),
(922,750,o),
(888,716,q),
(854,682,o),
(819,656,q),
(735,594,o),
(630,556,q),
(595,542,o),
(560.5,522.5,q),
(526,503,o),
(499,477.5,q),
(472,452,o),
(455,418.5,q),
(438,385,o),
(438,342,q),
(438,280,l),
(786,280,l),
(828,280,o),
(870,276,q),
(912,272,o),
(946,258,q),
(980,244,o),
(1001,216.5,q),
(1022,189,o),
(1022,142,q),
(1022,94,o),
(1001,66,q),
(980,38,o),
(946,23,q),
(912,8,o),
(870,4,q),
(828,0,o),
(786,0,q),
(288,0,l),
(238,0,o),
(205.5,16.5,q),
(173,33,o),
(154,58.5,q),
(135,84,o),
(127.5,115.5,q),
(120,147,o),
(120,178,q),
(120,338,l),
(120,415,o),
(145.5,482.5,q),
(171,550,o),
(217.5,605.5,q),
(264,661,o),
(328.5,705,q),
(393,749,o),
(472,780,q),
(551,811,o),
(598,839.5,q),
(645,868,o),
(670.5,895.5,q),
(696,923,o),
(704,951,q),
(712,979,o),
(712,1008,q),
(712,1060,o),
(694.5,1090,q),
(677,1120,o),
(651.5,1134.5,q),
(626,1149,o),
(598.5,1152.5,q),
(571,1156,o),
(552,1156,q),
(502,1156,o),
(472,1141.5,q),
(442,1127,o),
(426.5,1105,q),
(411,1083,o),
(406.5,1056.5,q),
(402,1030,o),
(402,1006,q),
(402,967,o),
(387,939.5,q),
(372,912,o),
(349.5,895,q),
(327,878,o),
(300.5,870,q),
(274,862,o),
(252,862,q),
(184,862,o),
(142,899.5,q),
(100,937,o),
(100,996,q),
(100,1022,o),
(106,1063,q),
(112,1104,o),
(129,1150,q),
(146,1196,o),
(177,1242,q),
(208,1288,o),
(258,1325,q),
(308,1362,o),
(380,1385,q),
(452,1408,o),
(552,1408,q)
);
}
);
width = 1060;
}
);
unicode = 50;
},
{
glyphname = three;
layers = (
{
layerId = "ee3f1d96-5840-4730-b38c-b1c88b21a886";
name = Fore;
shapes = (
{
closed = 1;
nodes = (
(542,1122,l),
(282,1122,l),
(248,1122,o),
(211.5,1126,q),
(175,1130,o),
(145,1144,q),
(115,1158,o),
(95.5,1186,q),
(76,1214,o),
(76,1262,q),
(76,1309,o),
(95.5,1336.5,q),
(115,1364,o),
(145,1378,q),
(175,1392,o),
(211.5,1396,q),
(248,1400,o),
(282,1400,q),
(728,1400,l),
(768,1400,o),
(799.5,1387,q),
(831,1374,o),
(852.5,1352.5,q),
(874,1331,o),
(885,1303,q),
(896,1275,o),
(896,1246,q),
(896,1229,o),
(893.5,1213,q),
(891,1197,o),
(882,1182,q),
(702,882,l),
(748,863,o),
(792,831.5,q),
(836,800,o),
(870.5,752,q),
(905,704,o),
(925.5,638.5,q),
(946,573,o),
(946,488,q),
(946,392,o),
(925.5,317.5,q),
(905,243,o),
(870.5,188,q),
(836,133,o),
(789.5,95.5,q),
(743,58,o),
(690.5,35,q),
(638,12,o),
(582,2,q),
(526,-8,o),
(472,-8,q),
(431,-8,o),
(384,0,q),
(337,8,o),
(290.5,25,q),
(244,42,o),
(201.5,66.5,q),
(159,91,o),
(126,125,q),
(93,159,o),
(73.5,201,q),
(54,243,o),
(54,294,q),
(54,319,o),
(61,341.5,q),
(68,364,o),
(82.5,381.5,q),
(97,399,o),
(119,409.5,q),
(141,420,o),
(172,420,q),
(213,420,o),
(248.5,397,q),
(284,374,o),
(308,326,q),
(314,315,o),
(326.5,301,q),
(339,287,o),
(359.5,275,q),
(380,263,o),
(409,254.5,q),
(438,246,o),
(476,246,q),
(534,246,o),
(571.5,264.5,q),
(609,283,o),
(631,313,q),
(653,343,o),
(661.5,381,q),
(670,419,o),
(670,458,q),
(670,503,o),
(655,541,q),
(640,579,o),
(614.5,607,q),
(589,635,o),
(556.5,650.5,q),
(524,666,o),
(490,666,q),
(442,666,o),
(412,695,q),
(382,724,o),
(382,774,q),
(382,795,o),
(390,820.5,q),
(398,846,o),
(416,878,q),
(542,1108,l)
);
}
);
width = 1026;
}
);
unicode = 51;
},
{
glyphname = four;
layers = (
{
layerId = "ee3f1d96-5840-4730-b38c-b1c88b21a886";
name = Fore;
shapes = (
{
closed = 1;
nodes = (
(813,926,o),
(841,912.5,q),
(869,899,o),
(883.5,876,q),
(898,853,o),
(902,822.5,q),
(906,792,o),
(906,758,q),
(906,166,l),
(906,131,o),
(902,101,q),
(898,71,o),
(884,48.5,q),
(870,26,o),
(842,13,q),
(814,0,o),
(766,0,q),
(719,0,o),
(691,12.5,q),
(663,25,o),
(648,46,q),
(633,67,o),
(628.5,96,q),
(624,125,o),
(624,158,q),
(624,336,l),
(282,336,l),
(220,336,o),
(180,346,q),
(140,356,o),
(116.5,372.5,q),
(93,389,o),
(83.5,411,q),
(74,433,o),
(74,456,q),
(74,468,o),
(76.5,480,q),
(79,492,o),
(82,504,q),
(284,1206,l),
(294,1243,o),
(303.5,1278,q),
(313,1313,o),
(329.5,1340,q),
(346,1367,o),
(375,1383.5,q),
(404,1400,o),
(454,1400,q),
(490,1400,o),
(513.5,1390,q),
(537,1380,o),
(551,1363.5,q),
(565,1347,o),
(570.5,1325.5,q),
(576,1304,o),
(576,1280,q),
(576,1256,o),
(572,1231.5,q),
(568,1207,o),
(562.5,1186,q),
(557,1165,o),
(551.5,1148.5,q),
(546,1132,o),
(544,1124,q),
(544,1124,o),
(538,1102.5,q),
(532,1081,o),
(522,1046.5,q),
(512,1012,o),
(500,967.5,q),
(488,923,o),
(475,877,q),
(444,769,o),
(406,632,q),
(414,624,l),
(624,624,l),
(624,760,l),
(624,794,o),
(628,824,q),
(632,854,o),
(646,876.5,q),
(660,899,o),
(688,912.5,q),
(716,926,o),
(764,926,q)
);
}
);
width = 1002;
}
);
unicode = 52;
},
{
glyphname = five;
layers = (
{
layerId = "ee3f1d96-5840-4730-b38c-b1c88b21a886";
name = Fore;
shapes = (
{
closed = 1;
nodes = (
(427,903,o),
(475.5,909.5,q),
(524,916,o),
(562,916,q),
(598,916,o),
(642,908,q),
(686,900,o),
(731,880.5,q),
(776,861,o),
(819,829,q),
(862,797,o),
(895,749.5,q),
(928,702,o),
(948,637,q),
(968,572,o),
(968,488,q),
(968,392,o),
(947.5,317.5,q),
(927,243,o),
(892.5,188,q),
(858,133,o),
(811.5,95.5,q),
(765,58,o),
(712.5,35,q),
(660,12,o),
(604,2,q),
(548,-8,o),
(494,-8,q),
(435,-8,o),
(369.5,7.5,q),
(304,23,o),
(245.5,54.5,q),
(187,86,o),
(142.5,133.5,q),
(98,181,o),
(82,246,q),
(76,270,o),
(76,294,q),
(76,319,o),
(83,341.5,q),
(90,364,o),
(104.5,381.5,q),
(119,399,o),
(141,409.5,q),
(163,420,o),
(194,420,q),
(235,420,o),
(270.5,397,q),
(306,374,o),
(330,326,q),
(336,315,o),
(348.5,301,q),
(361,287,o),
(381.5,275,q),
(402,263,o),
(431,254.5,q),
(460,246,o),
(498,246,q),
(556,246,o),
(593.5,264.5,q),
(631,283,o),
(653,313,q),
(675,343,o),
(683.5,381,q),
(692,419,o),
(692,458,q),
(692,507,o),
(675,542.5,q),
(658,578,o),
(629.5,601.5,q),
(601,625,o),
(565,636.5,q),
(529,648,o),
(492,648,q),
(460,648,o),
(428.5,639.5,q),
(397,631,o),
(365.5,621,q),
(334,611,o),
(302,602.5,q),
(270,594,o),
(236,594,q),
(213,594,o),
(190,599,q),
(167,604,o),
(149,617.5,q),
(131,631,o),
(119.5,653,q),
(108,675,o),
(108,710,q),
(166,1260,l),
(168,1282,o),
(174.5,1306.5,q),
(181,1331,o),
(194.5,1352,q),
(208,1373,o),
(230.5,1386.5,q),
(253,1400,o),
(288,1400,q),
(688,1400,l),
(725,1400,o),
(763.5,1396,q),
(802,1392,o),
(832.5,1378,q),
(863,1364,o),
(882.5,1336.5,q),
(902,1309,o),
(902,1262,q),
(902,1214,o),
(882.5,1186,q),
(863,1158,o),
(832.5,1144,q),
(802,1130,o),
(763.5,1126,q),
(725,1122,o),
(688,1122,q),
(448,1122,l),
(440,1122,o),
(432.5,1121.5,q),
(425,1121,o),
(419.5,1117,q),
(414,1113,o),
(410.5,1104.5,q),
(407,1096,o),
(406,1080,q),
(386,888,l)
);
}
);
width = 1026;
}
);
unicode = 53;
},
{
glyphname = six;
layers = (
{
layerId = "ee3f1d96-5840-4730-b38c-b1c88b21a886";
name = Fore;
shapes = (
{
closed = 1;
nodes = (
(122,537,o),
(122.5,598.5,q),
(123,660,o),
(123,720,q),
(123,780,o),
(123.5,830,q),
(124,880,o),
(124,904,q),
(124,962,o),
(136,1021.5,q),
(148,1081,o),
(170.5,1136,q),
(193,1191,o),
(225,1239,q),
(257,1287,o),
(296.5,1323,q),
(336,1359,o),
(381.5,1379.5,q),
(427,1400,o),
(478,1400,q),
(513,1398,o),
(539.5,1386.5,q),
(566,1375,o),
(584,1357.5,q),
(602,1340,o),
(611,1318,q),
(620,1296,o),
(620,1272,q),
(620,1239,o),
(602,1206,q),
(584,1173,o),
(546,1144,q),
(516,1120,o),
(494,1101,q),
(472,1082,o),
(457.5,1063,q),
(443,1044,o),
(434.5,1022.5,q),
(426,1001,o),
(421.5,973.5,q),
(417,946,o),
(415.5,909,q),
(414,872,o),
(414,822,q),
(424,843,o),
(443,857,q),
(462,871,o),
(484.5,879,q),
(507,887,o),
(532,890.5,q),
(557,894,o),
(580,894,q),
(608,894,o),
(646.5,889,q),
(685,884,o),
(726,869.5,q),
(767,855,o),
(807,828,q),
(847,801,o),
(878,757.5,q),
(909,714,o),
(928.5,651,q),
(948,588,o),
(948,502,q),
(948,410,l),
(948,310,o),
(923.5,240,q),
(899,170,o),
(861,123.5,q),
(823,77,o),
(776,51,q),
(729,25,o),
(684,11.5,q),
(639,-2,o),
(600.5,-5,q),
(562,-8,o),
(542,-8,q),
(515,-8,o),
(473.5,-5,q),
(432,-2,o),
(385,11.5,q),
(338,25,o),
(291.5,51,q),
(245,77,o),
(207,123.5,q),
(169,170,o),
(145.5,240,q),
(122,310,o),
(122,410,q),
(122,490,l)
);
},
{
closed = 1;
nodes = (
(416,339,o),
(429,313,q),
(440,290,o),
(464,272,q),
(488,254,o),
(532,254,q),
(576,254,o),
(599,272,q),
(622,290,o),
(633,313,q),
(645,339,o),
(648,372,q),
(648,518,l),
(645,551,o),
(633,577,q),
(622,599,o),
(598.5,617.5,q),
(575,636,o),
(532,636,q),
(488,636,o),
(464,617.5,q),
(440,599,o),
(429,577,q),
(416,551,o),
(414,518,q),
(414,372,l)
);
}
);
width = 992;
}
);
unicode = 54;
},
{
glyphname = seven;
layers = (
{
layerId = "ee3f1d96-5840-4730-b38c-b1c88b21a886";
name = Fore;
shapes = (
{
closed = 1;
nodes = (
(576,1122,l),
(262,1122,l),
(227,1122,o),
(189.5,1126,q),
(152,1130,o),
(120.5,1144,q),
(89,1158,o),
(68.5,1186,q),
(48,1214,o),
(48,1262,q),
(48,1309,o),
(68.5,1336.5,q),
(89,1364,o),
(120.5,1378,q),
(152,1392,o),
(189.5,1396,q),
(227,1400,o),
(262,1400,q),
(798,1400,l),
(838,1400,o),
(869.5,1387,q),
(901,1374,o),
(922.5,1352.5,q),
(944,1331,o),
(955,1303,q),
(966,1275,o),
(966,1246,q),
(966,1229,o),
(963,1213,q),
(960,1197,o),
(952,1182,q),
(664,656,l),
(639,611,o),
(624.5,578.5,q),
(610,546,o),
(602.5,517,q),
(595,488,o),
(592.5,457,q),
(590,426,o),
(590,384,q),
(590,234,l),
(590,190,o),
(587.5,148,q),
(585,106,o),
(570,73,q),
(555,40,o),
(522.5,20,q),
(490,0,o),
(430,0,q),
(371,0,o),
(339.5,20,q),
(308,40,o),
(293.5,73,q),
(279,106,o),
(276.5,148,q),
(274,190,o),
(274,234,q),
(274,384,l),
(274,455,o),
(277.5,500,q),
(281,545,o),
(291,579.5,q),
(301,614,o),
(318,647,q),
(335,680,o),
(362,728,q),
(576,1110,l)
);
}
);
width = 1012;
}
);
unicode = 55;
},
{
glyphname = eight;
layers = (
{
layerId = "ee3f1d96-5840-4730-b38c-b1c88b21a886";
name = Fore;
shapes = (
{
closed = 1;
nodes = (
(392,313,o),
(406,289,q),
(418,268,o),
(443,251,q),
(468,234,o),
(516,234,q),
(561,234,o),
(585.5,251,q),
(610,268,o),
(621,289,q),
(634,313,o),
(636,344,q),
(636,534,l),
(634,568,o),
(621,594,q),
(610,617,o),
(585.5,635.5,q),
(561,654,o),
(516,654,q),
(492,654,o),
(474.5,649,q),
(457,644,o),
(443.5,635.5,q),
(430,627,o),
(421,616,q),
(412,605,o),
(406,594,q),
(392,568,o),
(390,534,q),
(390,344,l)
);
},
{
closed = 1;
nodes = (
(539,1408,o),
(577.5,1405.5,q),
(616,1403,o),
(660,1392,q),
(704,1381,o),
(748.5,1358,q),
(793,1335,o),
(829,1293,q),
(865,1251,o),
(887.5,1187.5,q),
(910,1124,o),
(910,1032,q),
(910,1006,l),
(910,944,o),
(902,900.5,q),
(894,857,o),
(879,827,q),
(864,797,o),
(843,777,q),
(822,757,o),
(796,742,q),
(822,727,o),
(846.5,707,q),
(871,687,o),
(889.5,657,q),
(908,627,o),
(919,583.5,q),
(930,540,o),
(930,478,q),
(930,368,l),
(930,276,o),
(906,212.5,q),
(882,149,o),
(843.5,107,q),
(805,65,o),
(758,42,q),
(711,19,o),
(665,8,q),
(619,-3,o),
(579,-5.5,q),
(539,-8,o),
(516,-8,q),
(493,-8,o),
(452.5,-5.5,q),
(412,-3,o),
(364.5,8,q),
(317,19,o),
(268.5,42,q),
(220,65,o),
(180,107,q),
(140,149,o),
(115,212.5,q),
(90,276,o),
(90,368,q),
(90,478,l),
(90,540,o),
(101,583.5,q),
(112,627,o),
(130.5,657,q),
(149,687,o),
(173.5,707,q),
(198,727,o),
(224,742,q),
(198,757,o),
(177,777,q),
(156,797,o),
(141,827,q),
(126,857,o),
(118,900.5,q),
(110,944,o),
(110,1006,q),
(110,1032,l),
(110,1124,o),
(133.5,1187.5,q),
(157,1251,o),
(194.5,1293,q),
(232,1335,o),
(278.5,1358,q),
(325,1381,o),
(370,1392,q),
(415,1403,o),
(454,1405.5,q),
(493,1408,o),
(516,1408,q)
);
},
{
closed = 1;
nodes = (
(392,921,o),
(406,897,q),
(418,876,o),
(443,859,q),
(468,842,o),
(516,842,q),
(561,842,o),
(585.5,859,q),
(610,876,o),
(621,897,q),
(634,921,o),
(636,952,q),
(636,1034,l),
(634,1068,o),
(621,1094,q),
(610,1117,o),
(585.5,1135.5,q),
(561,1154,o),
(516,1154,q),
(492,1154,o),
(474.5,1149,q),
(457,1144,o),
(443.5,1135.5,q),
(430,1127,o),
(421,1116,q),
(412,1105,o),
(406,1094,q),
(392,1068,o),
(390,1034,q),
(390,952,l)
);
}
);
width = 1020;
}
);
unicode = 56;
},
{
glyphname = nine;
layers = (
{
layerId = "ee3f1d96-5840-4730-b38c-b1c88b21a886";
name = Fore;
shapes = (
{
closed = 1;
nodes = (
(870,861,o),
(869.5,800,q),
(869,739,o),
(869,680,q),
(869,621,o),
(868.5,571.5,q),
(868,522,o),
(868,498,q),
(868,410,o),
(841.5,321.5,q),
(815,233,o),
(768.5,161.5,q),
(722,90,o),
(658,45,q),
(594,0,o),
(518,0,q),
(482,2,o),
(455,13.5,q),
(428,25,o),
(410,42.5,q),
(392,60,o),
(383,82,q),
(374,104,o),
(374,128,q),
(374,161,o),
(392,194,q),
(410,227,o),
(448,256,q),
(479,279,o),
(501,298.5,q),
(523,318,o),
(538,337,q),
(553,356,o),
(561.5,377.5,q),
(570,399,o),
(574.5,427,q),
(579,455,o),
(580.5,492,q),
(582,529,o),
(582,580,q),
(571,559,o),
(552.5,545,q),
(534,531,o),
(511.5,523,q),
(489,515,o),
(463.5,511.5,q),
(438,508,o),
(414,508,q),
(386,508,o),
(347.5,513,q),
(309,518,o),
(268,532.5,q),
(227,547,o),
(187,573.5,q),
(147,600,o),
(116,643.5,q),
(85,687,o),
(65.5,748.5,q),
(46,810,o),
(46,896,q),
(46,988,l),
(46,1088,o),
(70.5,1158.5,q),
(95,1229,o),
(133,1275.5,q),
(171,1322,o),
(218,1348.5,q),
(265,1375,o),
(310,1388.5,q),
(355,1402,o),
(393,1405,q),
(431,1408,o),
(452,1408,q),
(479,1408,o),
(521,1405,q),
(563,1402,o),
(609.5,1388.5,q),
(656,1375,o),
(702.5,1348.5,q),
(749,1322,o),
(786,1275.5,q),
(823,1229,o),
(846.5,1158.5,q),
(870,1088,o),
(870,988,q),
(870,908,l)
);
},
{
closed = 1;
nodes = (
(580,1059,o),
(567,1085,q),
(556,1107,o),
(532,1125.5,q),
(508,1144,o),
(464,1144,q),
(420,1144,o),
(396,1125.5,q),
(372,1107,o),
(361,1085,q),
(348,1059,o),
(346,1026,q),
(346,880,l),
(348,847,o),
(361,821,q),
(372,798,o),
(396,780,q),
(420,762,o),
(464,762,q),
(508,762,o),
(532,780,q),
(556,798,o),
(567,821,q),
(580,847,o),
(582,880,q),
(582,1026,l)
);
}
);
width = 992;
}
);
unicode = 57;
},
{
glyphname = colon;
layers = (
{
layerId = "ee3f1d96-5840-4730-b38c-b1c88b21a886";
name = Fore;
shapes = (
{
closed = 1;
nodes = (
(454,81,o),
(411,40.5,q),
(368,0,o),
(290,0,q),
(210,0,o),
(167,40.5,q),
(124,81,o),
(124,166,q),
(124,252,o),
(167,291,q),
(210,330,o),
(290,330,q),
(373,330,o),
(413.5,291,q),
(454,252,o),
(454,166,q)
);
},
{
closed = 1;
nodes = (
(452,605,o),
(409,564.5,q),
(366,524,o),
(288,524,q),
(208,524,o),
(165,564.5,q),
(122,605,o),
(122,690,q),
(122,776,o),
(165,815,q),
(208,854,o),
(288,854,q),
(371,854,o),
(411.5,815,q),
(452,776,o),
(452,690,q)
);
}
);
width = 572;
}
);
unicode = 58;
},
{
glyphname = semicolon;
layers = (
{
layerId = "ee3f1d96-5840-4730-b38c-b1c88b21a886";
name = Fore;
shapes = (
{
closed = 1;
nodes = (
(450,603,o),
(407,562.5,q),
(364,522,o),
(286,522,q),
(206,522,o),
(163,562.5,q),
(120,603,o),
(120,688,q),
(120,774,o),
(163,813,q),
(206,852,o),
(286,852,q),
(369,852,o),
(409.5,813,q),
(450,774,o),
(450,688,q)
);
},
{
closed = 1;
nodes = (
(452,115,o),
(441,57.5,q),
(430,0,o),
(407.5,-49.5,q),
(385,-99,o),
(350.5,-132.5,q),
(316,-166,o),
(270,-166,q),
(253,-166,o),
(237.5,-154,q),
(222,-142,o),
(222,-116,q),
(222,-108,l),
(223,-98,o),
(228,-87.5,q),
(233,-77,o),
(239,-67,q),
(245,-57,o),
(249.5,-47,q),
(254,-37,o),
(254,-26,q),
(254,-15,o),
(244,-8,q),
(234,-1,o),
(219.5,7,q),
(205,15,o),
(188,25.5,q),
(171,36,o),
(156.5,53.5,q),
(142,71,o),
(132,97.5,q),
(122,124,o),
(122,164,q),
(122,250,o),
(165,289,q),
(208,328,o),
(288,328,q),
(371,328,o),
(411.5,289,q),
(452,250,o),
(452,164,q)
);
}
);
width = 596;
}
);
unicode = 59;
},
{
glyphname = less;
layers = (
{
layerId = "ee3f1d96-5840-4730-b38c-b1c88b21a886";
name = Fore;
shapes = (
{
closed = 1;
nodes = (
(212,508,o),
(201.5,519,q),
(191,530,o),
(182,543,q),
(173,556,o),
(167.5,570,q),
(162,584,o),
(162,600,q),
(162,629,o),
(180,652.5,q),
(198,676,o),
(224,702,q),
(538,1014,l),
(561,1037,o),
(585.5,1055.5,q),
(610,1074,o),
(640,1074,q),
(660,1074,o),
(681,1063,q),
(702,1052,o),
(726,1028,q),
(749,1005,o),
(758.5,985.5,q),
(768,966,o),
(768,946,q),
(768,916,o),
(750.5,890.5,q),
(733,865,o),
(710,842,q),
(464,598,l),
(708,358,l),
(732,334,o),
(750,309.5,q),
(768,285,o),
(768,256,q),
(768,236,o),
(758,215,q),
(748,194,o),
(722,168,q),
(699,145,o),
(679.5,135.5,q),
(660,126,o),
(640,126,q),
(611,126,o),
(585.5,144,q),
(560,162,o),
(536,186,q),
(222,498,l)
);
}
);
width = 930;
}
);
unicode = 60;
},
{
glyphname = equal;
layers = (
{
layerId = "ee3f1d96-5840-4730-b38c-b1c88b21a886";
name = Fore;
shapes = (
{
closed = 1;
nodes = (
(300,682,o),
(274,685.5,q),
(248,689,o),
(228,701.5,q),
(208,714,o),
(196,737.5,q),
(184,761,o),
(184,802,q),
(184,846,o),
(196,871,q),
(208,896,o),
(228,908,q),
(248,920,o),
(274,923,q),
(300,926,o),
(328,926,q),
(770,926,l),
(795,926,o),
(821,923,q),
(847,920,o),
(867.5,908,q),
(888,896,o),
(901,871,q),
(914,846,o),
(914,802,q),
(914,761,o),
(901,737.5,q),
(888,714,o),
(867.5,701.5,q),
(847,689,o),
(821,685.5,q),
(795,682,o),
(770,682,q),
(384,682,l),
(328,682,l)
);
},
{
closed = 1;
nodes = (
(296,290,o),
(270,293.5,q),
(244,297,o),
(224,309.5,q),
(204,322,o),
(192,345.5,q),
(180,369,o),
(180,410,q),
(180,454,o),
(192,479,q),
(204,504,o),
(224,516,q),
(244,528,o),
(270,531,q),
(296,534,o),
(324,534,q),
(766,534,l),
(791,534,o),
(817,531,q),
(843,528,o),
(863.5,516,q),
(884,504,o),
(897,479,q),
(910,454,o),
(910,410,q),
(910,369,o),
(897,345.5,q),
(884,322,o),
(863.5,309.5,q),
(843,297,o),
(817,293.5,q),
(791,290,o),
(766,290,q),
(380,290,l),
(324,290,l)
);
}
);
width = 1102;
}
);
unicode = 61;
},
{
glyphname = greater;
layers = (
{
layerId = "ee3f1d96-5840-4730-b38c-b1c88b21a886";
name = Fore;
shapes = (
{
closed = 1;
nodes = (
(370,162,o),
(344.5,144,q),
(319,126,o),
(290,126,q),
(270,126,o),
(250.5,135.5,q),
(231,145,o),
(208,168,q),
(182,194,o),
(172,215,q),
(162,236,o),
(162,256,q),
(162,285,o),
(180,309.5,q),
(198,334,o),
(222,358,q),
(466,598,l),
(220,842,l),
(197,865,o),
(179.5,890.5,q),
(162,916,o),
(162,946,q),
(162,966,o),
(171.5,985.5,q),
(181,1005,o),
(204,1028,q),
(228,1052,o),
(249,1063,q),
(270,1074,o),
(290,1074,q),
(320,1074,o),
(344.5,1055.5,q),
(369,1037,o),
(392,1014,q),
(706,702,l),
(732,676,o),
(750,652.5,q),
(768,629,o),
(768,600,q),
(768,584,o),
(762.5,570,q),
(757,556,o),
(748,543,q),
(739,530,o),
(728.5,519,q),
(718,508,o),
(708,498,q),
(394,186,l)
);
}
);
width = 930;
}
);
unicode = 62;
},
{
glyphname = question;
layers = (
{
layerId = "ee3f1d96-5840-4730-b38c-b1c88b21a886";
name = Fore;
shapes = (
{
closed = 1;
nodes = (
(1012,956,o),
(993.5,913,q),
(975,870,o),
(946,834,q),
(917,798,o),
(881.5,768,q),
(846,738,o),
(812.5,713,q),
(779,688,o),
(750.5,666.5,q),
(722,645,o),
(708,626,q),
(702,618,o),
(694,601.5,q),
(686,585,o),
(686,564,q),
(686,510,o),
(652.5,475,q),
(619,440,o),
(548,440,q),
(505,440,o),
(477.5,453.5,q),
(450,467,o),
(433.5,487,q),
(417,507,o),
(410.5,530,q),
(404,553,o),
(404,572,q),
(404,640,o),
(427,686,q),
(450,732,o),
(485,765.5,q),
(520,799,o),
(560,824,q),
(600,849,o),
(635,876,q),
(670,903,o),
(693,936.5,q),
(716,970,o),
(716,1020,q),
(716,1072,o),
(698.5,1102,q),
(681,1132,o),
(655.5,1146.5,q),
(630,1161,o),
(602.5,1164.5,q),
(575,1168,o),
(556,1168,q),
(506,1168,o),
(476,1153.5,q),
(446,1139,o),
(430.5,1117,q),
(415,1095,o),
(410.5,1068.5,q),
(406,1042,o),
(406,1018,q),
(406,979,o),
(391,951.5,q),
(376,924,o),
(353.5,907,q),
(331,890,o),
(304.5,882,q),
(278,874,o),
(256,874,q),
(188,874,o),
(146,911.5,q),
(104,949,o),
(104,1008,q),
(104,1034,o),
(110,1075,q),
(116,1116,o),
(133,1162,q),
(150,1208,o),
(181,1254,q),
(212,1300,o),
(262,1337,q),
(312,1374,o),
(384,1397,q),
(456,1420,o),
(556,1420,q),
(669,1420,o),
(754.5,1389.5,q),
(840,1359,o),
(897,1304.5,q),
(954,1250,o),
(983,1174.5,q),
(1012,1099,o),
(1012,1008,q)
);
},
{
closed = 1;
nodes = (
(720,81,o),
(677,40.5,q),
(634,0,o),
(556,0,q),
(476,0,o),
(433,40.5,q),
(390,81,o),
(390,166,q),
(390,252,o),
(433,291,q),
(476,330,o),
(556,330,q),
(639,330,o),
(679.5,291,q),
(720,252,o),
(720,166,q)
);
}
);
width = 1122;
}
);
unicode = 63;
},
{
glyphname = at;
layers = (
{
layerId = "ee3f1d96-5840-4730-b38c-b1c88b21a886";
name = Fore;
shapes = (
{
closed = 1;
nodes = (
(1050,245,o),
(1051,233,q),
(1052,221,o),
(1056,211.5,q),
(1060,202,o),
(1068.5,196,q),
(1077,190,o),
(1092,190,q),
(1120,190,o),
(1143.5,212,q),
(1167,234,o),
(1184.5,274.5,q),
(1202,315,o),
(1212,370.5,q),
(1222,426,o),
(1222,494,q),
(1222,614,o),
(1194.5,706.5,q),
(1167,799,o),
(1107,862,q),
(1047,925,o),
(952,957.5,q),
(857,990,o),
(722,990,q),
(614,990,o),
(522.5,964,q),
(431,938,o),
(364,879.5,q),
(297,821,o),
(259.5,726,q),
(222,631,o),
(222,494,q),
(222,369,o),
(251.5,283,q),
(281,197,o),
(328,141,q),
(375,85,o),
(432.5,54.5,q),
(490,24,o),
(545.5,9.5,q),
(601,-5,o),
(648,-7.5,q),
(695,-10,o),
(722,-10,q),
(735,-10,o),
(760.5,-10,q),
(786,-10,o),
(818.5,-10,q),
(851,-10,o),
(887,-9.5,q),
(923,-9,o),
(954.5,-8.5,q),
(986,-8,o),
(1010.5,-7,q),
(1035,-6,o),
(1046,-4,q),
(1069,-1,o),
(1088.5,6.5,q),
(1108,14,o),
(1125.5,23,q),
(1143,32,o),
(1159,41,q),
(1175,50,o),
(1192,56,q),
(1197,58,o),
(1201,59,q),
(1205,60,o),
(1210,60,q),
(1227,60,o),
(1236.5,50.5,q),
(1246,41,o),
(1246,26,q),
(1246,3,o),
(1230.5,-14.5,q),
(1215,-32,o),
(1192.5,-44.5,q),
(1170,-57,o),
(1143,-66,q),
(1116,-75,o),
(1094,-82,q),
(1082,-86,o),
(1052,-88,q),
(1022,-90,o),
(983.5,-91.5,q),
(945,-93,o),
(902.5,-94,q),
(860,-95,o),
(823,-95.5,q),
(786,-96,o),
(758,-96,q),
(730,-96,o),
(722,-96,q),
(652,-96,o),
(580.5,-86.5,q),
(509,-77,o),
(443.5,-52,q),
(378,-27,o),
(321,15.5,q),
(264,58,o),
(222,123.5,q),
(180,189,o),
(156,280,q),
(132,371,o),
(132,494,q),
(132,566,o),
(142.5,637.5,q),
(153,709,o),
(178.5,774,q),
(204,839,o),
(247,894.5,q),
(290,950,o),
(355.5,991,q),
(421,1032,o),
(511.5,1055,q),
(602,1078,o),
(722,1078,q),
(891,1078,o),
(1003,1035.5,q),
(1115,993,o),
(1182.5,916,q),
(1250,839,o),
(1278,731.5,q),
(1306,624,o),
(1306,494,q),
(1306,406,o),
(1289.5,329.5,q),
(1273,253,o),
(1232.5,196,q),
(1192,139,o),
(1125,106.5,q),
(1058,74,o),
(958,74,q),
(904,74,o),
(864.5,98.5,q),
(825,123,o),
(816,176,q),
(814,188,o),
(813,198.5,q),
(812,209,o),
(812,218,q),
(804,195,o),
(791,171.5,q),
(778,148,o),
(757.5,129,q),
(737,110,o),
(708.5,98,q),
(680,86,o),
(642,86,q),
(599,86,o),
(556,100,q),
(513,114,o),
(478.5,147,q),
(444,180,o),
(422,233,q),
(400,286,o),
(400,364,q),
(400,592,l),
(400,670,o),
(422,723,q),
(444,776,o),
(478.5,809,q),
(513,842,o),
(556,856,q),
(599,870,o),
(642,870,q),
(680,870,o),
(708.5,858,q),
(737,846,o),
(757.5,827,q),
(778,808,o),
(791,784.5,q),
(804,761,o),
(812,738,q),
(812,777,o),
(823,803,q),
(834,829,o),
(851,844,q),
(868,859,o),
(889.5,865.5,q),
(911,872,o),
(932,872,q),
(972,872,o),
(995.5,857,q),
(1019,842,o),
(1031,816.5,q),
(1043,791,o),
(1046.5,758.5,q),
(1050,726,o),
(1050,692,q),
(1050,256,l)
);
},
{
closed = 1;
nodes = (
(642,363,o),
(643.5,342.5,q),
(645,322,o),
(652,306,q),
(659,290,o),
(672.5,280,q),
(686,270,o),
(710,270,q),
(741,270,o),
(760.5,283.5,q),
(780,297,o),
(791,325.5,q),
(802,354,o),
(806.5,398,q),
(811,442,o),
(812,502,q),
(812,527,o),
(807.5,558.5,q),
(803,590,o),
(791.5,618.5,q),
(780,647,o),
(760.5,666.5,q),
(741,686,o),
(710,686,q),
(686,686,o),
(672.5,676.5,q),
(659,667,o),
(652,651,q),
(645,635,o),
(643.5,615,q),
(642,595,o),
(642,574,q),
(642,384,l)
);
}
);
width = 1494;
}
);
unicode = 64;
},
{
glyphname = A;
layers = (
{
layerId = "ee3f1d96-5840-4730-b38c-b1c88b21a886";
name = Fore;
shapes = (
{
closed = 1;
nodes = (
(712,604,l),
(564,1140,l),
(542,1140,l),
(394,604,l)
);
},
{
closed = 1;
nodes = (
(1024,438,o),
(1027,367,q),
(1030,296,o),
(1030,230,q),
(1030,200,l),
(1030,162,o),
(1027.5,126.5,q),
(1025,91,o),
(1012,62.5,q),
(999,34,o),
(971,17,q),
(943,0,o),
(892,0,q),
(840,0,o),
(812,17,q),
(784,34,o),
(770.5,62,q),
(757,90,o),
(754.5,126,q),
(752,162,o),
(752,200,q),
(752,340,l),
(352,340,l),
(352,200,l),
(352,162,o),
(349.5,126,q),
(347,90,o),
(333.5,62,q),
(320,34,o),
(292,17,q),
(264,0,o),
(212,0,q),
(160,0,o),
(132,17,q),
(104,34,o),
(91,62.5,q),
(78,91,o),
(76,126.5,q),
(74,162,o),
(74,200,q),
(74,230,l),
(74,261,o),
(74.5,296,q),
(75,331,o),
(76,367,q),
(77,403,o),
(78,438.5,q),
(79,474,o),
(80,506,q),
(130,680,o),
(185,858.5,q),
(240,1037,o),
(290,1212,q),
(300,1249,o),
(314,1283.5,q),
(328,1318,o),
(351,1343.5,q),
(374,1369,o),
(410,1384.5,q),
(446,1400,o),
(502,1400,q),
(602,1400,l),
(657,1400,o),
(693.5,1384.5,q),
(730,1369,o),
(753,1343.5,q),
(776,1318,o),
(789.5,1283.5,q),
(803,1249,o),
(814,1212,q),
(1022,506,l)
);
}
);
width = 1104;
}
);
unicode = 65;
},
{
glyphname = B;
layers = (
{
layerId = "ee3f1d96-5840-4730-b38c-b1c88b21a886";
name = Fore;
shapes = (
{
closed = 1;
nodes = (
(651,1400,o),
(729.5,1377,q),
(808,1354,o),
(866.5,1308,q),
(925,1262,o),
(958.5,1193.5,q),
(992,1125,o),
(992,1034,q),
(992,987,o),
(979.5,948.5,q),
(967,910,o),
(947.5,879,q),
(928,848,o),
(904.5,825,q),
(881,802,o),
(859,785.5,q),
(837,769,o),
(820,759.5,q),
(803,750,o),
(796,748,q),
(856,731,o),
(897,704.5,q),
(938,678,o),
(965.5,646.5,q),
(993,615,o),
(1008.5,581.5,q),
(1024,548,o),
(1031.5,516.5,q),
(1039,485,o),
(1040.5,458.5,q),
(1042,432,o),
(1042,416,q),
(1042,338,o),
(1023,278.5,q),
(1004,219,o),
(973,175.5,q),
(942,132,o),
(902,101.5,q),
(862,71,o),
(821,52,q),
(723,6,o),
(600,0,q),
(272,0,l),
(215,0,o),
(184,19.5,q),
(153,39,o),
(139,71.5,q),
(125,104,o),
(122.5,145,q),
(120,186,o),
(120,230,q),
(120,1172,l),
(120,1215,o),
(122.5,1256,q),
(125,1297,o),
(139,1329,q),
(153,1361,o),
(184,1380.5,q),
(215,1400,o),
(272,1400,q),
(562,1400,l)
);
},
{
closed = 1;
nodes = (
(424,236,l),
(570,236,l),
(617,238,o),
(654,258,q),
(670,266,o),
(685,279,q),
(700,292,o),
(712,311.5,q),
(724,331,o),
(731,356.5,q),
(738,382,o),
(738,416,q),
(738,453,o),
(730.5,480.5,q),
(723,508,o),
(710.5,528.5,q),
(698,549,o),
(682,563.5,q),
(666,578,o),
(650,587,q),
(611,608,o),
(562,612,q),
(424,612,l)
);
},
{
closed = 1;
nodes = (
(424,824,l),
(552,824,l),
(595,826,o),
(629,844,q),
(643,851,o),
(657,863,q),
(671,875,o),
(682,891.5,q),
(693,908,o),
(699.5,931,q),
(706,954,o),
(706,984,q),
(706,1018,o),
(699,1043.5,q),
(692,1069,o),
(680.5,1087.5,q),
(669,1106,o),
(654.5,1119,q),
(640,1132,o),
(625,1141,q),
(589,1160,o),
(544,1164,q),
(424,1164,l)
);
}
);
width = 1104;
}
);
unicode = 66;
},
{
glyphname = C;
layers = (
{
layerId = "ee3f1d96-5840-4730-b38c-b1c88b21a886";
name = Fore;
shapes = (
{
closed = 1;
nodes = (
(666,1408,o),
(745.5,1383,q),
(825,1358,o),
(879.5,1318,q),
(934,1278,o),
(967,1227.5,q),
(1000,1177,o),
(1017.5,1125,q),
(1035,1073,o),
(1040.5,1025,q),
(1046,977,o),
(1046,942,q),
(1046,927,o),
(1043.5,905.5,q),
(1041,884,o),
(1026,864,q),
(1011,844,o),
(978.5,830,q),
(946,816,o),
(886,816,q),
(866,816,o),
(836,818.5,q),
(806,821,o),
(778,831.5,q),
(750,842,o),
(730,861.5,q),
(710,881,o),
(710,916,q),
(710,970,o),
(703.5,1013,q),
(697,1056,o),
(680,1086,q),
(663,1116,o),
(633,1132,q),
(603,1148,o),
(556,1148,q),
(507,1148,o),
(480.5,1127.5,q),
(454,1107,o),
(442,1083,q),
(428,1054,o),
(426,1018,q),
(426,384,l),
(428,340,o),
(442,307,q),
(454,278,o),
(480.5,254,q),
(507,230,o),
(556,230,q),
(603,230,o),
(633,249.5,q),
(663,269,o),
(680,302,q),
(697,335,o),
(703.5,378,q),
(710,421,o),
(710,468,q),
(710,483,o),
(715,499,q),
(720,515,o),
(738,528.5,q),
(756,542,o),
(791,551,q),
(826,560,o),
(886,560,q),
(946,560,o),
(978.5,546.5,q),
(1011,533,o),
(1026,515.5,q),
(1041,498,o),
(1043.5,481.5,q),
(1046,465,o),
(1046,460,q),
(1046,350,o),
(1009,263.5,q),
(972,177,o),
(904.5,117,q),
(837,57,o),
(743.5,25.5,q),
(650,-6,o),
(538,-6,q),
(520,-6,o),
(479.5,-3,q),
(439,0,o),
(389,13,q),
(339,26,o),
(286,52,q),
(233,78,o),
(189.5,124.5,q),
(146,171,o),
(118,240.5,q),
(90,310,o),
(90,410,q),
(90,968,l),
(90,1050,o),
(110,1113,q),
(130,1176,o),
(162.5,1222.5,q),
(195,1269,o),
(237,1300.5,q),
(279,1332,o),
(323,1353,q),
(425,1401,o),
(556,1408,q)
);
}
);
width = 1110;
}
);
unicode = 67;
},
{
glyphname = D;
layers = (
{
layerId = "ee3f1d96-5840-4730-b38c-b1c88b21a886";
name = Fore;
shapes = (
{
closed = 1;
nodes = (
(667,1400,o),
(745.5,1377,q),
(824,1354,o),
(882.5,1308.5,q),
(941,1263,o),
(974.5,1195,q),
(1008,1127,o),
(1008,1036,q),
(1008,416,l),
(1008,338,o),
(991,278.5,q),
(974,219,o),
(946.5,175.5,q),
(919,132,o),
(884,101.5,q),
(849,71,o),
(813,52,q),
(727,6,o),
(618,0,q),
(286,0,l),
(229,0,o),
(198,19.5,q),
(167,39,o),
(153,71.5,q),
(139,104,o),
(136.5,145,q),
(134,186,o),
(134,230,q),
(134,1172,l),
(134,1215,o),
(136.5,1256,q),
(139,1297,o),
(153,1329,q),
(167,1361,o),
(198,1380.5,q),
(229,1400,o),
(286,1400,q),
(576,1400,l)
);
},
{
closed = 1;
nodes = (
(438,238,l),
(568,238,l),
(611,240,o),
(645,258,q),
(659,265,o),
(673,277,q),
(687,289,o),
(698,305.5,q),
(709,322,o),
(715.5,345,q),
(722,368,o),
(722,398,q),
(722,988,l),
(722,1021,o),
(715.5,1046.5,q),
(709,1072,o),
(698,1091,q),
(687,1110,o),
(673,1123,q),
(659,1136,o),
(645,1144,q),
(611,1163,o),
(568,1166,q),
(438,1166,l)
);
}
);
width = 1094;
}
);
unicode = 68;
},
{
glyphname = E;
layers = (
{
layerId = "ee3f1d96-5840-4730-b38c-b1c88b21a886";
name = Fore;
shapes = (
{
closed = 1;
nodes = (
(722,1400,o),
(763,1397,q),
(804,1394,o),
(837,1380,q),
(870,1366,o),
(891,1337.5,q),
(912,1309,o),
(912,1258,q),
(912,1207,o),
(891,1178.5,q),
(870,1150,o),
(837,1136,q),
(804,1122,o),
(763,1119,q),
(722,1116,o),
(682,1116,q),
(444,1116,l),
(444,844,l),
(570,844,l),
(610,844,o),
(650.5,841.5,q),
(691,839,o),
(722.5,825.5,q),
(754,812,o),
(774,784.5,q),
(794,757,o),
(794,708,q),
(794,658,o),
(774,631,q),
(754,604,o),
(722.5,590.5,q),
(691,577,o),
(650.5,574.5,q),
(610,572,o),
(570,572,q),
(444,572,l),
(444,284,l),
(682,284,l),
(722,284,o),
(763,281,q),
(804,278,o),
(837,264.5,q),
(870,251,o),
(891,222.5,q),
(912,194,o),
(912,144,q),
(912,92,o),
(890.5,63,q),
(869,34,o),
(836,20,q),
(803,6,o),
(762,3,q),
(721,0,o),
(682,0,q),
(290,0,l),
(234,0,o),
(203.5,20,q),
(173,40,o),
(159,72.5,q),
(145,105,o),
(142.5,146,q),
(140,187,o),
(140,230,q),
(140,1170,l),
(140,1213,o),
(142.5,1254,q),
(145,1295,o),
(159,1327.5,q),
(173,1360,o),
(203.5,1380,q),
(234,1400,o),
(290,1400,q),
(682,1400,l)
);
}
);
width = 986;
}
);
unicode = 69;
},
{
glyphname = F;
layers = (
{
layerId = "ee3f1d96-5840-4730-b38c-b1c88b21a886";
name = Fore;
shapes = (
{
closed = 1;
nodes = (
(722,1400,o),
(763,1396,q),
(804,1392,o),
(837,1377,q),
(870,1362,o),
(891,1332.5,q),
(912,1303,o),
(912,1252,q),
(912,1201,o),
(891,1171.5,q),
(870,1142,o),
(837,1127,q),
(804,1112,o),
(763,1108,q),
(722,1104,o),
(682,1104,q),
(444,1104,l),
(444,844,l),
(570,844,l),
(609,844,o),
(650,841,q),
(691,838,o),
(724,824,q),
(757,810,o),
(778.5,780,q),
(800,750,o),
(800,696,q),
(800,642,o),
(779,612,q),
(758,582,o),
(725,568,q),
(692,554,o),
(651,551,q),
(610,548,o),
(570,548,q),
(444,548,l),
(444,230,l),
(444,186,o),
(441.5,145,q),
(439,104,o),
(424.5,71.5,q),
(410,39,o),
(379,19.5,q),
(348,0,o),
(292,0,q),
(235,0,o),
(204,19.5,q),
(173,39,o),
(159,71.5,q),
(145,104,o),
(142.5,145,q),
(140,186,o),
(140,230,q),
(140,1170,l),
(140,1213,o),
(142.5,1254,q),
(145,1295,o),
(159,1327.5,q),
(173,1360,o),
(204,1380,q),
(235,1400,o),
(292,1400,q),
(682,1400,l)
);
}
);
width = 938;
}
);
unicode = 70;
},
{
glyphname = G;
layers = (
{
layerId = "ee3f1d96-5840-4730-b38c-b1c88b21a886";
name = Fore;
shapes = (
{
closed = 1;
nodes = (
(1072,79,o),
(1069.5,62,q),
(1067,45,o),
(1056.5,29.5,q),
(1046,14,o),
(1026,3,q),
(1006,-8,o),
(972,-8,q),
(934,-8,o),
(912,2.5,q),
(890,13,o),
(878.5,28.5,q),
(867,44,o),
(863.5,61,q),
(860,78,o),
(860,92,q),
(860,152,l),
(812,81,o),
(737.5,36.5,q),
(663,-8,o),
(554,-8,q),
(535,-8,o),
(495,-5,q),
(455,-2,o),
(405,11,q),
(355,24,o),
(302,50,q),
(249,76,o),
(205.5,122.5,q),
(162,169,o),
(134,238.5,q),
(106,308,o),
(106,408,q),
(106,968,l),
(106,1050,o),
(126,1113,q),
(146,1176,o),
(178.5,1222.5,q),
(211,1269,o),
(253,1300.5,q),
(295,1332,o),
(339,1353,q),
(441,1401,o),
(572,1408,q),
(683,1408,o),
(762,1383,q),
(841,1358,o),
(896,1318,q),
(951,1278,o),
(984,1227.5,q),
(1017,1177,o),
(1035,1125,q),
(1053,1073,o),
(1058.5,1025,q),
(1064,977,o),
(1064,942,q),
(1064,927,o),
(1061.5,905.5,q),
(1059,884,o),
(1044,864.5,q),
(1029,845,o),
(996.5,831.5,q),
(964,818,o),
(904,818,q),
(883,818,o),
(852.5,820.5,q),
(822,823,o),
(794,833,q),
(766,843,o),
(746,862.5,q),
(726,882,o),
(726,916,q),
(726,970,o),
(719.5,1012.5,q),
(713,1055,o),
(696,1085,q),
(679,1115,o),
(649,1130.5,q),
(619,1146,o),
(572,1146,q),
(523,1146,o),
(496.5,1126,q),
(470,1106,o),
(458,1082,q),
(444,1054,o),
(442,1018,q),
(442,378,l),
(442,346,o),
(453.5,318,q),
(465,290,o),
(486,269,q),
(507,248,o),
(535.5,236,q),
(564,224,o),
(598,224,q),
(638,224,o),
(670.5,241.5,q),
(703,259,o),
(729,288.5,q),
(755,318,o),
(775.5,355.5,q),
(796,393,o),
(812,434,q),
(716,434,l),
(687,437,o),
(665,449,q),
(645,459,o),
(629.5,479,q),
(614,499,o),
(614,534,q),
(614,572,o),
(629.5,592.5,q),
(645,613,o),
(665,623,q),
(687,634,o),
(716,636,q),
(976,636,l),
(983,636,o),
(998.5,633.5,q),
(1014,631,o),
(1030.5,619,q),
(1047,607,o),
(1059.5,583.5,q),
(1072,560,o),
(1072,518,q),
(1072,92,l)
);
}
);
width = 1156;
}
);
unicode = 71;
},
{
glyphname = H;
layers = (
{
layerId = "ee3f1d96-5840-4730-b38c-b1c88b21a886";
name = Fore;
shapes = (
{
closed = 1;
nodes = (
(146,1213,o),
(150,1254,q),
(154,1295,o),
(169.5,1327.5,q),
(185,1360,o),
(215,1380,q),
(245,1400,o),
(298,1400,q),
(350,1400,o),
(380.5,1380,q),
(411,1360,o),
(426.5,1327.5,q),
(442,1295,o),
(446,1254,q),
(450,1213,o),
(450,1170,q),
(450,856,l),
(724,856,l),
(724,1170,l),
(724,1213,o),
(728,1254,q),
(732,1295,o),
(747.5,1327.5,q),
(763,1360,o),
(793,1380,q),
(823,1400,o),
(876,1400,q),
(928,1400,o),
(958.5,1380,q),
(989,1360,o),
(1004.5,1327.5,q),
(1020,1295,o),
(1024,1254,q),
(1028,1213,o),
(1028,1170,q),
(1028,230,l),
(1028,186,o),
(1024,145,q),
(1020,104,o),
(1004.5,71.5,q),
(989,39,o),
(958.5,19.5,q),
(928,0,o),
(876,0,q),
(823,0,o),
(793,19.5,q),
(763,39,o),
(747.5,71.5,q),
(732,104,o),
(728,145,q),
(724,186,o),
(724,230,q),
(724,562,l),
(450,562,l),
(450,230,l),
(450,186,o),
(446,145,q),
(442,104,o),
(426.5,71.5,q),
(411,39,o),
(380.5,19.5,q),
(350,0,o),
(298,0,q),
(245,0,o),
(215,19.5,q),
(185,39,o),
(169.5,71.5,q),
(154,104,o),
(150,145,q),
(146,186,o),
(146,230,q),
(146,1170,l)
);
}
);
width = 1166;
}
);
unicode = 72;
},
{
glyphname = I;
layers = (
{
layerId = "ee3f1d96-5840-4730-b38c-b1c88b21a886";
name = Fore;
shapes = (
{
closed = 1;
nodes = (
(168,1213,o),
(172.5,1254,q),
(177,1295,o),
(193.5,1327.5,q),
(210,1360,o),
(243,1380,q),
(276,1400,o),
(334,1400,q),
(392,1400,o),
(425,1380,q),
(458,1360,o),
(474.5,1327.5,q),
(491,1295,o),
(495.5,1254,q),
(500,1213,o),
(500,1170,q),
(500,230,l),
(500,186,o),
(496,145,q),
(492,104,o),
(475.5,71.5,q),
(459,39,o),
(425.5,19.5,q),
(392,0,o),
(334,0,q),
(276,0,o),
(243,19.5,q),
(210,39,o),
(193.5,71.5,q),
(177,104,o),
(172.5,145,q),
(168,186,o),
(168,230,q),
(168,1170,l)
);
}
);
width = 666;
}
);
unicode = 73;
},
{
glyphname = J;
layers = (
{
layerId = "ee3f1d96-5840-4730-b38c-b1c88b21a886";
name = Fore;
shapes = (
{
closed = 1;
nodes = (
(426,-8,o),
(346.5,17,q),
(267,42,o),
(212.5,82,q),
(158,122,o),
(125,172.5,q),
(92,223,o),
(74.5,275,q),
(57,327,o),
(51.5,375,q),
(46,423,o),
(46,458,q),
(46,473,o),
(48.5,494.5,q),
(51,516,o),
(66,536,q),
(81,556,o),
(113.5,570,q),
(146,584,o),
(206,584,q),
(226,584,o),
(256,581.5,q),
(286,579,o),
(314,568.5,q),
(342,558,o),
(362,538,q),
(382,518,o),
(382,484,q),
(382,430,o),
(388.5,387,q),
(395,344,o),
(412,314,q),
(429,284,o),
(459,268,q),
(489,252,o),
(536,252,q),
(585,252,o),
(611.5,272,q),
(638,292,o),
(650,317,q),
(664,345,o),
(666,382,q),
(666,1116,l),
(404,1116,l),
(364,1116,o),
(324,1120,q),
(284,1124,o),
(251.5,1138,q),
(219,1152,o),
(198.5,1180,q),
(178,1208,o),
(178,1256,q),
(178,1305,o),
(198.5,1334,q),
(219,1363,o),
(251.5,1377.5,q),
(284,1392,o),
(324,1396,q),
(364,1400,o),
(404,1400,q),
(812,1400,l),
(869,1400,o),
(902.5,1380,q),
(936,1360,o),
(953,1327.5,q),
(970,1295,o),
(975,1254,q),
(980,1213,o),
(980,1170,q),
(980,410,l),
(980,306,o),
(950,234,q),
(920,162,o),
(874.5,115.5,q),
(829,69,o),
(774.5,44,q),
(720,19,o),
(670.5,7.5,q),
(621,-4,o),
(584,-6,q),
(547,-8,o),
(536,-8,q)
);
}
);
width = 1126;
}
);
unicode = 74;
},
{
glyphname = K;
layers = (
{
layerId = "ee3f1d96-5840-4730-b38c-b1c88b21a886";
name = Fore;
shapes = (
{
closed = 1;
nodes = (
(140,1215,o),
(144,1256,q),
(148,1297,o),
(163,1329,q),
(178,1361,o),
(208,1380.5,q),
(238,1400,o),
(290,1400,q),
(343,1400,o),
(374,1380.5,q),
(405,1361,o),
(420.5,1329,q),
(436,1297,o),
(440,1256,q),
(444,1215,o),
(444,1172,q),
(444,812,l),
(558,812,l),
(591,898,o),
(624,981,q),
(638,1016,o),
(653,1053.5,q),
(668,1091,o),
(682.5,1127,q),
(697,1163,o),
(710.5,1196.5,q),
(724,1230,o),
(736,1256,q),
(748,1284,o),
(761.5,1310,q),
(775,1336,o),
(793,1356,q),
(811,1376,o),
(833.5,1388,q),
(856,1400,o),
(886,1400,q),
(915,1400,o),
(943,1391,q),
(971,1382,o),
(993,1364,q),
(1015,1346,o),
(1028.5,1320,q),
(1042,1294,o),
(1042,1260,q),
(1042,1234,o),
(1033.5,1198.5,q),
(1025,1163,o),
(1010,1128,q),
(830,702,l),
(882,683,o),
(922,640,q),
(939,622,o),
(955.5,596.5,q),
(972,571,o),
(985,537,q),
(998,503,o),
(1006,459.5,q),
(1014,416,o),
(1014,362,q),
(1014,220,l),
(1014,209,o),
(1022,202,q),
(1030,195,o),
(1038,186,q),
(1058,163,o),
(1061,146,q),
(1064,129,o),
(1064,118,q),
(1064,82,o),
(1050.5,58,q),
(1037,34,o),
(1014.5,19,q),
(992,4,o),
(962.5,-2,q),
(933,-8,o),
(902,-8,q),
(869,-8,o),
(835,2,q),
(801,12,o),
(773,32.5,q),
(745,53,o),
(727.5,84,q),
(710,115,o),
(710,156,q),
(710,362,l),
(710,405,o),
(704,442.5,q),
(698,480,o),
(681,507.5,q),
(664,535,o),
(634,550.5,q),
(604,566,o),
(556,566,q),
(444,566,l),
(444,230,l),
(444,186,o),
(440,145,q),
(436,104,o),
(420.5,71.5,q),
(405,39,o),
(374,19.5,q),
(343,0,o),
(290,0,q),
(238,0,o),
(208,19.5,q),
(178,39,o),
(163,71.5,q),
(148,104,o),
(144,145,q),
(140,186,o),
(140,230,q),
(140,1172,l)
);
}
);
width = 1142;
}
);
unicode = 75;
},
{
glyphname = L;
layers = (
{
layerId = "ee3f1d96-5840-4730-b38c-b1c88b21a886";
name = Fore;
shapes = (
{
closed = 1;
nodes = (
(178,1213,o),
(182,1254,q),
(186,1295,o),
(201.5,1327.5,q),
(217,1360,o),
(247,1380,q),
(277,1400,o),
(330,1400,q),
(387,1400,o),
(419,1380,q),
(451,1360,o),
(466,1327.5,q),
(481,1295,o),
(484.5,1254,q),
(488,1213,o),
(488,1170,q),
(488,294,l),
(684,294,l),
(725,294,o),
(765,290,q),
(805,286,o),
(836.5,271,q),
(868,256,o),
(887,227,q),
(906,198,o),
(906,148,q),
(906,97,o),
(887,67.5,q),
(868,38,o),
(836.5,23,q),
(805,8,o),
(765,4,q),
(725,0,o),
(684,0,q),
(400,0,l),
(347,0,o),
(306,4,q),
(265,8,o),
(236.5,23,q),
(208,38,o),
(193,67.5,q),
(178,97,o),
(178,148,q),
(178,1170,l)
);
}
);
width = 968;
}
);
unicode = 76;
},
{
glyphname = M;
layers = (
{
layerId = "ee3f1d96-5840-4730-b38c-b1c88b21a886";
name = Fore;
shapes = (
{
closed = 1;
nodes = (
(755,324,o),
(734.5,335,q),
(714,346,o),
(699,363,q),
(684,380,o),
(673.5,401,q),
(663,422,o),
(656,442,q),
(466,990,l),
(440,990,l),
(440,156,l),
(440,124,o),
(436,96,q),
(432,68,o),
(418.5,46.5,q),
(405,25,o),
(378.5,12.5,q),
(352,0,o),
(306,0,q),
(254,0,o),
(224,12.5,q),
(194,25,o),
(179,46.5,q),
(164,68,o),
(160,96,q),
(156,124,o),
(156,156,q),
(156,1172,l),
(156,1215,o),
(158.5,1256,q),
(161,1297,o),
(175,1329,q),
(189,1361,o),
(219.5,1380.5,q),
(250,1400,o),
(306,1400,q),
(442,1400,l),
(476,1400,o),
(499.5,1397.5,q),
(523,1395,o),
(543,1380.5,q),
(563,1366,o),
(582.5,1334,q),
(602,1302,o),
(625.5,1243.5,q),
(649,1185,o),
(680,1094.5,q),
(711,1004,o),
(756,872,q),
(782,792,l),
(806,792,l),
(838,892,l),
(879,1018,o),
(908,1105,q),
(937,1192,o),
(959,1248.5,q),
(981,1305,o),
(998.5,1335.5,q),
(1016,1366,o),
(1035.5,1380.5,q),
(1055,1395,o),
(1078,1397.5,q),
(1101,1400,o),
(1134,1400,q),
(1280,1400,l),
(1336,1400,o),
(1366.5,1380.5,q),
(1397,1361,o),
(1411,1329,q),
(1425,1297,o),
(1427.5,1256,q),
(1430,1215,o),
(1430,1172,q),
(1430,156,l),
(1430,124,o),
(1426,96,q),
(1422,68,o),
(1407,46.5,q),
(1392,25,o),
(1362,12.5,q),
(1332,0,o),
(1280,0,q),
(1234,0,o),
(1207.5,12.5,q),
(1181,25,o),
(1167.5,46.5,q),
(1154,68,o),
(1150,96,q),
(1146,124,o),
(1146,156,q),
(1146,990,l),
(1118,990,l),
(930,442,l),
(922,422,o),
(912,401,q),
(902,380,o),
(887,363,q),
(872,346,o),
(852,335,q),
(832,324,o),
(804,324,q),
(784,324,l)
);
}
);
width = 1594;
}
);
unicode = 77;
},
{
glyphname = N;
layers = (
{
layerId = "ee3f1d96-5840-4730-b38c-b1c88b21a886";
name = Fore;
shapes = (
{
closed = 1;
nodes = (
(940,414,l),
(940,1244,l),
(940,1276,o),
(944,1304.5,q),
(948,1333,o),
(961.5,1354,q),
(975,1375,o),
(1001.5,1387.5,q),
(1028,1400,o),
(1074,1400,q),
(1125,1400,o),
(1154.5,1387.5,q),
(1184,1375,o),
(1199,1354,q),
(1214,1333,o),
(1218,1304.5,q),
(1222,1276,o),
(1222,1244,q),
(1222,230,l),
(1222,186,o),
(1219.5,145,q),
(1217,104,o),
(1203.5,71.5,q),
(1190,39,o),
(1159.5,19.5,q),
(1129,0,o),
(1074,0,q),
(942,0,l),
(895,0,o),
(863.5,18.5,q),
(832,37,o),
(811,63.5,q),
(790,90,o),
(777.5,119,q),
(765,148,o),
(758,168,q),
(456,986,l),
(432,986,l),
(432,156,l),
(432,124,o),
(428,95.5,q),
(424,67,o),
(410.5,46,q),
(397,25,o),
(370.5,12.5,q),
(344,0,o),
(298,0,q),
(246,0,o),
(216,12.5,q),
(186,25,o),
(171,46,q),
(156,67,o),
(152,95.5,q),
(148,124,o),
(148,156,q),
(148,1170,l),
(148,1213,o),
(150.5,1254.5,q),
(153,1296,o),
(167,1328.5,q),
(181,1361,o),
(211.5,1380.5,q),
(242,1400,o),
(298,1400,q),
(430,1400,l),
(480,1400,o),
(511.5,1380.5,q),
(543,1361,o),
(563,1338,q),
(585,1311,o),
(598,1276,q),
(916,414,l)
);
}
);
width = 1360;
}
);
unicode = 78;
},
{
glyphname = O;
layers = (
{
layerId = "ee3f1d96-5840-4730-b38c-b1c88b21a886";
name = Fore;
shapes = (
{
closed = 1;
nodes = (
(104,1100,o),
(132,1167.5,q),
(160,1235,o),
(203.5,1280,q),
(247,1325,o),
(299.5,1350.5,q),
(352,1376,o),
(401.5,1389,q),
(451,1402,o),
(491,1405,q),
(531,1408,o),
(550,1408,q),
(584,1408,l),
(603,1408,o),
(643,1405,q),
(683,1402,o),
(732,1389,q),
(781,1376,o),
(833.5,1350.5,q),
(886,1325,o),
(928.5,1280,q),
(971,1235,o),
(998.5,1167.5,q),
(1026,1100,o),
(1026,1004,q),
(1026,406,l),
(1026,307,o),
(998.5,238,q),
(971,169,o),
(928.5,123,q),
(886,77,o),
(833.5,50.5,q),
(781,24,o),
(732,11,q),
(683,-2,o),
(643,-5,q),
(603,-8,o),
(584,-8,q),
(550,-8,l),
(531,-8,o),
(491,-5,q),
(451,-2,o),
(401.5,11,q),
(352,24,o),
(299.5,50.5,q),
(247,77,o),
(203.5,123,q),
(160,169,o),
(132,238,q),
(104,307,o),
(104,406,q),
(104,1004,l)
);
},
{
closed = 1;
nodes = (
(438,331,o),
(453,303,q),
(466,278,o),
(492.5,258,q),
(519,238,o),
(568,238,q),
(616,238,o),
(642,258,q),
(668,278,o),
(681,303,q),
(695,331,o),
(698,368,q),
(698,1020,l),
(695,1056,o),
(681,1085,q),
(668,1109,o),
(642,1129.5,q),
(616,1150,o),
(568,1150,q),
(519,1150,o),
(492.5,1129.5,q),
(466,1109,o),
(453,1085,q),
(438,1056,o),
(436,1020,q),
(436,368,l)
);
}
);
width = 1128;
}
);
unicode = 79;
},
{
glyphname = P;
layers = (
{
layerId = "ee3f1d96-5840-4730-b38c-b1c88b21a886";
name = Fore;
shapes = (
{
closed = 1;
nodes = (
(446,228,l),
(446,185,o),
(443.5,144,q),
(441,103,o),
(426.5,71,q),
(412,39,o),
(381,19.5,q),
(350,0,o),
(292,0,q),
(236,0,o),
(205.5,19.5,q),
(175,39,o),
(161,71,q),
(147,103,o),
(144.5,144,q),
(142,185,o),
(142,228,q),
(142,1172,l),
(142,1215,o),
(144.5,1256,q),
(147,1297,o),
(161,1329,q),
(175,1361,o),
(205.5,1380.5,q),
(236,1400,o),
(292,1400,q),
(622,1400,l),
(746,1394,o),
(844,1348,q),
(886,1328,o),
(925.5,1298,q),
(965,1268,o),
(996.5,1224.5,q),
(1028,1181,o),
(1047,1121.5,q),
(1066,1062,o),
(1066,984,q),
(1066,877,o),
(1032.5,796.5,q),
(999,716,o),
(935.5,661.5,q),
(872,607,o),
(780.5,579.5,q),
(689,552,o),
(574,552,q),
(446,552,l)
);
},
{
closed = 1;
nodes = (
(632,793,o),
(672,814,q),
(689,823,o),
(705,837,q),
(721,851,o),
(734,871.5,q),
(747,892,o),
(754.5,920,q),
(762,948,o),
(762,984,q),
(762,1018,o),
(754.5,1043.5,q),
(747,1069,o),
(735,1087.5,q),
(723,1106,o),
(708,1119,q),
(693,1132,o),
(677,1141,q),
(639,1160,o),
(592,1164,q),
(446,1164,l),
(446,790,l),
(582,790,l)
);
}
);
width = 1082;
}
);
unicode = 80;
},
{
glyphname = Q;
layers = (
{
layerId = "ee3f1d96-5840-4730-b38c-b1c88b21a886";
name = Fore;
shapes = (
{
closed = 1;
nodes = (
(122,1099,o),
(150,1167,q),
(178,1235,o),
(221.5,1280.5,q),
(265,1326,o),
(317.5,1351.5,q),
(370,1377,o),
(419.5,1389.5,q),
(469,1402,o),
(509,1405,q),
(549,1408,o),
(568,1408,q),
(602,1408,l),
(621,1408,o),
(660.5,1405,q),
(700,1402,o),
(749.5,1389.5,q),
(799,1377,o),
(851,1351.5,q),
(903,1326,o),
(946,1280.5,q),
(989,1235,o),
(1016.5,1167,q),
(1044,1099,o),
(1044,1002,q),
(1044,406,l),
(1044,331,o),
(1026.5,272,q),
(1009,213,o),
(980,166,q),
(1080,76,l),
(1094,62,o),
(1104,46.5,q),
(1114,31,o),
(1114,-4,q),
(1114,-19,o),
(1107,-39.5,q),
(1100,-60,o),
(1080,-80,q),
(1060,-98,o),
(1040.5,-104,q),
(1021,-110,o),
(1004,-110,q),
(969,-110,o),
(951,-100.5,q),
(933,-91,o),
(922,-80,q),
(810,26,l),
(772,13,o),
(739.5,6,q),
(707,-1,o),
(680.5,-4,q),
(654,-7,o),
(634,-7.5,q),
(614,-8,o),
(602,-8,q),
(568,-8,l),
(549,-8,o),
(509,-5,q),
(469,-2,o),
(419.5,11,q),
(370,24,o),
(317.5,50.5,q),
(265,77,o),
(221.5,123,q),
(178,169,o),
(150,238,q),
(122,307,o),
(122,406,q),
(122,1002,l)
);
},
{
closed = 1;
nodes = (
(456,331,o),
(471,303,q),
(484,278,o),
(510.5,258,q),
(537,238,o),
(586,238,q),
(634,238,o),
(660,258,q),
(686,278,o),
(699,303,q),
(713,331,o),
(716,368,q),
(716,1020,l),
(713,1056,o),
(699,1084,q),
(686,1108,o),
(660,1128,q),
(634,1148,o),
(586,1148,q),
(537,1148,o),
(510.5,1128,q),
(484,1108,o),
(471,1084,q),
(456,1056,o),
(454,1020,q),
(454,368,l)
);
}
);
width = 1156;
}
);
unicode = 81;
},
{
glyphname = R;
layers = (
{
layerId = "ee3f1d96-5840-4730-b38c-b1c88b21a886";
name = Fore;
shapes = (
{
closed = 1;
nodes = (
(142,1215,o),
(144.5,1256,q),
(147,1297,o),
(161,1329,q),
(175,1361,o),
(205.5,1380.5,q),
(236,1400,o),
(292,1400,q),
(622,1400,l),
(745,1394,o),
(842,1348,q),
(883,1328,o),
(922.5,1298.5,q),
(962,1269,o),
(993,1225.5,q),
(1024,1182,o),
(1043,1123,q),
(1062,1064,o),
(1062,986,q),
(1062,970,o),
(1059,943.5,q),
(1056,917,o),
(1046,885.5,q),
(1036,854,o),
(1019,820,q),
(1002,786,o),
(974,755,q),
(946,724,o),
(905.5,698,q),
(865,672,o),
(810,656,q),
(845,642,o),
(881,619.5,q),
(917,597,o),
(946,562,q),
(975,527,o),
(993.5,478,q),
(1012,429,o),
(1012,364,q),
(1012,222,l),
(1012,210,o),
(1018,202,q),
(1024,194,o),
(1030,188,q),
(1054,164,o),
(1058,146.5,q),
(1062,129,o),
(1062,118,q),
(1062,83,o),
(1048,59,q),
(1034,35,o),
(1011.5,20,q),
(989,5,o),
(960.5,-1.5,q),
(932,-8,o),
(902,-8,q),
(869,-8,o),
(835,2.5,q),
(801,13,o),
(773,33,q),
(745,53,o),
(727.5,83,q),
(710,113,o),
(710,152,q),
(710,364,l),
(710,408,o),
(704,445,q),
(698,482,o),
(681,509,q),
(664,536,o),
(634,551,q),
(604,566,o),
(556,566,q),
(444,566,l),
(444,232,l),
(444,188,o),
(441.5,146,q),
(439,104,o),
(425,71.5,q),
(411,39,o),
(380,19.5,q),
(349,0,o),
(292,0,q),
(236,0,o),
(205.5,19.5,q),
(175,39,o),
(161,71.5,q),
(147,104,o),
(144.5,146,q),
(142,188,o),
(142,232,q),
(142,1172,l)
);
},
{
closed = 1;
nodes = (
(630,792,o),
(670,814,q),
(687,823,o),
(703,837,q),
(719,851,o),
(732,872,q),
(745,893,o),
(752.5,921,q),
(760,949,o),
(760,986,q),
(760,1019,o),
(752.5,1044.5,q),
(745,1070,o),
(733,1089,q),
(721,1108,o),
(705.5,1121,q),
(690,1134,o),
(674,1142,q),
(636,1161,o),
(588,1164,q),
(444,1164,l),
(444,790,l),
(580,790,l)
);
}
);
width = 1142;
}
);
unicode = 82;
},
{
glyphname = S;
layers = (
{
layerId = "ee3f1d96-5840-4730-b38c-b1c88b21a886";
name = Fore;
shapes = (
{
closed = 1;
nodes = (
(399,1006,o),
(422.5,972.5,q),
(446,939,o),
(484.5,909,q),
(523,879,o),
(572,850.5,q),
(621,822,o),
(672.5,790.5,q),
(724,759,o),
(773,722,q),
(822,685,o),
(861,638,q),
(900,591,o),
(924,532,q),
(948,473,o),
(950,398,q),
(950,390,l),
(950,308,o),
(930,247,q),
(910,186,o),
(877,142,q),
(844,98,o),
(800,69.5,q),
(756,41,o),
(707.5,24,q),
(659,7,o),
(609.5,0,q),
(560,-7,o),
(516,-8,q),
(506,-8,l),
(421,-8,o),
(357,9,q),
(293,26,o),
(247,54.5,q),
(201,83,o),
(170.5,120,q),
(140,157,o),
(122,196.5,q),
(104,236,o),
(96,275,q),
(88,314,o),
(88,348,q),
(88,383,o),
(100,409,q),
(112,435,o),
(131.5,451.5,q),
(151,468,o),
(176.5,476,q),
(202,484,o),
(230,484,q),
(256,484,o),
(283.5,476,q),
(311,468,o),
(333.5,451.5,q),
(356,435,o),
(370.5,409.5,q),
(385,384,o),
(386,350,q),
(388,275,o),
(420,247.5,q),
(452,220,o),
(512,220,q),
(542,221,o),
(567.5,227.5,q),
(593,234,o),
(611,250.5,q),
(629,267,o),
(639.5,294.5,q),
(650,322,o),
(650,364,q),
(650,416,o),
(626.5,458,q),
(603,500,o),
(565,536,q),
(527,572,o),
(478,604.5,q),
(429,637,o),
(378,669.5,q),
(327,702,o),
(278.5,737.5,q),
(230,773,o),
(191,815,q),
(152,857,o),
(128.5,908,q),
(105,959,o),
(104,1024,q),
(104,1040,l),
(105,1147,o),
(132.5,1218,q),
(160,1289,o),
(213.5,1331,q),
(267,1373,o),
(345,1390.5,q),
(423,1408,o),
(524,1408,q),
(550,1408,l),
(642,1408,o),
(706,1388,q),
(770,1368,o),
(812.5,1337,q),
(855,1306,o),
(879.5,1267,q),
(904,1228,o),
(916,1190,q),
(928,1152,o),
(931,1119,q),
(934,1086,o),
(934,1066,q),
(934,1036,o),
(922.5,1011.5,q),
(911,987,o),
(891.5,970,q),
(872,953,o),
(845.5,943.5,q),
(819,934,o),
(788,934,q),
(764,934,o),
(740,943.5,q),
(716,953,o),
(697,968,q),
(678,983,o),
(666,1002.5,q),
(654,1022,o),
(654,1042,q),
(654,1124,o),
(624.5,1156,q),
(595,1188,o),
(538,1188,q),
(511,1188,o),
(485.5,1185,q),
(460,1182,o),
(440.5,1168.5,q),
(421,1155,o),
(409.5,1127,q),
(398,1099,o),
(398,1048,q)
);
}
);
width = 1014;
}
);
unicode = 83;
},
{
glyphname = T;
layers = (
{
layerId = "ee3f1d96-5840-4730-b38c-b1c88b21a886";
name = Fore;
shapes = (
{
closed = 1;
nodes = (
(786,1400,o),
(826.5,1397,q),
(867,1394,o),
(900,1380,q),
(933,1366,o),
(953.5,1337.5,q),
(974,1309,o),
(974,1258,q),
(974,1208,o),
(953.5,1179.5,q),
(933,1151,o),
(900,1137,q),
(867,1123,o),
(826.5,1119.5,q),
(786,1116,o),
(746,1116,q),
(644,1116,l),
(644,228,l),
(644,185,o),
(641.5,144,q),
(639,103,o),
(625,71,q),
(611,39,o),
(580,19.5,q),
(549,0,o),
(492,0,q),
(435,0,o),
(404,19.5,q),
(373,39,o),
(359,71,q),
(345,103,o),
(342.5,144,q),
(340,185,o),
(340,228,q),
(340,1116,l),
(238,1116,l),
(198,1116,o),
(157.5,1119.5,q),
(117,1123,o),
(84,1137,q),
(51,1151,o),
(30.5,1179.5,q),
(10,1208,o),
(10,1258,q),
(10,1309,o),
(30.5,1337.5,q),
(51,1366,o),
(84,1380,q),
(117,1394,o),
(157.5,1397,q),
(198,1400,o),
(238,1400,q),
(746,1400,l)
);
}
);
width = 982;
}
);
unicode = 84;
},
{
glyphname = U;
layers = (
{
layerId = "ee3f1d96-5840-4730-b38c-b1c88b21a886";
name = Fore;
shapes = (
{
closed = 1;
nodes = (
(142,1215,o),
(146.5,1256,q),
(151,1297,o),
(167.5,1329,q),
(184,1361,o),
(217,1380.5,q),
(250,1400,o),
(308,1400,q),
(366,1400,o),
(399.5,1380.5,q),
(433,1361,o),
(449.5,1329,q),
(466,1297,o),
(470,1256,q),
(474,1215,o),
(474,1172,q),
(474,384,l),
(477,340,o),
(492,306,q),
(498,291,o),
(508,277,q),
(518,263,o),
(531.5,252,q),
(545,241,o),
(563.5,234.5,q),
(582,228,o),
(606,228,q),
(630,228,o),
(649,234.5,q),
(668,241,o),
(681.5,252,q),
(695,263,o),
(705,277,q),
(715,291,o),
(721,306,q),
(736,340,o),
(738,384,q),
(738,1172,l),
(738,1215,o),
(742,1256,q),
(746,1297,o),
(762.5,1329,q),
(779,1361,o),
(812,1380.5,q),
(845,1400,o),
(904,1400,q),
(962,1400,o),
(995,1380.5,q),
(1028,1361,o),
(1044.5,1329,q),
(1061,1297,o),
(1065.5,1256,q),
(1070,1215,o),
(1070,1172,q),
(1070,410,l),
(1070,306,o),
(1036.5,228,q),
(1003,150,o),
(941.5,97.5,q),
(880,45,o),
(794.5,18.5,q),
(709,-8,o),
(606,-8,q),
(502,-8,o),
(417,19.5,q),
(332,47,o),
(270.5,100,q),
(209,153,o),
(175.5,231,q),
(142,309,o),
(142,410,q),
(142,1172,l)
);
}
);
width = 1208;
}
);
unicode = 85;
},
{
glyphname = V;
layers = (
{
layerId = "ee3f1d96-5840-4730-b38c-b1c88b21a886";
name = Fore;
shapes = (
{
closed = 1;
nodes = (
(873,1400,o),
(900,1390,q),
(927,1380,o),
(947.5,1363,q),
(968,1346,o),
(980,1322.5,q),
(992,1299,o),
(992,1272,q),
(992,1259,o),
(990.5,1247.5,q),
(989,1236,o),
(987,1227,q),
(984,1216,o),
(982,1208,q),
(914,941,o),
(840,663.5,q),
(766,386,o),
(698,120,q),
(683,86,o),
(658,60,q),
(637,37,o),
(603.5,18.5,q),
(570,0,o),
(520,0,q),
(488,0,l),
(438,0,o),
(404,18.5,q),
(370,37,o),
(349,60,q),
(324,86,o),
(310,120,q),
(26,1208,l),
(23,1216,o),
(21,1227,q),
(16,1247,o),
(16,1272,q),
(16,1299,o),
(27.5,1322.5,q),
(39,1346,o),
(59,1363,q),
(79,1380,o),
(106,1390,q),
(133,1400,o),
(164,1400,q),
(212,1400,o),
(241.5,1379,q),
(271,1358,o),
(288,1332,q),
(307,1302,o),
(316,1264,q),
(328,1216,o),
(342,1155.5,q),
(356,1095,o),
(370,1030,q),
(384,965,o),
(398.5,897.5,q),
(413,830,o),
(426,767,q),
(457,619,o),
(488,464,q),
(520,464,l),
(554,619,o),
(586,767,q),
(599,830,o),
(613.5,897.5,q),
(628,965,o),
(642,1030,q),
(656,1095,o),
(669,1155.5,q),
(682,1216,o),
(692,1264,q),
(702,1302,o),
(721,1332,q),
(738,1358,o),
(767,1379,q),
(796,1400,o),
(844,1400,q)
);
}
);
width = 1000;
}
);
unicode = 86;
},
{
glyphname = W;
layers = (
{
layerId = "ee3f1d96-5840-4730-b38c-b1c88b21a886";
name = Fore;
shapes = (
{
closed = 1;
nodes = (
(870,1394,o),
(894.5,1384,q),
(919,1374,o),
(938.5,1356.5,q),
(958,1339,o),
(972,1314.5,q),
(986,1290,o),
(992,1262,q),
(1164,464,l),
(1198,464,l),
(1240,659,o),
(1284,862.5,q),
(1328,1066,o),
(1372,1262,q),
(1381,1300,o),
(1399,1331,q),
(1415,1357,o),
(1443.5,1378.5,q),
(1472,1400,o),
(1518,1400,q),
(1553,1400,o),
(1579.5,1387.5,q),
(1606,1375,o),
(1623.5,1355.5,q),
(1641,1336,o),
(1649.5,1313,q),
(1658,1290,o),
(1658,1268,q),
(1658,1256,o),
(1657,1245,q),
(1656,1234,o),
(1654,1226,q),
(1652,1216,o),
(1650,1208,q),
(1376,120,l),
(1361,86,o),
(1336,60,q),
(1315,37,o),
(1281.5,18.5,q),
(1248,0,o),
(1198,0,q),
(1164,0,l),
(1114,0,o),
(1082,18.5,q),
(1050,37,o),
(1031,60,q),
(1009,86,o),
(998,120,q),
(858,706,l),
(824,706,l),
(792,564,o),
(755.5,413,q),
(719,262,o),
(686,120,q),
(673,86,o),
(651,60,q),
(631,37,o),
(599.5,18.5,q),
(568,0,o),
(518,0,q),
(484,0,l),
(434,0,o),
(399.5,18.5,q),
(365,37,o),
(343,60,q),
(317,86,o),
(302,120,q),
(32,1208,l),
(30,1216,o),
(28,1226,q),
(26,1234,o),
(25,1245,q),
(24,1256,o),
(24,1268,q),
(24,1290,o),
(32.5,1313,q),
(41,1336,o),
(58.5,1355.5,q),
(76,1375,o),
(102.5,1387.5,q),
(129,1400,o),
(164,1400,q),
(210,1400,o),
(238.5,1378.5,q),
(267,1357,o),
(283,1331,q),
(301,1300,o),
(310,1262,q),
(484,464,l),
(518,464,l),
(537,556,o),
(559,657.5,q),
(581,759,o),
(603.5,862.5,q),
(626,966,o),
(648.5,1067.5,q),
(671,1169,o),
(692,1262,q),
(706,1319,o),
(746,1356.5,q),
(786,1394,o),
(842,1394,q)
);
}
);
width = 1666;
}
);
unicode = 87;
},
{
glyphname = X;
layers = (
{
layerId = "ee3f1d96-5840-4730-b38c-b1c88b21a886";
name = Fore;
shapes = (
{
closed = 1;
nodes = (
(136,1096,l),
(114,1129,o),
(96,1162,q),
(81,1189,o),
(68.5,1219,q),
(56,1249,o),
(56,1270,q),
(56,1297,o),
(71.5,1325,q),
(87,1353,o),
(126,1376,q),
(171,1400,o),
(208,1400,q),
(236,1400,o),
(259.5,1387.5,q),
(283,1375,o),
(302.5,1354.5,q),
(322,1334,o),
(339,1308,q),
(356,1282,o),
(372,1256,q),
(558,950,l),
(588,950,l),
(774,1256,l),
(790,1282,o),
(807,1308,q),
(824,1334,o),
(843.5,1354.5,q),
(863,1375,o),
(886,1387.5,q),
(909,1400,o),
(938,1400,q),
(956,1400,o),
(976.5,1393,q),
(997,1386,o),
(1020,1374,q),
(1062,1351,o),
(1078,1324.5,q),
(1094,1298,o),
(1094,1272,q),
(1094,1250,o),
(1081,1220,q),
(1068,1190,o),
(1052,1162,q),
(1034,1129,o),
(1010,1096,q),
(760,714,l),
(760,696,l),
(1038,258,l),
(1059,225,o),
(1074.5,192.5,q),
(1090,160,o),
(1090,128,q),
(1090,101,o),
(1075.5,74.5,q),
(1061,48,o),
(1022,24,q),
(977,0,o),
(940,0,q),
(914,0,o),
(893,10.5,q),
(872,21,o),
(854,38,q),
(836,55,o),
(820.5,77,q),
(805,99,o),
(790,122,q),
(588,450,l),
(558,450,l),
(356,122,l),
(341,99,o),
(325.5,77,q),
(310,55,o),
(292.5,38,q),
(275,21,o),
(254,10.5,q),
(233,0,o),
(208,0,q),
(170,0,o),
(128,24,q),
(87,48,o),
(71.5,74.5,q),
(56,101,o),
(56,128,q),
(56,160,o),
(71.5,192.5,q),
(87,225,o),
(108,258,q),
(388,696,l),
(388,714,l)
);
}
);
width = 1146;
}
);
unicode = 88;
},
{
glyphname = Y;
layers = (
{
layerId = "ee3f1d96-5840-4730-b38c-b1c88b21a886";
name = Fore;
shapes = (
{
closed = 1;
nodes = (
(654,184,o),
(650,143.5,q),
(646,103,o),
(631,71,q),
(616,39,o),
(586,19.5,q),
(556,0,o),
(504,0,q),
(451,0,o),
(421,19.5,q),
(391,39,o),
(375.5,71,q),
(360,103,o),
(356,143.5,q),
(352,184,o),
(352,226,q),
(352,574,l),
(54,1106,l),
(30,1148,o),
(8,1188.5,q),
(-14,1229,o),
(-14,1270,q),
(-14,1297,o),
(1.5,1324.5,q),
(17,1352,o),
(58,1376,q),
(103,1400,o),
(142,1400,q),
(172,1400,o),
(196.5,1386.5,q),
(221,1373,o),
(241,1351,q),
(261,1329,o),
(277,1301.5,q),
(293,1274,o),
(306,1246,q),
(488,864,l),
(520,864,l),
(702,1246,l),
(715,1274,o),
(731,1301.5,q),
(747,1329,o),
(767,1351,q),
(787,1373,o),
(811.5,1386.5,q),
(836,1400,o),
(866,1400,q),
(887,1400,o),
(907,1394,q),
(927,1388,o),
(950,1376,q),
(989,1352,o),
(1005.5,1324.5,q),
(1022,1297,o),
(1022,1270,q),
(1022,1252,o),
(1006,1211.5,q),
(990,1171,o),
(954,1106,q),
(654,574,l),
(654,226,l)
);
}
);
width = 1000;
}
);
unicode = 89;
},
{
glyphname = Z;
layers = (
{
layerId = "ee3f1d96-5840-4730-b38c-b1c88b21a886";
name = Fore;
shapes = (
{
closed = 1;
nodes = (
(584,1114,l),
(296,1114,l),
(256,1114,o),
(216,1118,q),
(176,1122,o),
(143.5,1135.5,q),
(111,1149,o),
(90.5,1175.5,q),
(70,1202,o),
(70,1248,q),
(70,1300,o),
(90.5,1330.5,q),
(111,1361,o),
(143.5,1376.5,q),
(176,1392,o),
(216,1396,q),
(256,1400,o),
(296,1400,q),
(822,1400,l),
(860,1400,o),
(889.5,1386.5,q),
(919,1373,o),
(939,1351,q),
(959,1329,o),
(969.5,1302,q),
(980,1275,o),
(980,1248,q),
(980,1233,o),
(977,1219,q),
(974,1205,o),
(968,1194,q),
(454,300,l),
(468,286,l),
(756,286,l),
(795,286,o),
(835,282,q),
(875,278,o),
(908,263.5,q),
(941,249,o),
(961.5,221,q),
(982,193,o),
(982,144,q),
(982,94,o),
(961.5,65.5,q),
(941,37,o),
(908,22.5,q),
(875,8,o),
(835,4,q),
(795,0,o),
(756,0,q),
(230,0,l),
(192,0,o),
(162.5,12.5,q),
(133,25,o),
(112.5,45,q),
(92,65,o),
(81,91,q),
(70,117,o),
(70,144,q),
(70,162,o),
(72.5,175.5,q),
(75,189,o),
(84,204,q),
(600,1098,l)
);
}
);
width = 1042;
}
);
unicode = 90;
},
{
glyphname = bracketleft;
layers = (
{
layerId = "ee3f1d96-5840-4730-b38c-b1c88b21a886";
name = Fore;
shapes = (
{
closed = 1;
nodes = (
(618,246,o),
(644,242.5,q),
(670,239,o),
(690,226.5,q),
(710,214,o),
(722,190,q),
(734,166,o),
(734,126,q),
(734,82,o),
(722,57,q),
(710,32,o),
(690,20,q),
(670,8,o),
(644,5,q),
(618,2,o),
(590,2,q),
(384,2,l),
(353,2,o),
(327,8.5,q),
(301,15,o),
(281.5,31.5,q),
(262,48,o),
(251,75.5,q),
(240,103,o),
(240,146,q),
(240,1256,l),
(240,1327,o),
(272.5,1365.5,q),
(305,1404,o),
(386,1404,q),
(592,1404,l),
(620,1404,o),
(646,1400.5,q),
(672,1397,o),
(692,1384.5,q),
(712,1372,o),
(724,1348,q),
(736,1324,o),
(736,1284,q),
(736,1240,o),
(724,1215,q),
(712,1190,o),
(692,1178,q),
(672,1166,o),
(646,1163,q),
(620,1160,o),
(592,1160,q),
(484,1160,l),
(484,246,l),
(590,246,l)
);
}
);
width = 836;
}
);
unicode = 91;
},
{
glyphname = backslash;
layers = (
{
layerId = "ee3f1d96-5840-4730-b38c-b1c88b21a886";
name = Fore;
shapes = (
{
closed = 1;
nodes = (
(241,1406,o),
(256,1396.5,q),
(271,1387,o),
(282,1373.5,q),
(293,1360,o),
(301,1343,q),
(309,1326,o),
(316,1310,q),
(804,168,l),
(813,145,o),
(819.5,124,q),
(826,103,o),
(826,74,q),
(823,50,o),
(805,28,q),
(787,6,o),
(746,-12,q),
(715,-26,o),
(690,-26,q),
(667,-26,o),
(649.5,-16.5,q),
(632,-7,o),
(618.5,7.5,q),
(605,22,o),
(595,39.5,q),
(585,57,o),
(578,74,q),
(92,1214,l),
(83,1234,o),
(76.5,1257,q),
(70,1280,o),
(70,1310,q),
(73,1334,o),
(90,1355.5,q),
(107,1377,o),
(146,1394,q),
(166,1402,o),
(183.5,1405,q),
(201,1408,o),
(222,1408,q)
);
}
);
width = 906;
}
);
unicode = 92;
},
{
glyphname = bracketright;
layers = (
{
layerId = "ee3f1d96-5840-4730-b38c-b1c88b21a886";
name = Fore;
shapes = (
{
closed = 1;
nodes = (
(392,1160,l),
(284,1160,l),
(256,1160,o),
(230,1163,q),
(204,1166,o),
(184,1178,q),
(164,1190,o),
(152,1215,q),
(140,1240,o),
(140,1284,q),
(140,1324,o),
(152,1348,q),
(164,1372,o),
(184,1384.5,q),
(204,1397,o),
(230,1400.5,q),
(256,1404,o),
(284,1404,q),
(490,1404,l),
(571,1404,o),
(603.5,1365.5,q),
(636,1327,o),
(636,1256,q),
(636,146,l),
(636,103,o),
(625,75.5,q),
(614,48,o),
(594.5,31.5,q),
(575,15,o),
(549,8.5,q),
(523,2,o),
(492,2,q),
(286,2,l),
(258,2,o),
(232,5,q),
(206,8,o),
(186,20,q),
(166,32,o),
(154,57,q),
(142,82,o),
(142,126,q),
(142,166,o),
(154,190,q),
(166,214,o),
(186,226.5,q),
(206,239,o),
(232,242.5,q),
(258,246,o),
(286,246,q),
(392,246,l)
);
}
);
width = 836;
}
);
unicode = 93;
},
{
glyphname = asciicircum;
layers = (
{
layerId = "ee3f1d96-5840-4730-b38c-b1c88b21a886";
name = Fore;
shapes = (
{
closed = 1;
nodes = (
(765,931,o),
(773.5,912.5,q),
(782,894,o),
(782,870,q),
(782,844,o),
(770.5,825,q),
(759,806,o),
(744,792,q),
(726,775,o),
(709,768.5,q),
(692,762,o),
(674,762,q),
(650,762,o),
(626,769.5,q),
(602,777,o),
(588,794,q),
(478,898,l),
(368,794,l),
(354,777,o),
(330,769.5,q),
(306,762,o),
(282,762,q),
(264,762,o),
(247,768.5,q),
(230,775,o),
(212,792,q),
(197,806,o),
(185.5,825,q),
(174,844,o),
(174,870,q),
(174,894,o),
(182.5,912.5,q),
(191,931,o),
(202,942,q),
(392,1122,l),
(407,1137,o),
(425.5,1145.5,q),
(444,1154,o),
(468,1156,q),
(488,1156,l),
(533,1153,o),
(564,1122,q),
(754,942,l)
);
}
);
width = 976;
}
);
unicode = 94;
},
{
glyphname = underscore;
layers = (
{
layerId = "ee3f1d96-5840-4730-b38c-b1c88b21a886";
name = Fore;
shapes = (
{
closed = 1;
nodes = (
(262,2,o),
(236,5.5,q),
(210,9,o),
(190,21.5,q),
(170,34,o),
(158,57.5,q),
(146,81,o),
(146,122,q),
(146,166,o),
(158,191,q),
(170,216,o),
(190,228,q),
(210,240,o),
(236,243,q),
(262,246,o),
(290,246,q),
(1110,246,l),
(1135,246,o),
(1161,243,q),
(1187,240,o),
(1207.5,228,q),
(1228,216,o),
(1241,191,q),
(1254,166,o),
(1254,122,q),
(1254,81,o),
(1241,57.5,q),
(1228,34,o),
(1207.5,21.5,q),
(1187,9,o),
(1161,5.5,q),
(1135,2,o),
(1110,2,q),
(346,2,l),
(290,2,l)
);
}
);
width = 1408;
}
);
unicode = 95;
},
{
glyphname = grave;
layers = (
{
layerId = "ee3f1d96-5840-4730-b38c-b1c88b21a886";
name = Fore;
shapes = (
{
closed = 1;
nodes = (
(548,1289,o),
(563,1265.5,q),
(578,1242,o),
(578,1212,q),
(578,1198,o),
(573,1181.5,q),
(568,1165,o),
(556,1148,q),
(536,1119,o),
(512.5,1110.5,q),
(489,1102,o),
(462,1102,q),
(447,1102,o),
(431.5,1105.5,q),
(416,1109,o),
(402,1118,q),
(182,1252,l),
(162,1266,o),
(147,1288.5,q),
(132,1311,o),
(132,1338,q),
(132,1352,o),
(137,1370,q),
(142,1388,o),
(154,1406,q),
(174,1435,o),
(201,1443.5,q),
(228,1452,o),
(254,1452,q),
(283,1452,o),
(310,1434,q),
(534,1298,l)
);
}
);
width = 698;
}
);
unicode = 96;
},
{
glyphname = a;
layers = (
{
layerId = "ee3f1d96-5840-4730-b38c-b1c88b21a886";
name = Fore;
shapes = (
{
closed = 1;
nodes = (
(912,184,o),
(909,143.5,q),
(906,103,o),
(891,71,q),
(876,39,o),
(846,19.5,q),
(816,0,o),
(762,0,q),
(707,0,o),
(676,18.5,q),
(645,37,o),
(630,63.5,q),
(615,90,o),
(611.5,119,q),
(608,148,o),
(608,168,q),
(599,139,o),
(582.5,109,q),
(566,79,o),
(540,55,q),
(514,31,o),
(477.5,15.5,q),
(441,0,o),
(392,0,q),
(337,0,o),
(282,18,q),
(227,36,o),
(183,78,q),
(139,120,o),
(111.5,187.5,q),
(84,255,o),
(84,354,q),
(84,644,l),
(84,744,o),
(111.5,811.5,q),
(139,879,o),
(183,920.5,q),
(227,962,o),
(282,980,q),
(337,998,o),
(392,998,q),
(441,998,o),
(477.5,983,q),
(514,968,o),
(540,944,q),
(566,920,o),
(582.5,890,q),
(599,860,o),
(608,830,q),
(608,880,o),
(622,913,q),
(636,946,o),
(658,965.5,q),
(680,985,o),
(707.5,992.5,q),
(735,1000,o),
(762,1000,q),
(812,1000,o),
(842,980.5,q),
(872,961,o),
(887.5,929.5,q),
(903,898,o),
(907.5,856.5,q),
(912,815,o),
(912,772,q),
(912,226,l)
);
},
{
closed = 1;
nodes = (
(392,353,o),
(394,327,q),
(396,301,o),
(405,280,q),
(414,259,o),
(431.5,246.5,q),
(449,234,o),
(480,234,q),
(519,234,o),
(543.5,251.5,q),
(568,269,o),
(582,305.5,q),
(596,342,o),
(601.5,397.5,q),
(607,453,o),
(608,530,q),
(608,561,o),
(602.5,601.5,q),
(597,642,o),
(583,678,q),
(569,714,o),
(544,739,q),
(519,764,o),
(480,764,q),
(449,764,o),
(431.5,751.5,q),
(414,739,o),
(405,719,q),
(396,699,o),
(394,673.5,q),
(392,648,o),
(392,622,q),
(392,380,l)
);
}
);
width = 1020;
}
);
unicode = 97;
},
{
glyphname = b;
layers = (
{
layerId = "ee3f1d96-5840-4730-b38c-b1c88b21a886";
name = Fore;
shapes = (
{
closed = 1;
nodes = (
(120,1215,o),
(124.5,1256.5,q),
(129,1298,o),
(144.5,1329.5,q),
(160,1361,o),
(190,1380.5,q),
(220,1400,o),
(270,1400,q),
(322,1400,o),
(353,1380.5,q),
(384,1361,o),
(399.5,1329.5,q),
(415,1298,o),
(419.5,1256.5,q),
(424,1215,o),
(424,1172,q),
(424,830,l),
(433,860,o),
(449.5,890,q),
(466,920,o),
(492,944,q),
(518,968,o),
(554.5,983,q),
(591,998,o),
(640,998,q),
(695,998,o),
(750,980,q),
(805,962,o),
(849,920.5,q),
(893,879,o),
(920.5,811.5,q),
(948,744,o),
(948,644,q),
(948,354,l),
(948,255,o),
(920.5,187.5,q),
(893,120,o),
(849,78,q),
(805,36,o),
(750,18,q),
(695,0,o),
(640,0,q),
(591,0,o),
(554.5,15.5,q),
(518,31,o),
(492,55,q),
(466,79,o),
(449.5,109,q),
(433,139,o),
(424,168,q),
(424,148,o),
(420.5,119,q),
(417,90,o),
(402,63.5,q),
(387,37,o),
(356,18.5,q),
(325,0,o),
(270,0,q),
(216,0,o),
(186,19.5,q),
(156,39,o),
(141,71,q),
(126,103,o),
(123,143.5,q),
(120,184,o),
(120,226,q),
(120,1172,l)
);
},
{
closed = 1;
nodes = (
(640,648,o),
(638,673.5,q),
(636,699,o),
(627,719,q),
(618,739,o),
(600.5,751.5,q),
(583,764,o),
(552,764,q),
(513,764,o),
(488,739,q),
(463,714,o),
(449,678,q),
(435,642,o),
(429.5,601.5,q),
(424,561,o),
(424,530,q),
(425,453,o),
(430.5,397.5,q),
(436,342,o),
(450,305.5,q),
(464,269,o),
(488.5,251.5,q),
(513,234,o),
(552,234,q),
(583,234,o),
(600.5,246.5,q),
(618,259,o),
(627,280,q),
(636,301,o),
(638,327,q),
(640,353,o),
(640,380,q),
(640,622,l)
);
}
);
width = 1042;
}
);
unicode = 98;
},
{
glyphname = c;
layers = (
{
layerId = "ee3f1d96-5840-4730-b38c-b1c88b21a886";
name = Fore;
shapes = (
{
closed = 1;
nodes = (
(388,330,o),
(391,305.5,q),
(394,281,o),
(405,257.5,q),
(416,234,o),
(437.5,217,q),
(459,200,o),
(496,200,q),
(540,200,o),
(565,210,q),
(590,220,o),
(602,237.5,q),
(614,255,o),
(617,278.5,q),
(620,302,o),
(620,328,q),
(620,341,o),
(624.5,357.5,q),
(629,374,o),
(646,388.5,q),
(663,403,o),
(696.5,412.5,q),
(730,422,o),
(788,422,q),
(841,422,o),
(870,410,q),
(899,398,o),
(912.5,381.5,q),
(926,365,o),
(928,347.5,q),
(930,330,o),
(930,320,q),
(930,256,o),
(910.5,207.5,q),
(891,159,o),
(858,123.5,q),
(825,88,o),
(782,64,q),
(739,40,o),
(690.5,26,q),
(642,12,o),
(592,6,q),
(542,0,o),
(496,0,q),
(417,0,o),
(343,21,q),
(269,42,o),
(211.5,87,q),
(154,132,o),
(119,202.5,q),
(84,273,o),
(84,372,q),
(84,606,l),
(84,701,o),
(106.5,767,q),
(129,833,o),
(165,877,q),
(201,921,o),
(246,945.5,q),
(291,970,o),
(337,982,q),
(383,994,o),
(424.5,997,q),
(466,1000,o),
(496,1000,q),
(585,1000,o),
(651.5,985,q),
(718,970,o),
(766,945,q),
(814,920,o),
(845.5,887.5,q),
(877,855,o),
(895,819,q),
(913,783,o),
(920.5,747,q),
(928,711,o),
(928,680,q),
(928,664,o),
(926,642.5,q),
(924,621,o),
(910.5,601.5,q),
(897,582,o),
(868,568,q),
(839,554,o),
(786,554,q),
(767,554,o),
(738.5,555.5,q),
(710,557,o),
(683,566,q),
(656,575,o),
(637,594,q),
(618,613,o),
(618,648,q),
(618,672,o),
(615.5,694.5,q),
(613,717,o),
(601,734,q),
(589,751,o),
(564.5,761.5,q),
(540,772,o),
(496,772,q),
(459,772,o),
(437.5,760,q),
(416,748,o),
(405,730,q),
(394,712,o),
(391,692,q),
(388,672,o),
(388,656,q),
(388,346,l)
);
}
);
width = 1000;
}
);
unicode = 99;
},
{
glyphname = d;
layers = (
{
layerId = "ee3f1d96-5840-4730-b38c-b1c88b21a886";
name = Fore;
shapes = (
{
closed = 1;
nodes = (
(910,184,o),
(907,143.5,q),
(904,103,o),
(889,71,q),
(874,39,o),
(844,19.5,q),
(814,0,o),
(760,0,q),
(705,0,o),
(674,18.5,q),
(643,37,o),
(628,63.5,q),
(613,90,o),
(609.5,119,q),
(606,148,o),
(606,168,q),
(597,139,o),
(580.5,109,q),
(564,79,o),
(538,55,q),
(512,31,o),
(475.5,15.5,q),
(439,0,o),
(390,0,q),
(335,0,o),
(280,18,q),
(225,36,o),
(181,78,q),
(137,120,o),
(109.5,187.5,q),
(82,255,o),
(82,354,q),
(82,644,l),
(82,744,o),
(109.5,811.5,q),
(137,879,o),
(181,920.5,q),
(225,962,o),
(280,980,q),
(335,998,o),
(390,998,q),
(439,998,o),
(475.5,983,q),
(512,968,o),
(538,944,q),
(564,920,o),
(580.5,890,q),
(597,860,o),
(606,830,q),
(606,1172,l),
(606,1215,o),
(610.5,1256.5,q),
(615,1298,o),
(630.5,1329.5,q),
(646,1361,o),
(676.5,1380.5,q),
(707,1400,o),
(760,1400,q),
(810,1400,o),
(840,1380.5,q),
(870,1361,o),
(885.5,1329.5,q),
(901,1298,o),
(905.5,1256.5,q),
(910,1215,o),
(910,1172,q),
(910,226,l)
);
},
{
closed = 1;
nodes = (
(390,353,o),
(392,327,q),
(394,301,o),
(403,280,q),
(412,259,o),
(429.5,246.5,q),
(447,234,o),
(478,234,q),
(517,234,o),
(541.5,251.5,q),
(566,269,o),
(580,305.5,q),
(594,342,o),
(599.5,397.5,q),
(605,453,o),
(606,530,q),
(606,561,o),
(600.5,601.5,q),
(595,642,o),
(581,678,q),
(567,714,o),
(542,739,q),
(517,764,o),
(478,764,q),
(447,764,o),
(429.5,751.5,q),
(412,739,o),
(403,719,q),
(394,699,o),
(392,673.5,q),
(390,648,o),
(390,622,q),
(390,380,l)
);
}
);
width = 1020;
}
);
unicode = 100;
},
{
glyphname = e;
layers = (
{
layerId = "ee3f1d96-5840-4730-b38c-b1c88b21a886";
name = Fore;
shapes = (
{
closed = 1;
nodes = (
(936,554,o),
(934,532.5,q),
(932,511,o),
(918.5,491.5,q),
(905,472,o),
(876,458,q),
(847,444,o),
(794,444,q),
(396,444,l),
(396,348,l),
(396,324,o),
(402,298,q),
(408,272,o),
(422.5,250,q),
(437,228,o),
(461,214,q),
(485,200,o),
(520,200,q),
(560,200,o),
(581.5,209.5,q),
(603,219,o),
(615.5,233,q),
(628,247,o),
(638,263,q),
(648,279,o),
(664.5,293,q),
(681,307,o),
(710.5,316.5,q),
(740,326,o),
(792,326,q),
(817,326,o),
(840.5,322,q),
(864,318,o),
(882,307,q),
(900,296,o),
(911,276.5,q),
(922,257,o),
(922,226,q),
(922,161,o),
(881,117.5,q),
(840,74,o),
(778,48,q),
(716,22,o),
(643.5,11,q),
(571,0,o),
(508,0,q),
(425,1,o),
(350,21,q),
(275,41,o),
(217.5,85,q),
(160,129,o),
(126,200,q),
(92,271,o),
(92,374,q),
(92,608,l),
(92,703,o),
(114.5,769,q),
(137,835,o),
(173,879,q),
(209,923,o),
(254,947.5,q),
(299,972,o),
(345,984,q),
(391,996,o),
(432.5,999,q),
(474,1002,o),
(504,1002,q),
(605,1002,o),
(676.5,984,q),
(748,966,o),
(796,937,q),
(844,908,o),
(872,870,q),
(900,832,o),
(914,791.5,q),
(928,751,o),
(932,709.5,q),
(936,668,o),
(936,632,q),
(936,570,l)
);
},
{
closed = 1;
nodes = (
(646,594,l),
(646,641,o),
(643.5,677.5,q),
(641,714,o),
(628.5,739,q),
(616,764,o),
(589.5,777,q),
(563,790,o),
(514,790,q),
(473,790,o),
(449.5,777,q),
(426,764,o),
(414,744.5,q),
(402,725,o),
(399,703,q),
(396,681,o),
(396,664,q),
(396,594,l)
);
}
);
width = 1020;
}
);
unicode = 101;
},
{
glyphname = f;
layers = (
{
layerId = "ee3f1d96-5840-4730-b38c-b1c88b21a886";
name = Fore;
shapes = (
{
closed = 1;
nodes = (
(589,1000,o),
(615,997,q),
(641,994,o),
(661.5,982,q),
(682,970,o),
(695,945,q),
(708,920,o),
(708,876,q),
(708,835,o),
(695,811.5,q),
(682,788,o),
(661.5,775.5,q),
(641,763,o),
(615,759.5,q),
(589,756,o),
(564,756,q),
(504,756,l),
(504,226,l),
(504,182,o),
(499.5,141.5,q),
(495,101,o),
(478.5,69.5,q),
(462,38,o),
(430.5,19,q),
(399,0,o),
(346,0,q),
(295,0,o),
(265.5,19,q),
(236,38,o),
(221,69.5,q),
(206,101,o),
(202,141.5,q),
(198,182,o),
(198,226,q),
(198,756,l),
(142,756,l),
(114,756,o),
(88.5,759.5,q),
(63,763,o),
(43.5,775.5,q),
(24,788,o),
(12,811.5,q),
(0,835,o),
(0,876,q),
(0,920,o),
(12,945,q),
(24,970,o),
(43.5,982,q),
(63,994,o),
(88.5,997,q),
(114,1000,o),
(142,1000,q),
(198,1000,l),
(198,1088,o),
(206,1162,q),
(214,1236,o),
(245,1288.5,q),
(276,1341,o),
(337,1370.5,q),
(398,1400,o),
(504,1400,q),
(549,1400,o),
(589,1392,q),
(629,1384,o),
(659,1367,q),
(689,1350,o),
(706.5,1322.5,q),
(724,1295,o),
(724,1256,q),
(724,1220,o),
(711.5,1196,q),
(699,1172,o),
(681,1157,q),
(663,1142,o),
(641.5,1136,q),
(620,1130,o),
(602,1130,q),
(587,1130,o),
(574,1137,q),
(561,1144,o),
(544,1144,q),
(530,1144,o),
(522.5,1135,q),
(515,1126,o),
(510.5,1111,q),
(506,1096,o),
(505,1078,q),
(504,1060,o),
(504,1042,q),
(504,1000,l),
(564,1000,l)
);
}
);
width = 750;
}
);
unicode = 102;
},
{
glyphname = g;
layers = (
{
layerId = "ee3f1d96-5840-4730-b38c-b1c88b21a886";
name = Fore;
shapes = (
{
closed = 1;
nodes = (
(922,-120,o),
(897.5,-182,q),
(873,-244,o),
(835,-285,q),
(797,-326,o),
(750.5,-349,q),
(704,-372,o),
(659.5,-383.5,q),
(615,-395,o),
(578,-397.5,q),
(541,-400,o),
(522,-400,q),
(451,-400,o),
(380,-390,q),
(309,-380,o),
(250.5,-353,q),
(192,-326,o),
(153.5,-280,q),
(115,-234,o),
(110,-162,q),
(110,-150,o),
(114,-135,q),
(118,-120,o),
(132,-106.5,q),
(146,-93,o),
(174,-83.5,q),
(202,-74,o),
(250,-74,q),
(308,-74,o),
(339,-83.5,q),
(370,-93,o),
(385,-106.5,q),
(400,-120,o),
(404.5,-135.5,q),
(409,-151,o),
(414,-164,q),
(422,-185,o),
(445.5,-193.5,q),
(469,-202,o),
(510,-202,q),
(547,-202,o),
(568.5,-185,q),
(590,-168,o),
(601,-144.5,q),
(612,-121,o),
(615,-96.5,q),
(618,-72,o),
(618,-56,q),
(618,168,l),
(609,138,o),
(592.5,108,q),
(576,78,o),
(550,54,q),
(524,30,o),
(487.5,15,q),
(451,0,o),
(402,0,q),
(347,0,o),
(292,18,q),
(237,36,o),
(192.5,77.5,q),
(148,119,o),
(120,187,q),
(92,255,o),
(92,356,q),
(92,646,l),
(92,745,o),
(120,812.5,q),
(148,880,o),
(192.5,922,q),
(237,964,o),
(292,982,q),
(347,1000,o),
(402,1000,q),
(451,1000,o),
(487.5,984.5,q),
(524,969,o),
(550,945,q),
(576,921,o),
(592.5,891,q),
(609,861,o),
(618,832,q),
(618,852,o),
(621.5,881,q),
(625,910,o),
(640,936.5,q),
(655,963,o),
(686,981.5,q),
(717,1000,o),
(772,1000,q),
(826,1000,o),
(856,980.5,q),
(886,961,o),
(901,929,q),
(916,897,o),
(919,856.5,q),
(922,816,o),
(922,774,q),
(922,-30,l)
);
},
{
closed = 1;
nodes = (
(402,352,o),
(404,326,q),
(406,300,o),
(415,279.5,q),
(424,259,o),
(441.5,246.5,q),
(459,234,o),
(490,234,q),
(529,234,o),
(554,259,q),
(579,284,o),
(593,320.5,q),
(607,357,o),
(612.5,397.5,q),
(618,438,o),
(618,470,q),
(617,546,o),
(611.5,602,q),
(606,658,o),
(592,694.5,q),
(578,731,o),
(553.5,748.5,q),
(529,766,o),
(490,766,q),
(459,766,o),
(441.5,753.5,q),
(424,741,o),
(415,720,q),
(406,699,o),
(404,673,q),
(402,647,o),
(402,620,q),
(402,378,l)
);
}
);
width = 1042;
}
);
unicode = 103;
},
{
glyphname = h;
layers = (
{
layerId = "ee3f1d96-5840-4730-b38c-b1c88b21a886";
name = Fore;
shapes = (
{
closed = 1;
nodes = (
(956,184,o),
(951.5,143.5,q),
(947,103,o),
(931.5,71,q),
(916,39,o),
(886,19.5,q),
(856,0,o),
(804,0,q),
(752,0,o),
(721.5,19.5,q),
(691,39,o),
(674.5,71,q),
(658,103,o),
(653,143.5,q),
(648,184,o),
(648,226,q),
(648,620,l),
(648,646,o),
(646,671.5,q),
(644,697,o),
(635,717,q),
(626,737,o),
(608.5,749.5,q),
(591,762,o),
(560,762,q),
(520,762,o),
(495,735.5,q),
(470,709,o),
(455.5,662.5,q),
(441,616,o),
(435.5,552.5,q),
(430,489,o),
(430,416,q),
(430,226,l),
(430,184,o),
(425.5,143.5,q),
(421,103,o),
(405,71,q),
(389,39,o),
(358,19.5,q),
(327,0,o),
(274,0,q),
(222,0,o),
(192,19.5,q),
(162,39,o),
(146.5,71,q),
(131,103,o),
(126.5,143.5,q),
(122,184,o),
(122,226,q),
(122,1174,l),
(122,1216,o),
(126.5,1256.5,q),
(131,1297,o),
(146.5,1329,q),
(162,1361,o),
(192,1380.5,q),
(222,1400,o),
(274,1400,q),
(327,1400,o),
(358,1380.5,q),
(389,1361,o),
(405,1329,q),
(421,1297,o),
(425.5,1256.5,q),
(430,1216,o),
(430,1174,q),
(430,832,l),
(439,861,o),
(456,891,q),
(473,921,o),
(500,945,q),
(527,969,o),
(563.5,984.5,q),
(600,1000,o),
(648,1000,q),
(703,1000,o),
(758.5,981.5,q),
(814,963,o),
(857.5,921,q),
(901,879,o),
(928.5,810.5,q),
(956,742,o),
(956,642,q),
(956,226,l)
);
}
);
width = 1042;
}
);
unicode = 104;
},
{
glyphname = i;
layers = (
{
layerId = "ee3f1d96-5840-4730-b38c-b1c88b21a886";
name = Fore;
shapes = (
{
closed = 1;
nodes = (
(154,818,o),
(158.5,858,q),
(163,898,o),
(179,929.5,q),
(195,961,o),
(225,980.5,q),
(255,1000,o),
(306,1000,q),
(357,1000,o),
(387,980.5,q),
(417,961,o),
(433,929.5,q),
(449,898,o),
(453.5,858,q),
(458,818,o),
(458,776,q),
(458,224,l),
(458,182,o),
(453.5,141.5,q),
(449,101,o),
(433,69.5,q),
(417,38,o),
(387,19,q),
(357,0,o),
(306,0,q),
(255,0,o),
(225,19,q),
(195,38,o),
(179,69.5,q),
(163,101,o),
(158.5,141.5,q),
(154,182,o),
(154,224,q),
(154,776,l)
);
},
{
closed = 1;
nodes = (
(460,1171,o),
(420,1133.5,q),
(380,1096,o),
(308,1096,q),
(236,1096,o),
(196,1133.5,q),
(156,1171,o),
(156,1248,q),
(156,1328,o),
(196,1364,q),
(236,1400,o),
(308,1400,q),
(385,1400,o),
(422.5,1364,q),
(460,1328,o),
(460,1248,q)
);
}
);
width = 626;
}
);
unicode = 105;
},
{
glyphname = j;
layers = (
{
layerId = "ee3f1d96-5840-4730-b38c-b1c88b21a886";
name = Fore;
shapes = (
{
closed = 1;
nodes = (
(176,819,o),
(180.5,859.5,q),
(185,900,o),
(201,931.5,q),
(217,963,o),
(247.5,981.5,q),
(278,1000,o),
(330,1000,q),
(380,1000,o),
(410,981.5,q),
(440,963,o),
(455.5,931.5,q),
(471,900,o),
(475.5,859.5,q),
(480,819,o),
(480,776,q),
(480,30,l),
(480,-63,o),
(473,-142,q),
(466,-221,o),
(436,-278,q),
(406,-335,o),
(345,-367.5,q),
(284,-400,o),
(176,-400,q),
(132,-400,o),
(92,-391,q),
(52,-382,o),
(22,-363,q),
(-8,-344,o),
(-26,-315,q),
(-44,-286,o),
(-44,-246,q),
(-44,-209,o),
(-36.5,-185,q),
(-29,-161,o),
(-12.5,-146.5,q),
(4,-132,o),
(29.5,-126,q),
(55,-120,o),
(92,-120,q),
(123,-120,o),
(140,-107.5,q),
(157,-95,o),
(165,-74,q),
(173,-53,o),
(174.5,-26,q),
(176,1,o),
(176,30,q),
(176,776,l)
);
},
{
closed = 1;
nodes = (
(480,1175,o),
(440.5,1137.5,q),
(401,1100,o),
(330,1100,q),
(258,1100,o),
(217,1137.5,q),
(176,1175,o),
(176,1250,q),
(176,1328,o),
(217,1365,q),
(258,1402,o),
(330,1402,q),
(407,1402,o),
(443.5,1365,q),
(480,1328,o),
(480,1250,q)
);
}
);
width = 626;
}
);
unicode = 106;
},
{
glyphname = k;
layers = (
{
layerId = "ee3f1d96-5840-4730-b38c-b1c88b21a886";
name = Fore;
shapes = (
{
closed = 1;
nodes = (
(150,1220,o),
(153,1260,q),
(156,1300,o),
(170,1331,q),
(184,1362,o),
(212.5,1381,q),
(241,1400,o),
(292,1400,q),
(344,1400,o),
(372.5,1381,q),
(401,1362,o),
(414.5,1331,q),
(428,1300,o),
(431,1260,q),
(434,1220,o),
(434,1178,q),
(434,784,l),
(450,784,l),
(656,1026,l),
(674,1047,o),
(698,1056.5,q),
(722,1066,o),
(748,1066,q),
(773,1066,o),
(798.5,1056.5,q),
(824,1047,o),
(843.5,1029.5,q),
(863,1012,o),
(875.5,987.5,q),
(888,963,o),
(888,932,q),
(888,892,o),
(860,858,q),
(680,646,l),
(876,272,l),
(894,236,o),
(907,199.5,q),
(920,163,o),
(920,130,q),
(920,98,o),
(906,73,q),
(892,48,o),
(869.5,31.5,q),
(847,15,o),
(819.5,6.5,q),
(792,-2,o),
(766,-2,q),
(733,-2,o),
(707,14,q),
(681,30,o),
(661.5,53.5,q),
(642,77,o),
(627,104,q),
(612,131,o),
(602,154,q),
(490,392,l),
(434,392,l),
(434,224,l),
(434,182,o),
(431,141.5,q),
(428,101,o),
(414.5,69.5,q),
(401,38,o),
(372.5,19,q),
(344,0,o),
(292,0,q),
(241,0,o),
(212.5,19,q),
(184,38,o),
(170,69.5,q),
(156,101,o),
(153,141.5,q),
(150,182,o),
(150,224,q),
(150,1178,l)
);
}
);
width = 1014;
}
);
unicode = 107;
},
{
glyphname = l;
layers = (
{
layerId = "ee3f1d96-5840-4730-b38c-b1c88b21a886";
name = Fore;
shapes = (
{
closed = 1;
nodes = (
(140,1220,o),
(144.5,1260,q),
(149,1300,o),
(165,1331,q),
(181,1362,o),
(211,1381,q),
(241,1400,o),
(292,1400,q),
(344,1400,o),
(374,1381,q),
(404,1362,o),
(419.5,1331,q),
(435,1300,o),
(439.5,1260,q),
(444,1220,o),
(444,1178,q),
(444,224,l),
(444,182,o),
(439.5,141.5,q),
(435,101,o),
(419.5,69.5,q),
(404,38,o),
(374,19,q),
(344,0,o),
(292,0,q),
(241,0,o),
(211,19,q),
(181,38,o),
(165,69.5,q),
(149,101,o),
(144.5,141.5,q),
(140,182,o),
(140,224,q),
(140,1178,l)
);
}
);
width = 586;
}
);
unicode = 108;
},
{
glyphname = m;
layers = (
{
layerId = "ee3f1d96-5840-4730-b38c-b1c88b21a886";
name = Fore;
shapes = (
{
closed = 1;
nodes = (
(757,0,o),
(727,19.5,q),
(697,39,o),
(681,71,q),
(665,103,o),
(660.5,143.5,q),
(656,184,o),
(656,226,q),
(656,622,l),
(656,649,o),
(653.5,675,q),
(651,701,o),
(642,721,q),
(633,741,o),
(615.5,753.5,q),
(598,766,o),
(568,766,q),
(528,766,o),
(503,739,q),
(478,712,o),
(463.5,665.5,q),
(449,619,o),
(443.5,556,q),
(438,493,o),
(438,420,q),
(438,226,l),
(438,184,o),
(433.5,143.5,q),
(429,103,o),
(413.5,71,q),
(398,39,o),
(368,19.5,q),
(338,0,o),
(286,0,q),
(234,0,o),
(204,19.5,q),
(174,39,o),
(158.5,71,q),
(143,103,o),
(138.5,143.5,q),
(134,184,o),
(134,226,q),
(134,774,l),
(134,816,o),
(137.5,856.5,q),
(141,897,o),
(156,929,q),
(171,961,o),
(201.5,980.5,q),
(232,1000,o),
(286,1000,q),
(341,1000,o),
(371.5,981.5,q),
(402,963,o),
(417,936.5,q),
(432,910,o),
(435,881,q),
(438,852,o),
(438,832,q),
(447,861,o),
(466.5,891,q),
(486,921,o),
(516,945,q),
(546,969,o),
(585,984.5,q),
(624,1000,o),
(672,1000,q),
(738,1000,o),
(800,968,q),
(862,936,o),
(906,864,q),
(921,898,o),
(950,923.5,q),
(979,949,o),
(1016,966,q),
(1053,983,o),
(1095,991.5,q),
(1137,1000,o),
(1178,1000,q),
(1233,1000,o),
(1288,982,q),
(1343,964,o),
(1387,922,q),
(1431,880,o),
(1458.5,812.5,q),
(1486,745,o),
(1486,646,q),
(1486,226,l),
(1486,184,o),
(1481,143.5,q),
(1476,103,o),
(1460,71,q),
(1444,39,o),
(1413.5,19.5,q),
(1383,0,o),
(1332,0,q),
(1280,0,o),
(1249.5,19.5,q),
(1219,39,o),
(1203,71,q),
(1187,103,o),
(1182.5,143.5,q),
(1178,184,o),
(1178,226,q),
(1178,622,l),
(1178,649,o),
(1175,675,q),
(1172,701,o),
(1163,721,q),
(1154,741,o),
(1136,753.5,q),
(1118,766,o),
(1088,766,q),
(1056,766,o),
(1033.5,746,q),
(1011,726,o),
(996,691,q),
(981,656,o),
(973,607.5,q),
(965,559,o),
(962,502,q),
(962,226,l),
(962,184,o),
(957.5,143.5,q),
(953,103,o),
(937,71,q),
(921,39,o),
(890.5,19.5,q),
(860,0,o),
(808,0,q)
);
}
);
width = 1604;
}
);
unicode = 109;
},
{
glyphname = n;
layers = (
{
layerId = "ee3f1d96-5840-4730-b38c-b1c88b21a886";
name = Fore;
shapes = (
{
closed = 1;
nodes = (
(966,185,o),
(961,144,q),
(956,103,o),
(939.5,71,q),
(923,39,o),
(892.5,19.5,q),
(862,0,o),
(810,0,q),
(759,0,o),
(729,19.5,q),
(699,39,o),
(683,71,q),
(667,103,o),
(662.5,144,q),
(658,185,o),
(658,228,q),
(658,618,l),
(658,646,o),
(655.5,673,q),
(653,700,o),
(644,720.5,q),
(635,741,o),
(617.5,753.5,q),
(600,766,o),
(570,766,q),
(529,766,o),
(504,739,q),
(479,712,o),
(464.5,665,q),
(450,618,o),
(445,554.5,q),
(440,491,o),
(440,418,q),
(440,228,l),
(440,185,o),
(435,144,q),
(430,103,o),
(413.5,71,q),
(397,39,o),
(366.5,19.5,q),
(336,0,o),
(284,0,q),
(233,0,o),
(203,19.5,q),
(173,39,o),
(157,71,q),
(141,103,o),
(136.5,144,q),
(132,185,o),
(132,228,q),
(132,774,l),
(132,817,o),
(135,857.5,q),
(138,898,o),
(153,929.5,q),
(168,961,o),
(198.5,980.5,q),
(229,1000,o),
(284,1000,q),
(339,1000,o),
(370,981.5,q),
(401,963,o),
(416.5,937,q),
(432,911,o),
(436,882,q),
(440,853,o),
(440,832,q),
(448,861,o),
(465,891,q),
(482,921,o),
(508.5,945,q),
(535,969,o),
(572,984.5,q),
(609,1000,o),
(658,1000,q),
(713,1000,o),
(768,982,q),
(823,964,o),
(867,922,q),
(911,880,o),
(938.5,812,q),
(966,744,o),
(966,644,q),
(966,228,l)
);
}
);
width = 1082;
}
);
unicode = 110;
},
{
glyphname = o;
layers = (
{
layerId = "ee3f1d96-5840-4730-b38c-b1c88b21a886";
name = Fore;
shapes = (
{
closed = 1;
nodes = (
(78,716,o),
(103,780,q),
(128,844,o),
(167.5,887,q),
(207,930,o),
(255.5,954,q),
(304,978,o),
(351,990,q),
(398,1002,o),
(438.5,1005,q),
(479,1008,o),
(502,1008,q),
(525,1008,o),
(565,1005,q),
(605,1002,o),
(650.5,990,q),
(696,978,o),
(742.5,954,q),
(789,930,o),
(826.5,887,q),
(864,844,o),
(888,780,q),
(912,716,o),
(912,624,q),
(912,376,l),
(912,284,o),
(888,220,q),
(864,156,o),
(826.5,113,q),
(789,70,o),
(742.5,46,q),
(696,22,o),
(650.5,10,q),
(605,-2,o),
(565,-5,q),
(525,-8,o),
(502,-8,q),
(479,-8,o),
(438.5,-5,q),
(398,-2,o),
(351,10,q),
(304,22,o),
(255.5,46,q),
(207,70,o),
(167.5,113,q),
(128,156,o),
(103,220,q),
(78,284,o),
(78,376,q),
(78,624,l)
);
},
{
closed = 1;
nodes = (
(387,277,o),
(400,255,q),
(411,235,o),
(434.5,219.5,q),
(458,204,o),
(502,204,q),
(544,204,o),
(566.5,219.5,q),
(589,235,o),
(600,255,q),
(612,277,o),
(614,306,q),
(614,668,l),
(612,698,o),
(600,723,q),
(589,743,o),
(566.5,760.5,q),
(544,778,o),
(502,778,q),
(458,778,o),
(434.5,760.5,q),
(411,743,o),
(400,723,q),
(387,698,o),
(386,668,q),
(386,306,l)
);
}
);
width = 990;
}
);
unicode = 111;
},
{
glyphname = p;
layers = (
{
layerId = "ee3f1d96-5840-4730-b38c-b1c88b21a886";
name = Fore;
shapes = (
{
closed = 1;
nodes = (
(132,816,o),
(135,856.5,q),
(138,897,o),
(153,929,q),
(168,961,o),
(198,980.5,q),
(228,1000,o),
(282,1000,q),
(337,1000,o),
(368,981.5,q),
(399,963,o),
(414,936.5,q),
(429,910,o),
(432.5,881,q),
(436,852,o),
(436,832,q),
(445,861,o),
(461.5,891,q),
(478,921,o),
(504,945,q),
(530,969,o),
(566.5,984.5,q),
(603,1000,o),
(652,1000,q),
(707,1000,o),
(762,982,q),
(817,964,o),
(861,922,q),
(905,880,o),
(932.5,812.5,q),
(960,745,o),
(960,646,q),
(960,356,l),
(960,256,o),
(932.5,188.5,q),
(905,121,o),
(861,79.5,q),
(817,38,o),
(762,20,q),
(707,2,o),
(652,2,q),
(603,2,o),
(566.5,17,q),
(530,32,o),
(504,56,q),
(478,80,o),
(461.5,110,q),
(445,140,o),
(436,170,q),
(436,-172,l),
(436,-216,o),
(431.5,-257,q),
(427,-298,o),
(411.5,-329.5,q),
(396,-361,o),
(365,-380.5,q),
(334,-400,o),
(282,-400,q),
(232,-400,o),
(202,-380.5,q),
(172,-361,o),
(156.5,-329.5,q),
(141,-298,o),
(136.5,-257,q),
(132,-216,o),
(132,-172,q),
(132,774,l)
);
},
{
closed = 1;
nodes = (
(652,647,o),
(650,673,q),
(648,699,o),
(639,720,q),
(630,741,o),
(612.5,753.5,q),
(595,766,o),
(564,766,q),
(525,766,o),
(500.5,748.5,q),
(476,731,o),
(462,694.5,q),
(448,658,o),
(442.5,602,q),
(437,546,o),
(436,470,q),
(436,438,o),
(441.5,397.5,q),
(447,357,o),
(461,321,q),
(475,285,o),
(500,260.5,q),
(525,236,o),
(564,236,q),
(595,236,o),
(612.5,248.5,q),
(630,261,o),
(639,281,q),
(648,301,o),
(650,326.5,q),
(652,352,o),
(652,378,q),
(652,620,l)
);
}
);
width = 1062;
}
);
unicode = 112;
},
{
glyphname = q;
layers = (
{
layerId = "ee3f1d96-5840-4730-b38c-b1c88b21a886";
name = Fore;
shapes = (
{
closed = 1;
nodes = (
(932,-216,o),
(927.5,-257,q),
(923,-298,o),
(907.5,-329.5,q),
(892,-361,o),
(862,-380.5,q),
(832,-400,o),
(782,-400,q),
(729,-400,o),
(698.5,-380.5,q),
(668,-361,o),
(652.5,-329.5,q),
(637,-298,o),
(632.5,-257,q),
(628,-216,o),
(628,-172,q),
(628,170,l),
(619,140,o),
(602.5,110,q),
(586,80,o),
(560,56,q),
(534,32,o),
(497.5,17,q),
(461,2,o),
(412,2,q),
(357,2,o),
(302,20,q),
(247,38,o),
(203,79.5,q),
(159,121,o),
(131.5,188.5,q),
(104,256,o),
(104,356,q),
(104,646,l),
(104,745,o),
(131.5,812.5,q),
(159,880,o),
(203,922,q),
(247,964,o),
(302,982,q),
(357,1000,o),
(412,1000,q),
(461,1000,o),
(497.5,984.5,q),
(534,969,o),
(560,945,q),
(586,921,o),
(602.5,891,q),
(619,861,o),
(628,832,q),
(628,852,o),
(631.5,881,q),
(635,910,o),
(650,936.5,q),
(665,963,o),
(696,981.5,q),
(727,1000,o),
(782,1000,q),
(836,1000,o),
(866,980.5,q),
(896,961,o),
(911,929,q),
(926,897,o),
(929,856.5,q),
(932,816,o),
(932,774,q),
(932,-172,l)
);
},
{
closed = 1;
nodes = (
(412,352,o),
(414,326.5,q),
(416,301,o),
(425,281,q),
(434,261,o),
(451.5,248.5,q),
(469,236,o),
(500,236,q),
(539,236,o),
(564,260.5,q),
(589,285,o),
(603,321,q),
(617,357,o),
(622.5,397.5,q),
(628,438,o),
(628,470,q),
(627,546,o),
(621.5,602,q),
(616,658,o),
(602,694.5,q),
(588,731,o),
(563.5,748.5,q),
(539,766,o),
(500,766,q),
(469,766,o),
(451.5,753.5,q),
(434,741,o),
(425,720,q),
(416,699,o),
(414,673,q),
(412,647,o),
(412,620,q),
(412,378,l)
);
}
);
width = 1062;
}
);
unicode = 113;
},
{
glyphname = r;
layers = (
{
layerId = "ee3f1d96-5840-4730-b38c-b1c88b21a886";
name = Fore;
shapes = (
{
closed = 1;
nodes = (
(770,772,o),
(731.5,736,q),
(693,700,o),
(622,700,q),
(612,700,o),
(593.5,698.5,q),
(575,697,o),
(554,690.5,q),
(533,684,o),
(511.5,671.5,q),
(490,659,o),
(472,637.5,q),
(454,616,o),
(443,583,q),
(432,550,o),
(432,504,q),
(432,218,l),
(432,177,o),
(427.5,138,q),
(423,99,o),
(407,68.5,q),
(391,38,o),
(361,19,q),
(331,0,o),
(280,0,q),
(230,0,o),
(201,19,q),
(172,38,o),
(156.5,68.5,q),
(141,99,o),
(136.5,138,q),
(132,177,o),
(132,218,q),
(132,778,l),
(132,820,o),
(136.5,859.5,q),
(141,899,o),
(156.5,930,q),
(172,961,o),
(201,979.5,q),
(230,998,o),
(280,998,q),
(331,998,o),
(358.5,975.5,q),
(386,953,o),
(399,917.5,q),
(412,882,o),
(414,838.5,q),
(416,795,o),
(416,754,q),
(432,754,l),
(446,810,o),
(469,855.5,q),
(492,901,o),
(520,932.5,q),
(548,964,o),
(580,981,q),
(612,998,o),
(644,998,q),
(683,998,o),
(707.5,989.5,q),
(732,981,o),
(746,963,q),
(760,945,o),
(765,917,q),
(770,889,o),
(770,850,q)
);
}
);
width = 792;
}
);
unicode = 114;
},
{
glyphname = s;
layers = (
{
layerId = "ee3f1d96-5840-4730-b38c-b1c88b21a886";
name = Fore;
shapes = (
{
closed = 1;
nodes = (
(386,718,o),
(399,701,q),
(412,684,o),
(434.5,668.5,q),
(457,653,o),
(486.5,638,q),
(516,623,o),
(548,608,q),
(597,584,o),
(648,556.5,q),
(699,529,o),
(741,492,q),
(783,455,o),
(809.5,406.5,q),
(836,358,o),
(836,292,q),
(836,232,o),
(818.5,186,q),
(801,140,o),
(772,106.5,q),
(743,73,o),
(704.5,51,q),
(666,29,o),
(623.5,16,q),
(581,3,o),
(537,-2.5,q),
(493,-8,o),
(454,-8,q),
(377,-8,o),
(320,5,q),
(263,18,o),
(222,39.5,q),
(181,61,o),
(154.5,88.5,q),
(128,116,o),
(113,146,q),
(98,176,o),
(92,205.5,q),
(86,235,o),
(86,260,q),
(86,320,o),
(119.5,348,q),
(153,376,o),
(222,376,q),
(272,376,o),
(304,349,q),
(336,322,o),
(338,262,q),
(339,242,o),
(349.5,230,q),
(360,218,o),
(376.5,210.5,q),
(393,203,o),
(413,200.5,q),
(433,198,o),
(452,198,q),
(491,198,o),
(515.5,218.5,q),
(540,239,o),
(540,272,q),
(540,300,o),
(523.5,324.5,q),
(507,349,o),
(480,370,q),
(453,391,o),
(418.5,410.5,q),
(384,430,o),
(348,450,q),
(303,474,o),
(257.5,501,q),
(212,528,o),
(175,561,q),
(138,594,o),
(115,635.5,q),
(92,677,o),
(92,730,q),
(92,808,o),
(117.5,860.5,q),
(143,913,o),
(192,945.5,q),
(241,978,o),
(311.5,992,q),
(382,1006,o),
(472,1008,q),
(488,1008,l),
(569,1008,o),
(625.5,994,q),
(682,980,o),
(719.5,957.5,q),
(757,935,o),
(778.5,907,q),
(800,879,o),
(810.5,850.5,q),
(821,822,o),
(823.5,796,q),
(826,770,o),
(826,752,q),
(826,722,o),
(813.5,702.5,q),
(801,683,o),
(780.5,671.5,q),
(760,660,o),
(734,655.5,q),
(708,651,o),
(680,650,q),
(656,650,o),
(636.5,658,q),
(617,666,o),
(603,678,q),
(589,690,o),
(581.5,705,q),
(574,720,o),
(574,734,q),
(572,772,o),
(543.5,792,q),
(515,812,o),
(474,812,q),
(457,812,o),
(441.5,808.5,q),
(426,805,o),
(413.5,796.5,q),
(401,788,o),
(393.5,774,q),
(386,760,o),
(386,738,q)
);
}
);
width = 910;
}
);
unicode = 115;
},
{
glyphname = t;
layers = (
{
layerId = "ee3f1d96-5840-4730-b38c-b1c88b21a886";
name = Fore;
shapes = (
{
closed = 1;
nodes = (
(258,1176,l),
(258,1218,o),
(262.5,1258,q),
(267,1298,o),
(283,1329.5,q),
(299,1361,o),
(329,1380.5,q),
(359,1400,o),
(410,1400,q),
(460,1400,o),
(490,1380.5,q),
(520,1361,o),
(535.5,1329.5,q),
(551,1298,o),
(555.5,1258,q),
(560,1218,o),
(560,1176,q),
(560,1000,l),
(642,1000,l),
(668,1000,o),
(694,997.5,q),
(720,995,o),
(740.5,983,q),
(761,971,o),
(773.5,947,q),
(786,923,o),
(786,880,q),
(786,839,o),
(773.5,815,q),
(761,791,o),
(740.5,779,q),
(720,767,o),
(694,763.5,q),
(668,760,o),
(642,760,q),
(560,760,l),
(560,410,l),
(560,390,o),
(561.5,367.5,q),
(563,345,o),
(572,326,q),
(581,307,o),
(599,294.5,q),
(617,282,o),
(650,282,q),
(686,282,o),
(711.5,276.5,q),
(737,271,o),
(753.5,257,q),
(770,243,o),
(778,218,q),
(786,193,o),
(786,154,q),
(786,114,o),
(767.5,85,q),
(749,56,o),
(718,37,q),
(687,18,o),
(646,9,q),
(605,0,o),
(560,0,q),
(489,0,o),
(438.5,15,q),
(388,30,o),
(354.5,57.5,q),
(321,85,o),
(301.5,123.5,q),
(282,162,o),
(272.5,210,q),
(263,258,o),
(260.5,313.5,q),
(258,369,o),
(258,430,q),
(258,760,l),
(202,760,l),
(176,760,o),
(150.5,763.5,q),
(125,767,o),
(105,779,q),
(85,791,o),
(72.5,815,q),
(60,839,o),
(60,880,q),
(60,923,o),
(72.5,947,q),
(85,971,o),
(105,983,q),
(125,995,o),
(150.5,997.5,q),
(176,1000,o),
(202,1000,q),
(258,1000,l)
);
}
);
width = 870;
}
);
unicode = 116;
},
{
glyphname = u;
layers = (
{
layerId = "ee3f1d96-5840-4730-b38c-b1c88b21a886";
name = Fore;
shapes = (
{
closed = 1;
nodes = (
(118,815,o),
(123,856,q),
(128,897,o),
(144.5,929,q),
(161,961,o),
(191.5,980.5,q),
(222,1000,o),
(274,1000,q),
(325,1000,o),
(355,980.5,q),
(385,961,o),
(401,929,q),
(417,897,o),
(421.5,856,q),
(426,815,o),
(426,772,q),
(426,382,l),
(426,353,o),
(428.5,326.5,q),
(431,300,o),
(440,279.5,q),
(449,259,o),
(466.5,246.5,q),
(484,234,o),
(514,234,q),
(554,234,o),
(579.5,261,q),
(605,288,o),
(619.5,335,q),
(634,382,o),
(639,445.5,q),
(644,509,o),
(644,582,q),
(644,772,l),
(644,815,o),
(649,856,q),
(654,897,o),
(670.5,929,q),
(687,961,o),
(717.5,980.5,q),
(748,1000,o),
(800,1000,q),
(851,1000,o),
(881,980.5,q),
(911,961,o),
(927,929,q),
(943,897,o),
(947.5,856,q),
(952,815,o),
(952,772,q),
(952,226,l),
(952,183,o),
(949,142.5,q),
(946,102,o),
(931,70.5,q),
(916,39,o),
(885.5,19.5,q),
(855,0,o),
(800,0,q),
(745,0,o),
(714,18.5,q),
(683,37,o),
(667.5,63,q),
(652,89,o),
(648,118,q),
(644,147,o),
(644,168,q),
(636,139,o),
(619,109,q),
(602,79,o),
(575.5,55,q),
(549,31,o),
(512,15.5,q),
(475,0,o),
(426,0,q),
(371,0,o),
(316,18,q),
(261,36,o),
(217,78,q),
(173,120,o),
(145.5,188,q),
(118,256,o),
(118,356,q),
(118,772,l)
);
}
);
width = 1076;
}
);
unicode = 117;
},
{
glyphname = v;
layers = (
{
layerId = "ee3f1d96-5840-4730-b38c-b1c88b21a886";
name = Fore;
shapes = (
{
closed = 1;
nodes = (
(576,98,o),
(557,66.5,q),
(538,35,o),
(520,20,q),
(502,5,o),
(484,2.5,q),
(466,0,o),
(446,0,q),
(424,0,o),
(405,2.5,q),
(386,5,o),
(367,19.5,q),
(348,34,o),
(328,65.5,q),
(308,97,o),
(286,156,q),
(60,748,l),
(51,772,o),
(43.5,799.5,q),
(36,827,o),
(36,854,q),
(36,883,o),
(43.5,909.5,q),
(51,936,o),
(68,956,q),
(85,976,o),
(112,988,q),
(139,1000,o),
(178,1000,q),
(206,1000,o),
(229.5,988,q),
(253,976,o),
(271.5,956,q),
(290,936,o),
(304,910,q),
(318,884,o),
(326,856,q),
(438,492,l),
(454,492,l),
(558,856,l),
(565,881,o),
(578,907,q),
(591,933,o),
(609.5,953.5,q),
(628,974,o),
(653.5,987,q),
(679,1000,o),
(712,1000,q),
(748,1000,o),
(773,987.5,q),
(798,975,o),
(814,954.5,q),
(830,934,o),
(837,907,q),
(844,880,o),
(844,852,q),
(844,826,o),
(837.5,800,q),
(831,774,o),
(820,748,q),
(598,156,l)
);
}
);
width = 876;
}
);
unicode = 118;
},
{
glyphname = w;
layers = (
{
layerId = "ee3f1d96-5840-4730-b38c-b1c88b21a886";
name = Fore;
shapes = (
{
closed = 1;
nodes = (
(748,884,o),
(785.5,853.5,q),
(823,823,o),
(852,744,q),
(958,462,l),
(974,462,l),
(1086,854,l),
(1094,882,o),
(1106.5,908,q),
(1119,934,o),
(1137,954.5,q),
(1155,975,o),
(1180,987.5,q),
(1205,1000,o),
(1240,1000,q),
(1276,1000,o),
(1301,987,q),
(1326,974,o),
(1342,953,q),
(1358,932,o),
(1365,905,q),
(1372,878,o),
(1372,850,q),
(1372,823,o),
(1364.5,797.5,q),
(1357,772,o),
(1348,746,q),
(1126,156,l),
(1103,97,o),
(1084.5,65.5,q),
(1066,34,o),
(1048,19.5,q),
(1030,5,o),
(1012,2.5,q),
(994,0,o),
(974,0,q),
(952,0,o),
(932.5,2.5,q),
(913,5,o),
(893.5,19.5,q),
(874,34,o),
(854,65.5,q),
(834,97,o),
(812,156,q),
(708,516,l),
(692,516,l),
(584,156,l),
(562,97,o),
(543.5,65.5,q),
(525,34,o),
(507.5,19.5,q),
(490,5,o),
(472,2.5,q),
(454,0,o),
(434,0,q),
(412,0,o),
(392.5,2.5,q),
(373,5,o),
(353.5,19.5,q),
(334,34,o),
(314,65.5,q),
(294,97,o),
(272,156,q),
(48,746,l),
(39,770,o),
(31.5,797.5,q),
(24,825,o),
(24,852,q),
(24,881,o),
(31.5,908,q),
(39,935,o),
(55.5,955.5,q),
(72,976,o),
(99,988,q),
(126,1000,o),
(166,1000,q),
(194,1000,o),
(216.5,987.5,q),
(239,975,o),
(257,954.5,q),
(275,934,o),
(288,908,q),
(301,882,o),
(310,854,q),
(436,462,l),
(452,462,l),
(544,744,l),
(569,823,o),
(610.5,853.5,q),
(652,884,o),
(700,884,q)
);
}
);
width = 1396;
}
);
unicode = 119;
},
{
glyphname = x;
layers = (
{
layerId = "ee3f1d96-5840-4730-b38c-b1c88b21a886";
name = Fore;
shapes = (
{
closed = 1;
nodes = (
(745,1000,o),
(764,994,q),
(783,988,o),
(804,974,q),
(834,954,o),
(847,931,q),
(860,908,o),
(860,882,q),
(860,849,o),
(844,813,q),
(828,777,o),
(804,744,q),
(626,500,l),
(804,258,l),
(827,223,o),
(843.5,188,q),
(860,153,o),
(860,120,q),
(860,94,o),
(847,70,q),
(834,46,o),
(804,26,q),
(764,0,o),
(730,0,q),
(709,0,o),
(690.5,9,q),
(672,18,o),
(655.5,33,q),
(639,48,o),
(623.5,68,q),
(608,88,o),
(592,110,q),
(472,278,l),
(348,110,l),
(334,87,o),
(319,67,q),
(304,47,o),
(287.5,32,q),
(271,17,o),
(253,8.5,q),
(235,0,o),
(214,0,q),
(180,0,o),
(140,26,q),
(110,47,o),
(97,70.5,q),
(84,94,o),
(84,120,q),
(84,153,o),
(100.5,188,q),
(117,223,o),
(140,258,q),
(308,500,l),
(140,744,l),
(117,779,o),
(100.5,813,q),
(84,847,o),
(84,880,q),
(84,906,o),
(97,929.5,q),
(110,953,o),
(140,974,q),
(180,1000,o),
(214,1000,q),
(235,1000,o),
(253,991.5,q),
(271,983,o),
(287.5,968,q),
(304,953,o),
(319,933.5,q),
(334,914,o),
(348,892,q),
(472,724,l),
(592,892,l),
(607,914,o),
(622,933.5,q),
(637,953,o),
(653.5,968,q),
(670,983,o),
(688.5,991.5,q),
(707,1000,o),
(728,1000,q)
);
}
);
width = 938;
}
);
unicode = 120;
},
{
glyphname = y;
layers = (
{
layerId = "ee3f1d96-5840-4730-b38c-b1c88b21a886";
name = Fore;
shapes = (
{
closed = 1;
nodes = (
(116,-400,o),
(68,-367.5,q),
(20,-335,o),
(20,-272,q),
(20,-241,o),
(28.5,-220,q),
(37,-199,o),
(52,-186,q),
(67,-173,o),
(86.5,-167.5,q),
(106,-162,o),
(128,-162,q),
(143,-162,o),
(156,-163,q),
(169,-164,o),
(178,-164,q),
(197,-164,o),
(214.5,-141.5,q),
(232,-119,o),
(248.5,-85,q),
(265,-51,o),
(282,-12,q),
(299,27,o),
(316,60,q),
(300,100,l),
(271,173,o),
(239,253.5,q),
(207,334,o),
(175.5,416.5,q),
(144,499,o),
(113.5,581,q),
(83,663,o),
(58,740,q),
(47,772,o),
(39.5,803,q),
(32,834,o),
(32,864,q),
(32,893,o),
(44,918,q),
(56,943,o),
(77,961,q),
(98,979,o),
(125.5,989.5,q),
(153,1000,o),
(184,1000,q),
(212,1000,o),
(235.5,988,q),
(259,976,o),
(277.5,955,q),
(296,934,o),
(310,907,q),
(324,880,o),
(334,850,q),
(468,428,l),
(596,850,l),
(605,878,o),
(619,906,q),
(633,934,o),
(652,955.5,q),
(671,977,o),
(695,990.5,q),
(719,1004,o),
(748,1004,q),
(777,1004,o),
(803.5,993,q),
(830,982,o),
(849.5,962.5,q),
(869,943,o),
(880.5,916,q),
(892,889,o),
(892,858,q),
(892,828,o),
(884.5,798.5,q),
(877,769,o),
(866,740,q),
(626,104,l),
(605,50,o),
(580.5,-8.5,q),
(556,-67,o),
(527,-123,q),
(498,-179,o),
(465,-229,q),
(432,-279,o),
(395,-317,q),
(358,-355,o),
(316.5,-377.5,q),
(275,-400,o),
(230,-400,q)
);
}
);
width = 916;
}
);
unicode = 121;
},
{
glyphname = z;
layers = (
{
layerId = "ee3f1d96-5840-4730-b38c-b1c88b21a886";
name = Fore;
shapes = (
{
closed = 1;
nodes = (
(682,1000,o),
(715,995,q),
(748,990,o),
(775.5,976.5,q),
(803,963,o),
(821.5,938.5,q),
(840,914,o),
(840,876,q),
(840,859,o),
(834.5,842,q),
(829,825,o),
(821,807.5,q),
(813,790,o),
(803.5,773,q),
(794,756,o),
(786,740,q),
(438,254,l),
(658,254,l),
(693,254,o),
(726.5,250.5,q),
(760,247,o),
(786,234,q),
(812,221,o),
(828,196,q),
(844,171,o),
(844,128,q),
(844,86,o),
(828,60.5,q),
(812,35,o),
(786,21.5,q),
(760,8,o),
(726.5,4,q),
(693,0,o),
(658,0,q),
(264,0,l),
(234,0,o),
(201,4,q),
(168,8,o),
(140,21,q),
(112,34,o),
(94,58,q),
(76,82,o),
(76,122,q),
(76,158,o),
(93.5,194,q),
(111,230,o),
(132,260,q),
(478,748,l),
(258,748,l),
(223,748,o),
(190,751.5,q),
(157,755,o),
(130.5,768,q),
(104,781,o),
(88,805.5,q),
(72,830,o),
(72,872,q),
(72,915,o),
(88,940,q),
(104,965,o),
(130.5,978.5,q),
(157,992,o),
(190,996,q),
(223,1000,o),
(258,1000,q),
(654,1000,l)
);
}
);
width = 916;
}
);
unicode = 122;
},
{
glyphname = braceleft;
layers = (
{
layerId = "ee3f1d96-5840-4730-b38c-b1c88b21a886";
name = Fore;
shapes = (
{
closed = 1;
nodes = (
(831,1566,o),
(857.5,1557,q),
(884,1548,o),
(900.5,1532,q),
(917,1516,o),
(924.5,1495,q),
(932,1474,o),
(932,1450,q),
(932,1402,o),
(901.5,1368,q),
(871,1334,o),
(802,1334,q),
(757,1332,o),
(722,1313,q),
(707,1305,o),
(692.5,1292,q),
(678,1279,o),
(667,1260.5,q),
(656,1242,o),
(649,1216,q),
(642,1190,o),
(642,1156,q),
(642,1018,l),
(642,948,o),
(627,893.5,q),
(612,839,o),
(591.5,801,q),
(571,763,o),
(550,741.5,q),
(529,720,o),
(518,716,q),
(529,712,o),
(550,690.5,q),
(571,669,o),
(591.5,630.5,q),
(612,592,o),
(627,537.5,q),
(642,483,o),
(642,414,q),
(642,238,l),
(642,207,o),
(649,183.5,q),
(656,160,o),
(667,142.5,q),
(678,125,o),
(692.5,113,q),
(707,101,o),
(722,93,q),
(757,75,o),
(802,72,q),
(871,72,o),
(901.5,38,q),
(932,4,o),
(932,-44,q),
(932,-68,o),
(923.5,-89,q),
(915,-110,o),
(894,-126,q),
(873,-142,o),
(838,-151,q),
(803,-160,o),
(750,-160,q),
(641,-154,o),
(556,-108,q),
(520,-89,o),
(485,-58.5,q),
(450,-28,o),
(422.5,15.5,q),
(395,59,o),
(378.5,118.5,q),
(362,178,o),
(362,256,q),
(362,444,l),
(362,490,o),
(352.5,520.5,q),
(343,551,o),
(328,570.5,q),
(313,590,o),
(294,602,q),
(275,614,o),
(256,624,q),
(242,632,o),
(229.5,640,q),
(217,648,o),
(208,658.5,q),
(199,669,o),
(193.5,682.5,q),
(188,696,o),
(188,716,q),
(188,755,o),
(207.5,773,q),
(227,791,o),
(256,806,q),
(275,816,o),
(294,828,q),
(313,840,o),
(328,859.5,q),
(343,879,o),
(352.5,910,q),
(362,941,o),
(362,988,q),
(362,1204,l),
(362,1295,o),
(395.5,1363,q),
(429,1431,o),
(487.5,1476,q),
(546,1521,o),
(624.5,1543.5,q),
(703,1566,o),
(794,1566,q)
);
}
);
width = 1012;
}
);
unicode = 123;
},
{
glyphname = bar;
layers = (
{
layerId = "ee3f1d96-5840-4730-b38c-b1c88b21a886";
name = Fore;
shapes = (
{
closed = 1;
nodes = (
(424,-44,o),
(420.5,-70,q),
(417,-96,o),
(404.5,-116,q),
(392,-136,o),
(368,-148,q),
(344,-160,o),
(304,-160,q),
(260,-160,o),
(235,-148,q),
(210,-136,o),
(198,-116,q),
(186,-96,o),
(183,-70,q),
(180,-44,o),
(180,-16,q),
(180,1422,l),
(180,1447,o),
(183,1473,q),
(186,1499,o),
(198,1519.5,q),
(210,1540,o),
(235,1553,q),
(260,1566,o),
(304,1566,q),
(344,1566,o),
(368,1553,q),
(392,1540,o),
(404.5,1519.5,q),
(417,1499,o),
(420.5,1473,q),
(424,1447,o),
(424,1422,q),
(424,40,l),
(424,-16,l)
);
}
);
width = 604;
}
);
unicode = 124;
},
{
glyphname = braceright;
layers = (
{
layerId = "ee3f1d96-5840-4730-b38c-b1c88b21a886";
name = Fore;
shapes = (
{
closed = 1;
nodes = (
(824,696,o),
(818.5,682.5,q),
(813,669,o),
(804,658.5,q),
(795,648,o),
(782.5,640,q),
(770,632,o),
(756,624,q),
(738,614,o),
(719,602,q),
(700,590,o),
(685,570.5,q),
(670,551,o),
(660,520.5,q),
(650,490,o),
(650,444,q),
(650,256,l),
(650,178,o),
(633.5,118.5,q),
(617,59,o),
(589.5,15.5,q),
(562,-28,o),
(527,-58.5,q),
(492,-89,o),
(456,-108,q),
(371,-154,o),
(262,-160,q),
(209,-160,o),
(174,-151,q),
(139,-142,o),
(118,-126,q),
(97,-110,o),
(88.5,-89,q),
(80,-68,o),
(80,-44,q),
(80,-20,o),
(87.5,1,q),
(95,22,o),
(111,38,q),
(127,54,o),
(152,63,q),
(177,72,o),
(212,72,q),
(256,75,o),
(291,93,q),
(306,101,o),
(320,113,q),
(334,125,o),
(345,142.5,q),
(356,160,o),
(363,183.5,q),
(370,207,o),
(370,238,q),
(370,414,l),
(370,483,o),
(385.5,537.5,q),
(401,592,o),
(422,630.5,q),
(443,669,o),
(464,690.5,q),
(485,712,o),
(496,716,q),
(485,720,o),
(464,741.5,q),
(443,763,o),
(422,801,q),
(401,839,o),
(385.5,893.5,q),
(370,948,o),
(370,1018,q),
(370,1156,l),
(370,1190,o),
(363,1216,q),
(356,1242,o),
(345,1260.5,q),
(334,1279,o),
(320,1292,q),
(306,1305,o),
(291,1313,q),
(256,1332,o),
(212,1334,q),
(177,1334,o),
(152,1343,q),
(127,1352,o),
(111,1368,q),
(95,1384,o),
(87.5,1405,q),
(80,1426,o),
(80,1450,q),
(80,1474,o),
(87.5,1495,q),
(95,1516,o),
(111.5,1532,q),
(128,1548,o),
(155,1557,q),
(182,1566,o),
(220,1566,q),
(311,1566,o),
(389.5,1543.5,q),
(468,1521,o),
(526,1476,q),
(584,1431,o),
(617,1363,q),
(650,1295,o),
(650,1204,q),
(650,988,l),
(650,941,o),
(660,910,q),
(670,879,o),
(685,859.5,q),
(700,840,o),
(719,828,q),
(738,816,o),
(756,806,q),
(785,791,o),
(804.5,773,q),
(824,755,o),
(824,716,q)
);
}
);
width = 1012;
}
);
unicode = 125;
},
{
glyphname = asciitilde;
layers = (
{
layerId = "ee3f1d96-5840-4730-b38c-b1c88b21a886";
name = Fore;
shapes = (
{
closed = 1;
nodes = (
(402,169,o),
(387,174.5,q),
(372,180,o),
(360,180,q),
(342,180,o),
(324,167.5,q),
(306,155,o),
(280,128,q),
(265,111,o),
(248,100.5,q),
(231,90,o),
(216,90,q),
(198,90,o),
(173.5,101.5,q),
(149,113,o),
(134,134,q),
(112,159,o),
(112,186,q),
(112,207,o),
(126,231.5,q),
(140,256,o),
(172,286,q),
(246,352,l),
(270,373,o),
(294.5,385.5,q),
(319,398,o),
(348,398,q),
(369,398,o),
(389.5,390,q),
(410,382,o),
(434,370,q),
(477,348,o),
(503.5,335,q),
(530,322,o),
(545,315,q),
(560,308,o),
(566,306,q),
(572,304,o),
(576,304,q),
(591,304,o),
(606.5,314,q),
(622,324,o),
(640,344,q),
(657,359,o),
(675,369.5,q),
(693,380,o),
(714,380,q),
(728,378,o),
(741.5,371.5,q),
(755,365,o),
(772,348,q),
(790,330,o),
(796,313,q),
(802,296,o),
(802,278,q),
(800,266,o),
(793,253,q),
(786,240,o),
(776.5,227.5,q),
(767,215,o),
(756.5,204,q),
(746,193,o),
(738,186,q),
(703,150,o),
(679,129.5,q),
(655,109,o),
(638.5,99,q),
(622,89,o),
(611,86.5,q),
(600,84,o),
(590,84,q),
(582,84,o),
(572.5,85.5,q),
(563,87,o),
(545,94.5,q),
(527,102,o),
(498,117,q),
(469,132,o),
(422,158,q)
);
}
);
width = 918;
}
);
unicode = 126;
},
{
glyphname = exclamdown;
layers = (
{
layerId = "ee3f1d96-5840-4730-b38c-b1c88b21a886";
name = Fore;
shapes = (
{
closed = 1;
nodes = (
(302,843,o),
(305.5,873.5,q),
(309,904,o),
(321,927.5,q),
(333,951,o),
(355.5,965.5,q),
(378,980,o),
(416,980,q),
(454,980,o),
(476.5,965.5,q),
(499,951,o),
(511,927.5,q),
(523,904,o),
(526.5,873.5,q),
(530,843,o),
(530,812,q),
(582,488,l),
(582,220,l),
(582,178,o),
(575,138,q),
(568,98,o),
(550,67,q),
(532,36,o),
(499.5,17,q),
(467,-2,o),
(416,-2,q),
(365,-2,o),
(333,17,q),
(301,36,o),
(283,67.5,q),
(265,99,o),
(258.5,139.5,q),
(252,180,o),
(252,222,q),
(252,492,l),
(302,812,l)
);
},
{
closed = 1;
nodes = (
(252,1317,o),
(295,1357.5,q),
(338,1398,o),
(416,1398,q),
(496,1398,o),
(539,1357.5,q),
(582,1317,o),
(582,1232,q),
(582,1146,o),
(539,1107,q),
(496,1068,o),
(416,1068,q),
(333,1068,o),
(292.5,1107,q),
(252,1146,o),
(252,1232,q)
);
}
);
width = 808;
}
);
unicode = 161;
},
{
glyphname = cent;
layers = (
{
layerId = "ee3f1d96-5840-4730-b38c-b1c88b21a886";
name = Fore;
shapes = (
{
closed = 1;
nodes = (
(386,504,o),
(389,479.5,q),
(392,455,o),
(403,431.5,q),
(414,408,o),
(435.5,391,q),
(457,374,o),
(494,374,q),
(538,374,o),
(563,384,q),
(588,394,o),
(600,411.5,q),
(612,429,o),
(615,452.5,q),
(618,476,o),
(618,502,q),
(618,515,o),
(622.5,531.5,q),
(627,548,o),
(644,562.5,q),
(661,577,o),
(694.5,586.5,q),
(728,596,o),
(786,596,q),
(839,596,o),
(868,584,q),
(897,572,o),
(910.5,555.5,q),
(924,539,o),
(926,521.5,q),
(928,504,o),
(928,494,q),
(928,416,o),
(900,361,q),
(872,306,o),
(827,269,q),
(782,232,o),
(724,211.5,q),
(666,191,o),
(606,182,q),
(606,150,l),
(606,122,o),
(602.5,96,q),
(599,70,o),
(586.5,50,q),
(574,30,o),
(550,18,q),
(526,6,o),
(486,6,q),
(442,6,o),
(417,18,q),
(392,30,o),
(380,50,q),
(368,70,o),
(365,96,q),
(362,122,o),
(362,150,q),
(362,188,l),
(303,202,o),
(252,230.5,q),
(201,259,o),
(163.5,303,q),
(126,347,o),
(104,407.5,q),
(82,468,o),
(82,546,q),
(82,780,l),
(82,882,o),
(107.5,951,q),
(133,1020,o),
(173.5,1063.5,q),
(214,1107,o),
(263.5,1129.5,q),
(313,1152,o),
(362,1162,q),
(362,1240,l),
(362,1265,o),
(365,1291,q),
(368,1317,o),
(380,1337.5,q),
(392,1358,o),
(417,1371,q),
(442,1384,o),
(486,1384,q),
(526,1384,o),
(550,1371,q),
(574,1358,o),
(586.5,1337.5,q),
(599,1317,o),
(602.5,1291,q),
(606,1265,o),
(606,1240,q),
(606,1166,l),
(703,1152,o),
(765.5,1117.5,q),
(828,1083,o),
(863.5,1038.5,q),
(899,994,o),
(912.5,945,q),
(926,896,o),
(926,854,q),
(926,838,o),
(924,816.5,q),
(922,795,o),
(908.5,775.5,q),
(895,756,o),
(866,742,q),
(837,728,o),
(784,728,q),
(765,728,o),
(736.5,729.5,q),
(708,731,o),
(681,740,q),
(654,749,o),
(635,768,q),
(616,787,o),
(616,822,q),
(616,846,o),
(613.5,868.5,q),
(611,891,o),
(599,908,q),
(587,925,o),
(562.5,935.5,q),
(538,946,o),
(494,946,q),
(457,946,o),
(435.5,934,q),
(414,922,o),
(403,904,q),
(392,886,o),
(389,866,q),
(386,846,o),
(386,830,q),
(386,520,l)
);
}
);
width = 1000;
}
);
unicode = 162;
},
{
glyphname = sterling;
layers = (
{
layerId = "ee3f1d96-5840-4730-b38c-b1c88b21a886";
name = Fore;
shapes = (
{
closed = 1;
nodes = (
(488,282,l),
(764,282,l),
(803,282,o),
(842.5,278,q),
(882,274,o),
(914,260,q),
(946,246,o),
(966,218.5,q),
(986,191,o),
(986,144,q),
(986,94,o),
(966,65.5,q),
(946,37,o),
(914,22.5,q),
(882,8,o),
(842.5,4,q),
(803,0,o),
(764,0,q),
(348,0,l),
(296,0,o),
(264.5,18,q),
(233,36,o),
(216,66.5,q),
(199,97,o),
(193.5,137.5,q),
(188,178,o),
(188,224,q),
(188,498,l),
(178,498,l),
(150,498,o),
(124,501.5,q),
(98,505,o),
(78,517.5,q),
(58,530,o),
(46,553.5,q),
(34,577,o),
(34,618,q),
(34,662,o),
(46,687,q),
(58,712,o),
(78.5,724,q),
(99,736,o),
(125,739,q),
(151,742,o),
(180,742,q),
(188,742,l),
(188,992,l),
(188,1096,o),
(217.5,1167.5,q),
(247,1239,o),
(292.5,1285,q),
(338,1331,o),
(392.5,1356,q),
(447,1381,o),
(496,1392.5,q),
(545,1404,o),
(582,1406,q),
(619,1408,o),
(630,1408,q),
(740,1408,o),
(819,1383,q),
(898,1358,o),
(952.5,1318,q),
(1007,1278,o),
(1040,1227.5,q),
(1073,1177,o),
(1091,1125,q),
(1109,1073,o),
(1114.5,1025,q),
(1120,977,o),
(1120,942,q),
(1120,928,o),
(1117.5,908,q),
(1115,888,o),
(1100.5,869.5,q),
(1086,851,o),
(1055,837.5,q),
(1024,824,o),
(966,824,q),
(947,824,o),
(918.5,826.5,q),
(890,829,o),
(863,838.5,q),
(836,848,o),
(817,866,q),
(798,884,o),
(798,916,q),
(798,974,o),
(791,1020,q),
(784,1066,o),
(765,1098,q),
(746,1130,o),
(713.5,1147,q),
(681,1164,o),
(630,1164,q),
(577,1164,o),
(548,1141.5,q),
(519,1119,o),
(506,1092,q),
(490,1060,o),
(488,1020,q),
(488,742,l),
(620,742,l),
(645,742,o),
(671,739,q),
(697,736,o),
(717.5,724,q),
(738,712,o),
(751,687,q),
(764,662,o),
(764,618,q),
(764,577,o),
(751,553.5,q),
(738,530,o),
(717.5,517.5,q),
(697,505,o),
(671,501.5,q),
(645,498,o),
(620,498,q),
(488,498,l)
);
}
);
width = 1236;
}
);
unicode = 163;
},
{
glyphname = currency;
layers = (
{
layerId = "ee3f1d96-5840-4730-b38c-b1c88b21a886";
name = Fore;
shapes = (
{
closed = 1;
nodes = (
(906,559,o),
(900.5,525,q),
(895,491,o),
(886,462,q),
(952,398,l),
(976,374,o),
(994,349.5,q),
(1012,325,o),
(1012,296,q),
(1012,276,o),
(1002,255,q),
(992,234,o),
(966,208,q),
(943,185,o),
(923.5,175.5,q),
(904,166,o),
(884,166,q),
(855,166,o),
(829.5,184,q),
(804,202,o),
(780,226,q),
(716,288,l),
(656,270,o),
(580,270,q),
(504,270,o),
(444,288,q),
(380,226,l),
(356,202,o),
(330.5,184,q),
(305,166,o),
(276,166,q),
(256,166,o),
(236.5,175.5,q),
(217,185,o),
(194,208,q),
(168,234,o),
(158,255,q),
(148,276,o),
(148,296,q),
(148,325,o),
(166,349.5,q),
(184,374,o),
(208,398,q),
(270,460,l),
(252,520,o),
(252,598,q),
(252,675,o),
(270,732,q),
(206,798,l),
(183,821,o),
(165.5,846.5,q),
(148,872,o),
(148,902,q),
(148,922,o),
(157.5,941.5,q),
(167,961,o),
(190,984,q),
(214,1008,o),
(235,1019,q),
(256,1030,o),
(276,1030,q),
(306,1030,o),
(330.5,1011.5,q),
(355,993,o),
(378,970,q),
(442,904,l),
(472,915,o),
(506.5,919.5,q),
(541,924,o),
(580,924,q),
(658,924,o),
(718,906,q),
(782,970,l),
(805,993,o),
(829.5,1011.5,q),
(854,1030,o),
(884,1030,q),
(924,1030,o),
(970,984,q),
(993,961,o),
(1002.5,941.5,q),
(1012,922,o),
(1012,902,q),
(1012,872,o),
(994.5,846.5,q),
(977,821,o),
(954,798,q),
(888,732,l),
(906,675,o),
(906,598,q)
);
},
{
closed = 1;
nodes = (
(742,684,o),
(701.5,723,q),
(661,762,o),
(580,762,q),
(503,762,o),
(460.5,723,q),
(418,684,o),
(418,598,q),
(418,517,o),
(460.5,476.5,q),
(503,436,o),
(580,436,q),
(657,436,o),
(699.5,476.5,q),
(742,517,o),
(742,598,q)
);
}
);
width = 1192;
}
);
unicode = 164;
},
{
glyphname = yen;
layers = (
{
layerId = "ee3f1d96-5840-4730-b38c-b1c88b21a886";
name = Fore;
shapes = (
{
closed = 1;
nodes = (
(626,188,l),
(626,152,o),
(622.5,117.5,q),
(619,83,o),
(606.5,56,q),
(594,29,o),
(568.5,12.5,q),
(543,-4,o),
(500,-4,q),
(456,-4,o),
(430.5,12.5,q),
(405,29,o),
(392,56,q),
(379,83,o),
(375.5,117.5,q),
(372,152,o),
(372,188,q),
(372,330,l),
(304,330,l),
(276,330,o),
(250,333.5,q),
(224,337,o),
(204,349.5,q),
(184,362,o),
(172,385.5,q),
(160,409,o),
(160,450,q),
(160,494,o),
(172,519,q),
(184,544,o),
(204,556,q),
(224,568,o),
(250,571,q),
(276,574,o),
(304,574,q),
(372,574,l),
(372,702,l),
(114,1160,l),
(90,1198,o),
(76,1231,q),
(62,1264,o),
(62,1290,q),
(62,1313,o),
(75.5,1336,q),
(89,1359,o),
(122,1380,q),
(159,1400,o),
(194,1400,q),
(219,1400,o),
(240,1388.5,q),
(261,1377,o),
(278,1358.5,q),
(295,1340,o),
(308,1316.5,q),
(321,1293,o),
(332,1270,q),
(486,946,l),
(514,946,l),
(668,1270,l),
(678,1293,o),
(691.5,1316.5,q),
(705,1340,o),
(722,1358.5,q),
(739,1377,o),
(759.5,1388.5,q),
(780,1400,o),
(806,1400,q),
(841,1400,o),
(878,1380,q),
(911,1359,o),
(924.5,1336,q),
(938,1313,o),
(938,1290,q),
(938,1275,o),
(925,1240.5,q),
(912,1206,o),
(880,1152,q),
(626,702,l),
(626,574,l),
(696,574,l),
(721,574,o),
(747,571,q),
(773,568,o),
(793.5,556,q),
(814,544,o),
(827,519,q),
(840,494,o),
(840,450,q),
(840,409,o),
(827,385.5,q),
(814,362,o),
(793.5,349.5,q),
(773,337,o),
(747,333.5,q),
(721,330,o),
(696,330,q),
(626,330,l)
);
}
);
width = 1000;
}
);
unicode = 165;
},
{
glyphname = brokenbar;
layers = (
{
layerId = "ee3f1d96-5840-4730-b38c-b1c88b21a886";
name = Fore;
shapes = (
{
closed = 1;
nodes = (
(452,934,o),
(448.5,908,q),
(445,882,o),
(432.5,862,q),
(420,842,o),
(396,830,q),
(372,818,o),
(332,818,q),
(288,818,o),
(263,830,q),
(238,842,o),
(226,862,q),
(214,882,o),
(211,908,q),
(208,934,o),
(208,962,q),
(208,1422,l),
(208,1447,o),
(211,1473,q),
(214,1499,o),
(226,1519.5,q),
(238,1540,o),
(263,1553,q),
(288,1566,o),
(332,1566,q),
(372,1566,o),
(396,1553,q),
(420,1540,o),
(432.5,1519.5,q),
(445,1499,o),
(448.5,1473,q),
(452,1447,o),
(452,1422,q),
(452,1018,l),
(452,962,l)
);
},
{
closed = 1;
nodes = (
(452,-44,o),
(448.5,-70,q),
(445,-96,o),
(432.5,-116,q),
(420,-136,o),
(396,-148,q),
(372,-160,o),
(332,-160,q),
(288,-160,o),
(263,-148,q),
(238,-136,o),
(226,-116,q),
(214,-96,o),
(211,-70,q),
(208,-44,o),
(208,-16,q),
(208,442,l),
(208,467,o),
(211,493,q),
(214,519,o),
(226,539.5,q),
(238,560,o),
(263,573,q),
(288,586,o),
(332,586,q),
(372,586,o),
(396,573,q),
(420,560,o),
(432.5,539.5,q),
(445,519,o),
(448.5,493,q),
(452,467,o),
(452,442,q),
(452,40,l),
(452,-16,l)
);
}
);
width = 666;
}
);
unicode = 166;
},
{
glyphname = section;
layers = (
{
layerId = "ee3f1d96-5840-4730-b38c-b1c88b21a886";
name = Fore;
shapes = (
{
closed = 1;
nodes = (
(1004,560,o),
(994,514,q),
(984,468,o),
(966,431.5,q),
(948,395,o),
(924,367.5,q),
(900,340,o),
(872,320,q),
(897,303,o),
(920,281,q),
(943,259,o),
(959.5,233.5,q),
(976,208,o),
(986,179,q),
(996,150,o),
(996,120,q),
(996,11,o),
(966.5,-59.5,q),
(937,-130,o),
(881,-171.5,q),
(825,-213,o),
(743.5,-229.5,q),
(662,-246,o),
(558,-246,q),
(463,-246,o),
(397,-228,q),
(331,-210,o),
(287,-181,q),
(243,-152,o),
(218.5,-115,q),
(194,-78,o),
(182,-41,q),
(170,-4,o),
(167,30,q),
(164,64,o),
(164,88,q),
(164,123,o),
(176.5,148.5,q),
(189,174,o),
(209.5,190.5,q),
(230,207,o),
(256,214.5,q),
(282,222,o),
(308,222,q),
(333,222,o),
(357,212.5,q),
(381,203,o),
(400.5,188,q),
(420,173,o),
(432,153,q),
(444,133,o),
(444,112,q),
(444,71,o),
(451,42.5,q),
(458,14,o),
(472.5,-3.5,q),
(487,-21,o),
(508,-28.5,q),
(529,-36,o),
(558,-36,q),
(586,-36,o),
(611.5,-33.5,q),
(637,-31,o),
(656.5,-17.5,q),
(676,-4,o),
(688,25.5,q),
(700,55,o),
(700,108,q),
(700,136,o),
(688.5,160,q),
(677,184,o),
(659.5,201.5,q),
(642,219,o),
(620.5,229.5,q),
(599,240,o),
(580,242,q),
(556,242,o),
(516.5,244.5,q),
(477,247,o),
(431.5,258,q),
(386,269,o),
(339.5,292,q),
(293,315,o),
(255.5,357,q),
(218,399,o),
(194,462.5,q),
(170,526,o),
(170,618,q),
(170,626,l),
(170,682,o),
(179,727.5,q),
(188,773,o),
(204.5,809,q),
(221,845,o),
(243.5,872.5,q),
(266,900,o),
(292,920,q),
(266,936,o),
(242.5,958.5,q),
(219,981,o),
(201.5,1007.5,q),
(184,1034,o),
(174,1063.5,q),
(164,1093,o),
(164,1124,q),
(164,1233,o),
(193.5,1303.5,q),
(223,1374,o),
(279,1415.5,q),
(335,1457,o),
(416.5,1473.5,q),
(498,1490,o),
(602,1490,q),
(697,1490,o),
(763,1472,q),
(829,1454,o),
(873,1425,q),
(917,1396,o),
(941.5,1359,q),
(966,1322,o),
(978,1285,q),
(990,1248,o),
(993,1214,q),
(996,1180,o),
(996,1156,q),
(996,1121,o),
(983.5,1095.5,q),
(971,1070,o),
(950.5,1053.5,q),
(930,1037,o),
(904,1029.5,q),
(878,1022,o),
(852,1022,q),
(827,1022,o),
(803,1031.5,q),
(779,1041,o),
(759.5,1056,q),
(740,1071,o),
(728,1091,q),
(716,1111,o),
(716,1132,q),
(716,1214,o),
(687.5,1247,q),
(659,1280,o),
(602,1280,q),
(574,1280,o),
(548.5,1277.5,q),
(523,1275,o),
(503.5,1261.5,q),
(484,1248,o),
(472,1218.5,q),
(460,1189,o),
(460,1136,q),
(460,1106,o),
(472.5,1081.5,q),
(485,1057,o),
(503,1039,q),
(521,1021,o),
(542,1011.5,q),
(563,1002,o),
(580,1002,q),
(603,1002,o),
(643.5,999.5,q),
(684,997,o),
(731,986,q),
(778,975,o),
(826.5,952,q),
(875,929,o),
(914.5,887,q),
(954,845,o),
(979,781.5,q),
(1004,718,o),
(1004,626,q),
(1004,618,l)
);
},
{
closed = 1;
nodes = (
(693,724,o),
(681,747,q),
(670,766,o),
(647,782,q),
(624,798,o),
(580,798,q),
(538,798,o),
(515.5,782,q),
(493,766,o),
(482,747,q),
(470,724,o),
(468,696,q),
(468,574,l),
(470,543,o),
(482,519,q),
(493,498,o),
(515.5,481,q),
(538,464,o),
(580,464,q),
(624,464,o),
(647,481,q),
(670,498,o),
(681,519,q),
(693,543,o),
(696,574,q),
(696,696,l)
);
}
);
width = 1162;
}
);
unicode = 167;
},
{
glyphname = dieresis;
layers = (
{
layerId = "ee3f1d96-5840-4730-b38c-b1c88b21a886";
name = Fore;
shapes = (
{
closed = 1;
nodes = (
(400,1175,o),
(360,1137.5,q),
(320,1100,o),
(248,1100,q),
(176,1100,o),
(136,1137.5,q),
(96,1175,o),
(96,1252,q),
(96,1332,o),
(136,1368,q),
(176,1404,o),
(248,1404,q),
(325,1404,o),
(362.5,1368,q),
(400,1332,o),
(400,1252,q)
);
},
{
closed = 1;
nodes = (
(816,1175,o),
(776,1137.5,q),
(736,1100,o),
(664,1100,q),
(592,1100,o),
(552,1137.5,q),
(512,1175,o),
(512,1252,q),
(512,1332,o),
(552,1368,q),
(592,1404,o),
(664,1404,q),
(741,1404,o),
(778.5,1368,q),
(816,1332,o),
(816,1252,q)
);
}
);
width = 934;
}
);
unicode = 168;
},
{
glyphname = copyright;
layers = (
{
layerId = "ee3f1d96-5840-4730-b38c-b1c88b21a886";
name = Fore;
shapes = (
{
closed = 1;
nodes = (
(510,912,o),
(519.5,942.5,q),
(529,973,o),
(545,995.5,q),
(561,1018,o),
(581.5,1033.5,q),
(602,1049,o),
(623,1059,q),
(672,1083,o),
(736,1086,q),
(789,1086,o),
(827,1074,q),
(865,1062,o),
(891,1042.5,q),
(917,1023,o),
(932.5,998.5,q),
(948,974,o),
(956.5,949,q),
(965,924,o),
(967.5,900.5,q),
(970,877,o),
(970,860,q),
(970,852,o),
(969,841.5,q),
(968,831,o),
(960.5,821.5,q),
(953,812,o),
(937.5,805,q),
(922,798,o),
(894,798,q),
(884,798,o),
(870,799.5,q),
(856,801,o),
(842.5,806,q),
(829,811,o),
(819.5,820,q),
(810,829,o),
(810,844,q),
(810,871,o),
(807,893,q),
(804,915,o),
(796,930,q),
(788,945,o),
(773.5,953.5,q),
(759,962,o),
(736,962,q),
(713,962,o),
(700.5,952,q),
(688,942,o),
(683,930,q),
(676,916,o),
(676,898,q),
(676,598,l),
(676,577,o),
(683,560,q),
(688,546,o),
(700.5,534,q),
(713,522,o),
(736,522,q),
(759,522,o),
(773.5,531.5,q),
(788,541,o),
(796,557.5,q),
(804,574,o),
(807,594.5,q),
(810,615,o),
(810,638,q),
(810,647,o),
(812.5,655,q),
(815,663,o),
(823.5,669,q),
(832,675,o),
(848.5,678.5,q),
(865,682,o),
(894,682,q),
(922,682,o),
(937.5,675,q),
(953,668,o),
(960.5,659.5,q),
(968,651,o),
(969,644,q),
(970,637,o),
(970,636,q),
(970,583,o),
(952,541.5,q),
(934,500,o),
(901.5,470.5,q),
(869,441,o),
(824,425.5,q),
(779,410,o),
(726,410,q),
(717,410,o),
(697,411,q),
(677,412,o),
(653,418,q),
(629,424,o),
(603.5,436,q),
(578,448,o),
(557.5,470,q),
(537,492,o),
(523.5,525.5,q),
(510,559,o),
(510,608,q),
(510,872,l)
);
},
{
closed = 1;
nodes = (
(1228,1006,o),
(1103,1127,q),
(978,1248,o),
(728,1248,q),
(610,1248,o),
(517.5,1218.5,q),
(425,1189,o),
(361,1127,q),
(297,1065,o),
(263.5,969.5,q),
(230,874,o),
(230,742,q),
(230,619,o),
(263.5,526,q),
(297,433,o),
(361,371,q),
(425,309,o),
(517.5,277.5,q),
(610,246,o),
(728,246,q),
(846,246,o),
(938.5,277.5,q),
(1031,309,o),
(1095.5,371,q),
(1160,433,o),
(1194,526,q),
(1228,619,o),
(1228,742,q)
);
},
{
closed = 1;
nodes = (
(1316,595,o),
(1277.5,484.5,q),
(1239,374,o),
(1164,301,q),
(1089,228,o),
(980,192,q),
(871,156,o),
(730,156,q),
(589,156,o),
(478.5,192,q),
(368,228,o),
(292,301,q),
(216,374,o),
(176,484.5,q),
(136,595,o),
(136,744,q),
(136,898,o),
(176,1010,q),
(216,1122,o),
(292,1194.5,q),
(368,1267,o),
(478.5,1301.5,q),
(589,1336,o),
(730,1336,q),
(878,1336,o),
(988.5,1301.5,q),
(1099,1267,o),
(1171.5,1194.5,q),
(1244,1122,o),
(1280,1010,q),
(1316,898,o),
(1316,744,q)
);
}
);
width = 1470;
}
);
unicode = 169;
},
{
glyphname = guillemotleft;
layers = (
{
layerId = "ee3f1d96-5840-4730-b38c-b1c88b21a886";
name = Fore;
shapes = (
{
closed = 1;
nodes = (
(178,516,o),
(167.5,527,q),
(157,538,o),
(148,551,q),
(139,564,o),
(133.5,578,q),
(128,592,o),
(128,608,q),
(128,637,o),
(146,660.5,q),
(164,684,o),
(190,710,q),
(504,1022,l),
(527,1045,o),
(551.5,1063.5,q),
(576,1082,o),
(606,1082,q),
(626,1082,o),
(647,1071,q),
(668,1060,o),
(692,1036,q),
(715,1013,o),
(724.5,993.5,q),
(734,974,o),
(734,954,q),
(734,924,o),
(716.5,898.5,q),
(699,873,o),
(676,850,q),
(430,606,l),
(674,366,l),
(698,342,o),
(716,317.5,q),
(734,293,o),
(734,264,q),
(734,244,o),
(724,223,q),
(714,202,o),
(688,176,q),
(665,153,o),
(645.5,143.5,q),
(626,134,o),
(606,134,q),
(577,134,o),
(551.5,152,q),
(526,170,o),
(502,194,q),
(188,506,l)
);
},
{
closed = 1;
nodes = (
(740,518,o),
(729.5,529,q),
(719,540,o),
(710,553,q),
(701,566,o),
(695.5,580,q),
(690,594,o),
(690,610,q),
(690,639,o),
(708,662.5,q),
(726,686,o),
(752,712,q),
(1066,1024,l),
(1089,1047,o),
(1113.5,1065.5,q),
(1138,1084,o),
(1168,1084,q),
(1188,1084,o),
(1209,1073,q),
(1230,1062,o),
(1254,1038,q),
(1277,1015,o),
(1286.5,995.5,q),
(1296,976,o),
(1296,956,q),
(1296,926,o),
(1278.5,900.5,q),
(1261,875,o),
(1238,852,q),
(992,608,l),
(1236,368,l),
(1260,344,o),
(1278,319.5,q),
(1296,295,o),
(1296,266,q),
(1296,246,o),
(1286,225,q),
(1276,204,o),
(1250,178,q),
(1227,155,o),
(1207.5,145.5,q),
(1188,136,o),
(1168,136,q),
(1139,136,o),
(1113.5,154,q),
(1088,172,o),
(1064,196,q),
(750,508,l)
);
}
);
width = 1526;
}
);
unicode = 171;
},
{
glyphname = logicalnot;
layers = (
{
layerId = "ee3f1d96-5840-4730-b38c-b1c88b21a886";
name = Fore;
shapes = (
{
closed = 1;
nodes = (
(279,858,o),
(253,861.5,q),
(227,865,o),
(207.5,877.5,q),
(188,890,o),
(176,913.5,q),
(164,937,o),
(164,978,q),
(164,1022,o),
(176,1047,q),
(188,1072,o),
(208,1084,q),
(228,1096,o),
(254,1099,q),
(280,1102,o),
(308,1102,q),
(1118,1102,l),
(1153,1102,o),
(1180.5,1096.5,q),
(1208,1091,o),
(1227,1075,q),
(1246,1059,o),
(1256,1030.5,q),
(1266,1002,o),
(1266,956,q),
(1266,604,l),
(1266,576,o),
(1262.5,550,q),
(1259,524,o),
(1246.5,504,q),
(1234,484,o),
(1210,472,q),
(1186,460,o),
(1146,460,q),
(1102,460,o),
(1077,472,q),
(1052,484,o),
(1040,504,q),
(1028,524,o),
(1025,550,q),
(1022,576,o),
(1022,604,q),
(1022,858,l),
(330,858,l),
(308,858,l)
);
}
);
width = 1492;
}
);
unicode = 172;
},
{
glyphname = registered;
layers = (
{
layerId = "ee3f1d96-5840-4730-b38c-b1c88b21a886";
name = Fore;
shapes = (
{
closed = 1;
nodes = (
(492,995,o),
(493,1014,q),
(494,1033,o),
(501,1048,q),
(508,1063,o),
(523,1071.5,q),
(538,1080,o),
(566,1080,q),
(722,1080,l),
(782,1076,o),
(830,1055,q),
(850,1046,o),
(869.5,1031.5,q),
(889,1017,o),
(904,996.5,q),
(919,976,o),
(928.5,948.5,q),
(938,921,o),
(938,884,q),
(938,871,o),
(934,848.5,q),
(930,826,o),
(916.5,802,q),
(903,778,o),
(878.5,755.5,q),
(854,733,o),
(814,720,q),
(831,715,o),
(848.5,705,q),
(866,695,o),
(880,678,q),
(894,661,o),
(903,637,q),
(912,613,o),
(912,582,q),
(912,516,l),
(912,501,o),
(922,498,q),
(934,486,o),
(936,477,q),
(938,468,o),
(938,462,q),
(938,445,o),
(931,433,q),
(924,421,o),
(913,413.5,q),
(902,406,o),
(888,403,q),
(874,400,o),
(860,400,q),
(844,400,o),
(827.5,405,q),
(811,410,o),
(797.5,420,q),
(784,430,o),
(775,445,q),
(766,460,o),
(766,480,q),
(766,582,l),
(766,603,o),
(763.5,621,q),
(761,639,o),
(753,652,q),
(745,665,o),
(730.5,672.5,q),
(716,680,o),
(692,680,q),
(638,680,l),
(638,518,l),
(638,496,o),
(637,476,q),
(636,456,o),
(629,440.5,q),
(622,425,o),
(607.5,415.5,q),
(593,406,o),
(566,406,q),
(538,406,o),
(523,415.5,q),
(508,425,o),
(501,440.5,q),
(494,456,o),
(493,476,q),
(492,496,o),
(492,518,q),
(492,974,l)
);
},
{
closed = 1;
nodes = (
(728,787,o),
(747,798,q),
(763,807,o),
(776.5,827,q),
(790,847,o),
(790,884,q),
(790,916,o),
(777.5,933.5,q),
(765,951,o),
(750,959,q),
(732,969,o),
(710,970,q),
(638,970,l),
(638,786,l),
(704,786,l)
);
},
{
closed = 1;
nodes = (
(1208,1006,o),
(1083,1127,q),
(958,1248,o),
(708,1248,q),
(590,1248,o),
(497.5,1218.5,q),
(405,1189,o),
(341,1127,q),
(277,1065,o),
(243.5,969.5,q),
(210,874,o),
(210,742,q),
(210,619,o),
(243.5,526,q),
(277,433,o),
(341,371,q),
(405,309,o),
(497.5,277.5,q),
(590,246,o),
(708,246,q),
(826,246,o),
(918.5,277.5,q),
(1011,309,o),
(1075.5,371,q),
(1140,433,o),
(1174,526,q),
(1208,619,o),
(1208,742,q)
);
},
{
closed = 1;
nodes = (
(1296,595,o),
(1257.5,484.5,q),
(1219,374,o),
(1144,301,q),
(1069,228,o),
(960,192,q),
(851,156,o),
(710,156,q),
(569,156,o),
(458.5,192,q),
(348,228,o),
(272,301,q),
(196,374,o),
(156,484.5,q),
(116,595,o),
(116,744,q),
(116,898,o),
(156,1010,q),
(196,1122,o),
(272,1194.5,q),
(348,1267,o),
(458.5,1301.5,q),
(569,1336,o),
(710,1336,q),
(858,1336,o),
(968.5,1301.5,q),
(1079,1267,o),
(1151.5,1194.5,q),
(1224,1122,o),
(1260,1010,q),
(1296,898,o),
(1296,744,q)
);
}
);
width = 1424;
}
);
unicode = 174;
},
{
glyphname = macron;
layers = (
{
layerId = "ee3f1d96-5840-4730-b38c-b1c88b21a886";
name = Fore;
shapes = (
{
closed = 1;
nodes = (
(725,1400,o),
(754,1397.5,q),
(783,1395,o),
(807.5,1384.5,q),
(832,1374,o),
(848,1351,q),
(864,1328,o),
(864,1288,q),
(864,1247,o),
(848,1224.5,q),
(832,1202,o),
(807.5,1191.5,q),
(783,1181,o),
(754,1178.5,q),
(725,1176,o),
(700,1176,q),
(298,1176,l),
(270,1176,o),
(241,1178.5,q),
(212,1181,o),
(188,1191.5,q),
(164,1202,o),
(149,1224.5,q),
(134,1247,o),
(134,1288,q),
(134,1328,o),
(149,1351,q),
(164,1374,o),
(188,1384.5,q),
(212,1395,o),
(241,1397.5,q),
(270,1400,o),
(298,1400,q),
(700,1400,l)
);
}
);
width = 996;
}
);
unicode = 175;
},
{
glyphname = degree;
layers = (
{
layerId = "ee3f1d96-5840-4730-b38c-b1c88b21a886";
name = Fore;
shapes = (
{
closed = 1;
nodes = (
(524,1216,o),
(414,1216,q),
(360,1216,o),
(330,1188.5,q),
(300,1161,o),
(300,1104,q),
(300,1047,o),
(330,1018.5,q),
(360,990,o),
(414,990,q),
(467,990,o),
(495.5,1018.5,q),
(524,1047,o),
(524,1104,q)
);
},
{
closed = 1;
nodes = (
(694,958,o),
(621,889,q),
(548,820,o),
(414,820,q),
(277,820,o),
(202.5,889,q),
(128,958,o),
(128,1104,q),
(128,1249,o),
(202.5,1316.5,q),
(277,1384,o),
(414,1384,q),
(557,1384,o),
(625.5,1317,q),
(694,1250,o),
(694,1104,q)
);
}
);
width = 832;
}
);
unicode = 176;
},
{
glyphname = plusminus;
layers = (
{
layerId = "ee3f1d96-5840-4730-b38c-b1c88b21a886";
name = Fore;
shapes = (
{
closed = 1;
nodes = (
(280,212,o),
(254,215.5,q),
(228,219,o),
(208,231.5,q),
(188,244,o),
(176,267.5,q),
(164,291,o),
(164,332,q),
(164,376,o),
(176,401,q),
(188,426,o),
(208,438,q),
(228,450,o),
(254,453,q),
(280,456,o),
(308,456,q),
(750,456,l),
(775,456,o),
(801,453,q),
(827,450,o),
(847.5,438,q),
(868,426,o),
(881,401,q),
(894,376,o),
(894,332,q),
(894,291,o),
(881,267.5,q),
(868,244,o),
(847.5,231.5,q),
(827,219,o),
(801,215.5,q),
(775,212,o),
(750,212,q),
(364,212,l),
(308,212,l)
);
},
{
closed = 1;
nodes = (
(284,798,o),
(258,801.5,q),
(232,805,o),
(212,817.5,q),
(192,830,o),
(180,853.5,q),
(168,877,o),
(168,918,q),
(168,962,o),
(180,987,q),
(192,1012,o),
(212,1024,q),
(232,1036,o),
(258,1039,q),
(284,1042,o),
(312,1042,q),
(410,1042,l),
(410,1140,l),
(410,1165,o),
(413,1191,q),
(416,1217,o),
(428,1237.5,q),
(440,1258,o),
(465,1271,q),
(490,1284,o),
(534,1284,q),
(574,1284,o),
(598,1271,q),
(622,1258,o),
(634.5,1237.5,q),
(647,1217,o),
(650.5,1191,q),
(654,1165,o),
(654,1140,q),
(654,1042,l),
(754,1042,l),
(779,1042,o),
(805,1039,q),
(831,1036,o),
(851.5,1024,q),
(872,1012,o),
(885,987,q),
(898,962,o),
(898,918,q),
(898,877,o),
(885,853.5,q),
(872,830,o),
(851.5,817.5,q),
(831,805,o),
(805,801.5,q),
(779,798,o),
(754,798,q),
(654,798,l),
(654,698,l),
(654,670,o),
(650.5,644,q),
(647,618,o),
(634.5,598,q),
(622,578,o),
(598,566,q),
(574,554,o),
(534,554,q),
(490,554,o),
(465,566,q),
(440,578,o),
(428,598,q),
(416,618,o),
(413,644,q),
(410,670,o),
(410,698,q),
(410,798,l),
(312,798,l)
);
}
);
width = 1058;
}
);
unicode = 177;
},
{
glyphname = twosuperior;
layers = (
{
layerId = "ee3f1d96-5840-4730-b38c-b1c88b21a886";
name = Fore;
shapes = (
{
closed = 1;
nodes = (
(403,1398,o),
(447.5,1354,q),
(492,1310,o),
(492,1236,q),
(492,1189,o),
(468.5,1156,q),
(445,1123,o),
(417,1103,q),
(384,1078,o),
(342,1064,q),
(328,1059,o),
(314.5,1052,q),
(301,1045,o),
(290.5,1035.5,q),
(280,1026,o),
(273,1013,q),
(266,1000,o),
(266,984,q),
(266,966,l),
(404,966,l),
(417,966,o),
(433,965,q),
(449,964,o),
(463.5,958.5,q),
(478,953,o),
(488,941.5,q),
(498,930,o),
(498,910,q),
(498,887,o),
(490,875,q),
(482,863,o),
(468.5,857.5,q),
(455,852,o),
(438,851,q),
(421,850,o),
(404,850,q),
(208,850,l),
(189,850,o),
(176.5,856.5,q),
(164,863,o),
(156.5,873.5,q),
(149,884,o),
(145.5,896.5,q),
(142,909,o),
(142,922,q),
(142,984,l),
(142,1044,o),
(179.5,1087,q),
(217,1130,o),
(280,1154,q),
(311,1166,o),
(329.5,1177.5,q),
(348,1189,o),
(358,1199.5,q),
(368,1210,o),
(371,1220.5,q),
(374,1231,o),
(374,1242,q),
(374,1262,o),
(367.5,1273.5,q),
(361,1285,o),
(351.5,1291,q),
(342,1297,o),
(331,1298.5,q),
(320,1300,o),
(312,1300,q),
(292,1300,o),
(280,1294.5,q),
(268,1289,o),
(262,1280,q),
(256,1271,o),
(254,1261,q),
(252,1251,o),
(252,1242,q),
(252,1226,o),
(246.5,1215.5,q),
(241,1205,o),
(232.5,1198.5,q),
(224,1192,o),
(214,1189,q),
(204,1186,o),
(196,1186,q),
(167,1186,o),
(151.5,1200.5,q),
(136,1215,o),
(136,1236,q),
(136,1252,o),
(142,1279,q),
(148,1306,o),
(166.5,1332.5,q),
(185,1359,o),
(219.5,1378.5,q),
(254,1398,o),
(312,1398,q)
);
}
);
width = 640;
}
);
unicode = 178;
},
{
glyphname = threesuperior;
layers = (
{
layerId = "ee3f1d96-5840-4730-b38c-b1c88b21a886";
name = Fore;
shapes = (
{
closed = 1;
nodes = (
(234,1278,l),
(220,1278,o),
(205.5,1279.5,q),
(191,1281,o),
(179,1286,q),
(167,1291,o),
(159.5,1301,q),
(152,1311,o),
(152,1328,q),
(152,1350,o),
(160,1362.5,q),
(168,1375,o),
(181,1381,q),
(194,1387,o),
(209.5,1388.5,q),
(225,1390,o),
(240,1390,q),
(408,1390,l),
(440,1390,o),
(456,1371,q),
(472,1352,o),
(472,1328,q),
(472,1325,o),
(471.5,1317.5,q),
(471,1310,o),
(468,1304,q),
(388,1178,l),
(426,1173,o),
(447,1155,q),
(468,1137,o),
(477.5,1112.5,q),
(487,1088,o),
(488.5,1060.5,q),
(490,1033,o),
(490,1010,q),
(490,1000,l),
(490,966,o),
(479,937.5,q),
(468,909,o),
(446,888,q),
(424,867,o),
(390.5,855.5,q),
(357,844,o),
(312,844,q),
(253,844,o),
(217.5,863.5,q),
(182,883,o),
(163.5,908.5,q),
(145,934,o),
(139.5,960,q),
(134,986,o),
(134,1000,q),
(134,1027,o),
(151,1042.5,q),
(168,1058,o),
(194,1058,q),
(202,1058,o),
(212,1055,q),
(222,1052,o),
(231,1045,q),
(240,1038,o),
(246,1027,q),
(252,1016,o),
(252,1000,q),
(252,990,o),
(254,979.5,q),
(256,969,o),
(262.5,960,q),
(269,951,o),
(280.5,945.5,q),
(292,940,o),
(312,940,q),
(320,940,o),
(331,942,q),
(342,944,o),
(352,952,q),
(362,960,o),
(369,975.5,q),
(376,991,o),
(376,1018,q),
(376,1040,o),
(374.5,1055,q),
(373,1070,o),
(367.5,1079,q),
(362,1088,o),
(351.5,1092,q),
(341,1096,o),
(322,1096,q),
(298,1096,o),
(284,1111,q),
(270,1126,o),
(270,1146,q),
(270,1157,o),
(274,1166,q),
(278,1175,o),
(284,1190,q),
(330,1278,l)
);
}
);
width = 666;
}
);
unicode = 179;
},
{
glyphname = acute;
layers = (
{
layerId = "ee3f1d96-5840-4730-b38c-b1c88b21a886";
name = Fore;
shapes = (
{
closed = 1;
nodes = (
(427,1452,o),
(456,1452,q),
(482,1452,o),
(509,1443.5,q),
(536,1435,o),
(556,1406,q),
(568,1388,o),
(573,1370,q),
(578,1352,o),
(578,1338,q),
(578,1311,o),
(563,1288.5,q),
(548,1266,o),
(528,1252,q),
(308,1118,l),
(294,1109,o),
(278.5,1105.5,q),
(263,1102,o),
(248,1102,q),
(221,1102,o),
(197.5,1110.5,q),
(174,1119,o),
(154,1148,q),
(142,1165,o),
(137,1181.5,q),
(132,1198,o),
(132,1212,q),
(132,1242,o),
(147,1265.5,q),
(162,1289,o),
(176,1298,q),
(400,1434,l)
);
}
);
width = 718;
}
);
unicode = 180;
},
{
glyphname = uni00B5;
layers = (
{
layerId = "ee3f1d96-5840-4730-b38c-b1c88b21a886";
name = Fore;
shapes = (
{
closed = 1;
nodes = (
(180,821,o),
(187.5,861,q),
(195,901,o),
(213,932,q),
(231,963,o),
(262.5,981.5,q),
(294,1000,o),
(342,1000,q),
(427,1000,o),
(465.5,942.5,q),
(504,885,o),
(504,786,q),
(504,667,o),
(511.5,580.5,q),
(519,494,o),
(537,437.5,q),
(555,381,o),
(585,353.5,q),
(615,326,o),
(660,326,q),
(703,326,o),
(734.5,350,q),
(766,374,o),
(787,425.5,q),
(808,477,o),
(818,558,q),
(828,639,o),
(828,752,q),
(828,882,o),
(865.5,941,q),
(903,1000,o),
(990,1000,q),
(1041,1000,o),
(1071.5,980.5,q),
(1102,961,o),
(1118,929,q),
(1134,897,o),
(1139,856,q),
(1144,815,o),
(1144,772,q),
(1144,226,l),
(1144,183,o),
(1141,142.5,q),
(1138,102,o),
(1123,70.5,q),
(1108,39,o),
(1077.5,19.5,q),
(1047,0,o),
(992,0,q),
(937,0,o),
(906,21.5,q),
(875,43,o),
(859.5,73,q),
(844,103,o),
(840,135,q),
(836,167,o),
(836,188,q),
(829,163,o),
(814.5,138,q),
(800,113,o),
(777.5,92.5,q),
(755,72,o),
(725.5,59,q),
(696,46,o),
(660,46,q),
(619,46,o),
(585.5,56,q),
(552,66,o),
(527.5,82.5,q),
(503,99,o),
(487,121,q),
(471,143,o),
(464,168,q),
(464,-56,l),
(464,-98,o),
(461.5,-138.5,q),
(459,-179,o),
(445.5,-210.5,q),
(432,-242,o),
(404,-261,q),
(376,-280,o),
(324,-280,q),
(273,-280,o),
(244,-261,q),
(215,-242,o),
(201,-210.5,q),
(187,-179,o),
(183.5,-138.5,q),
(180,-98,o),
(180,-56,q),
(180,778,l)
);
}
);
width = 1316;
}
);
unicode = 181;
},
{
glyphname = paragraph;
layers = (
{
layerId = "ee3f1d96-5840-4730-b38c-b1c88b21a886";
name = Fore;
shapes = (
{
closed = 1;
nodes = (
(1076,1398,o),
(1116.5,1378.5,q),
(1157,1359,o),
(1182.5,1327,q),
(1208,1295,o),
(1220,1254,q),
(1232,1213,o),
(1232,1170,q),
(1232,-122,l),
(1232,-164,o),
(1227.5,-204.5,q),
(1223,-245,o),
(1207.5,-277,q),
(1192,-309,o),
(1162,-328.5,q),
(1132,-348,o),
(1080,-348,q),
(1028,-348,o),
(997.5,-328.5,q),
(967,-309,o),
(950.5,-277,q),
(934,-245,o),
(929,-204.5,q),
(924,-164,o),
(924,-122,q),
(924,1116,l),
(736,1116,l),
(736,-122,l),
(736,-164,o),
(731.5,-204.5,q),
(727,-245,o),
(711.5,-277,q),
(696,-309,o),
(666,-328.5,q),
(636,-348,o),
(584,-348,q),
(532,-348,o),
(501.5,-328.5,q),
(471,-309,o),
(454.5,-277,q),
(438,-245,o),
(433,-204.5,q),
(428,-164,o),
(428,-122,q),
(428,638,l),
(373,638,o),
(318,658.5,q),
(263,679,o),
(219,722.5,q),
(175,766,o),
(147.5,833,q),
(120,900,o),
(120,992,q),
(120,1044,l),
(120,1135,o),
(147.5,1202,q),
(175,1269,o),
(219,1312.5,q),
(263,1356,o),
(318,1377,q),
(373,1398,o),
(428,1398,q),
(1020,1398,l)
);
}
);
width = 1408;
}
);
unicode = 182;
},
{
glyphname = periodcentered;
layers = (
{
layerId = "ee3f1d96-5840-4730-b38c-b1c88b21a886";
name = Fore;
shapes = (
{
closed = 1;
nodes = (
(578,615,o),
(535,574.5,q),
(492,534,o),
(414,534,q),
(334,534,o),
(291,574.5,q),
(248,615,o),
(248,700,q),
(248,786,o),
(291,825,q),
(334,864,o),
(414,864,q),
(497,864,o),
(537.5,825,q),
(578,786,o),
(578,700,q)
);
}
);
width = 820;
}
);
unicode = 183;
},
{
glyphname = cedilla;
layers = (
{
layerId = "ee3f1d96-5840-4730-b38c-b1c88b21a886";
name = Fore;
shapes = (
{
closed = 1;
nodes = (
(472,96,l),
(402,-22,l),
(447,-26,o),
(482.5,-28,q),
(518,-30,o),
(543,-45,q),
(568,-60,o),
(581,-93.5,q),
(594,-127,o),
(594,-194,q),
(594,-202,l),
(594,-260,o),
(571,-297,q),
(548,-334,o),
(510.5,-355,q),
(473,-376,o),
(424.5,-384,q),
(376,-392,o),
(324,-392,q),
(255,-392,o),
(207.5,-379.5,q),
(160,-367,o),
(131,-343,q),
(102,-319,o),
(89,-283.5,q),
(76,-248,o),
(76,-202,q),
(76,-189,o),
(84,-177.5,q),
(92,-166,o),
(105,-158.5,q),
(118,-151,o),
(134,-146.5,q),
(150,-142,o),
(166,-142,q),
(176,-142,o),
(191.5,-145.5,q),
(207,-149,o),
(220.5,-157,q),
(234,-165,o),
(244,-177.5,q),
(254,-190,o),
(254,-208,q),
(254,-219,o),
(256,-233,q),
(258,-247,o),
(265.5,-259.5,q),
(273,-272,o),
(287,-281,q),
(301,-290,o),
(324,-290,q),
(333,-290,o),
(345.5,-286,q),
(358,-282,o),
(370,-270,q),
(382,-258,o),
(390,-237.5,q),
(398,-217,o),
(398,-184,q),
(398,-159,o),
(396,-145.5,q),
(394,-132,o),
(387.5,-125.5,q),
(381,-119,o),
(368.5,-117.5,q),
(356,-116,o),
(334,-116,q),
(305,-116,o),
(290.5,-98,q),
(276,-80,o),
(276,-56,q),
(276,-47,o),
(279.5,-35,q),
(283,-23,o),
(292,-8,q),
(350,96,l)
);
}
);
width = 664;
}
);
unicode = 184;
},
{
glyphname = onesuperior;
layers = (
{
layerId = "ee3f1d96-5840-4730-b38c-b1c88b21a886";
name = Fore;
shapes = (
{
closed = 1;
nodes = (
(313,1178,o),
(296.5,1169,q),
(280,1160,o),
(256,1160,q),
(227,1160,o),
(209.5,1179,q),
(192,1198,o),
(192,1224,q),
(192,1251,o),
(208,1262.5,q),
(224,1274,o),
(244,1286,q),
(266,1299,o),
(284.5,1314.5,q),
(303,1330,o),
(317,1343.5,q),
(331,1357,o),
(341.5,1367.5,q),
(352,1378,o),
(360,1382,q),
(371,1388,o),
(379,1389,q),
(387,1390,o),
(396,1390,q),
(422,1390,o),
(436.5,1381,q),
(451,1372,o),
(457.5,1357,q),
(464,1342,o),
(465,1324,q),
(466,1306,o),
(466,1288,q),
(466,950,l),
(466,930,o),
(464.5,911.5,q),
(463,893,o),
(456.5,878.5,q),
(450,864,o),
(435.5,855,q),
(421,846,o),
(396,846,q),
(371,846,o),
(357.5,855,q),
(344,864,o),
(338,878,q),
(332,892,o),
(331,909.5,q),
(330,927,o),
(330,944,q),
(330,1190,l)
);
}
);
width = 632;
}
);
unicode = 185;
},
{
glyphname = ordmasculine;
layers = (
{
layerId = "ee3f1d96-5840-4730-b38c-b1c88b21a886";
name = Fore;
shapes = (
{
closed = 1;
nodes = (
(152,1241,o),
(166,1277,q),
(180,1313,o),
(202,1336,q),
(224,1359,o),
(251,1372,q),
(278,1385,o),
(304.5,1391.5,q),
(331,1398,o),
(353,1399,q),
(375,1400,o),
(388,1400,q),
(401,1400,o),
(423.5,1399,q),
(446,1398,o),
(471.5,1391.5,q),
(497,1385,o),
(523,1372,q),
(549,1359,o),
(570,1336,q),
(591,1313,o),
(604.5,1277,q),
(618,1241,o),
(618,1190,q),
(618,1052,l),
(618,1001,o),
(604.5,965,q),
(591,929,o),
(570,906,q),
(549,883,o),
(523,870,q),
(497,857,o),
(471.5,851,q),
(446,845,o),
(423.5,843.5,q),
(401,842,o),
(388,842,q),
(375,842,o),
(353,843.5,q),
(331,845,o),
(304.5,851,q),
(278,857,o),
(251,870,q),
(224,883,o),
(202,906,q),
(180,929,o),
(166,964.5,q),
(152,1000,o),
(152,1052,q),
(152,1190,l)
);
},
{
closed = 1;
nodes = (
(325,996,o),
(332,984,q),
(338,973,o),
(351,964.5,q),
(364,956,o),
(388,956,q),
(412,956,o),
(425,964.5,q),
(438,973,o),
(444,984,q),
(451,996,o),
(452,1012,q),
(452,1214,l),
(451,1231,o),
(444,1245,q),
(438,1256,o),
(425,1266,q),
(412,1276,o),
(388,1276,q),
(364,1276,o),
(351,1266,q),
(338,1256,o),
(332,1245,q),
(325,1231,o),
(324,1214,q),
(324,1012,l)
);
}
);
width = 790;
}
);
unicode = 186;
},
{
glyphname = guillemotright;
layers = (
{
layerId = "ee3f1d96-5840-4730-b38c-b1c88b21a886";
name = Fore;
shapes = (
{
closed = 1;
nodes = (
(958,170,o),
(932.5,152,q),
(907,134,o),
(878,134,q),
(858,134,o),
(838.5,143.5,q),
(819,153,o),
(796,176,q),
(770,202,o),
(760,223,q),
(750,244,o),
(750,264,q),
(750,293,o),
(768,317.5,q),
(786,342,o),
(810,366,q),
(1054,606,l),
(808,850,l),
(785,873,o),
(767.5,898.5,q),
(750,924,o),
(750,954,q),
(750,974,o),
(759.5,993.5,q),
(769,1013,o),
(792,1036,q),
(816,1060,o),
(837,1071,q),
(858,1082,o),
(878,1082,q),
(908,1082,o),
(932.5,1063.5,q),
(957,1045,o),
(980,1022,q),
(1294,710,l),
(1320,684,o),
(1338,660.5,q),
(1356,637,o),
(1356,608,q),
(1356,592,o),
(1350.5,578,q),
(1345,564,o),
(1336,551,q),
(1327,538,o),
(1316.5,527,q),
(1306,516,o),
(1296,506,q),
(982,194,l)
);
},
{
closed = 1;
nodes = (
(396,172,o),
(370.5,154,q),
(345,136,o),
(316,136,q),
(296,136,o),
(276.5,145.5,q),
(257,155,o),
(234,178,q),
(208,204,o),
(198,225,q),
(188,246,o),
(188,266,q),
(188,295,o),
(206,319.5,q),
(224,344,o),
(248,368,q),
(492,608,l),
(246,852,l),
(223,875,o),
(205.5,900.5,q),
(188,926,o),
(188,956,q),
(188,976,o),
(197.5,995.5,q),
(207,1015,o),
(230,1038,q),
(254,1062,o),
(275,1073,q),
(296,1084,o),
(316,1084,q),
(346,1084,o),
(370.5,1065.5,q),
(395,1047,o),
(418,1024,q),
(732,712,l),
(758,686,o),
(776,662.5,q),
(794,639,o),
(794,610,q),
(794,594,o),
(788.5,580,q),
(783,566,o),
(774,553,q),
(765,540,o),
(754.5,529,q),
(744,518,o),
(734,508,q),
(420,196,l)
);
}
);
width = 1536;
}
);
unicode = 187;
},
{
glyphname = onequarter;
layers = (
{
layerId = "ee3f1d96-5840-4730-b38c-b1c88b21a886";
name = Fore;
shapes = (
{
closed = 1;
nodes = (
(215,664,o),
(203,666,q),
(191,668,o),
(182,674,q),
(173,680,o),
(167.5,691,q),
(162,702,o),
(162,720,q),
(162,740,o),
(167.5,751.5,q),
(173,763,o),
(182,769,q),
(191,775,o),
(203,776.5,q),
(215,778,o),
(228,778,q),
(714,778,l),
(724,778,o),
(735.5,776.5,q),
(747,775,o),
(756.5,769,q),
(766,763,o),
(772,751.5,q),
(778,740,o),
(778,720,q),
(778,702,o),
(772,691,q),
(766,680,o),
(756.5,674,q),
(747,668,o),
(735.5,666,q),
(724,664,o),
(714,664,q),
(254,664,l),
(228,664,l)
);
},
{
closed = 1;
nodes = (
(574,394,o),
(586.5,388,q),
(599,382,o),
(605.5,371.5,q),
(612,361,o),
(614,347.5,q),
(616,334,o),
(616,318,q),
(616,68,l),
(616,55,o),
(614,43,q),
(612,31,o),
(606,21.5,q),
(600,12,o),
(588.5,6,q),
(577,0,o),
(558,0,q),
(538,0,o),
(525.5,5,q),
(513,10,o),
(506.5,19,q),
(500,28,o),
(498,40,q),
(496,52,o),
(496,66,q),
(496,146,l),
(354,146,l),
(328,146,o),
(310.5,149.5,q),
(293,153,o),
(282.5,159,q),
(272,165,o),
(268,173.5,q),
(264,182,o),
(264,192,q),
(264,194,o),
(264.5,197,q),
(265,200,o),
(268,210.5,q),
(271,221,o),
(276.5,242,q),
(282,263,o),
(292.5,300,q),
(303,337,o),
(319,393,q),
(335,449,o),
(358,530,q),
(368,557,o),
(380,574.5,q),
(392,592,o),
(422,592,q),
(452,592,o),
(463,575.5,q),
(474,559,o),
(474,536,q),
(474,521,o),
(471,505.5,q),
(468,490,o),
(462,476,q),
(455,453,o),
(447,422,q),
(439,391,o),
(431.5,361,q),
(424,331,o),
(417.5,304.5,q),
(411,278,o),
(408,264,q),
(496,264,l),
(496,322,l),
(496,336,o),
(497.5,349,q),
(499,362,o),
(505,372,q),
(511,382,o),
(522,388,q),
(533,394,o),
(552,394,q)
);
},
{
closed = 1;
nodes = (
(375,1178,o),
(358.5,1169,q),
(342,1160,o),
(318,1160,q),
(289,1160,o),
(271.5,1179,q),
(254,1198,o),
(254,1224,q),
(254,1251,o),
(269.5,1263,q),
(285,1275,o),
(306,1286,q),
(328,1301,o),
(346,1316.5,q),
(364,1332,o),
(378.5,1345.5,q),
(393,1359,o),
(403.5,1368.5,q),
(414,1378,o),
(422,1382,q),
(433,1388,o),
(441,1389,q),
(449,1390,o),
(458,1390,q),
(484,1390,o),
(498.5,1381,q),
(513,1372,o),
(519.5,1357,q),
(526,1342,o),
(527,1324,q),
(528,1306,o),
(528,1288,q),
(528,950,l),
(528,930,o),
(526.5,911.5,q),
(525,893,o),
(518.5,878.5,q),
(512,864,o),
(497.5,855,q),
(483,846,o),
(458,846,q),
(433,846,o),
(419.5,855,q),
(406,864,o),
(400,878,q),
(394,892,o),
(393,909.5,q),
(392,927,o),
(392,944,q),
(392,1190,l)
);
}
);
width = 940;
}
);
unicode = 188;
},
{
glyphname = onehalf;
layers = (
{
layerId = "ee3f1d96-5840-4730-b38c-b1c88b21a886";
name = Fore;
shapes = (
{
closed = 1;
nodes = (
(236,664,o),
(224,665.5,q),
(212,667,o),
(202.5,673,q),
(193,679,o),
(187.5,689.5,q),
(182,700,o),
(182,718,q),
(182,738,o),
(187.5,749.5,q),
(193,761,o),
(202.5,766.5,q),
(212,772,o),
(224,773,q),
(236,774,o),
(250,774,q),
(734,774,l),
(745,774,o),
(756.5,773,q),
(768,772,o),
(777,766.5,q),
(786,761,o),
(792,749.5,q),
(798,738,o),
(798,718,q),
(798,700,o),
(792,689.5,q),
(786,679,o),
(777,673,q),
(768,667,o),
(756.5,665.5,q),
(745,664,o),
(734,664,q),
(274,664,l),
(250,664,l)
);
},
{
closed = 1;
nodes = (
(396,1176,o),
(379,1168,q),
(362,1160,o),
(338,1160,q),
(309,1160,o),
(291.5,1179,q),
(274,1198,o),
(274,1224,q),
(274,1250,o),
(289.5,1262.5,q),
(305,1275,o),
(326,1284,q),
(348,1300,o),
(366.5,1315.5,q),
(385,1331,o),
(399.5,1344.5,q),
(414,1358,o),
(425,1367.5,q),
(436,1377,o),
(444,1380,q),
(453,1386,o),
(461,1387,q),
(469,1388,o),
(480,1388,q),
(505,1388,o),
(519,1379,q),
(533,1370,o),
(539.5,1356,q),
(546,1342,o),
(547,1324,q),
(548,1306,o),
(548,1288,q),
(548,950,l),
(548,930,o),
(546.5,911,q),
(545,892,o),
(538.5,877.5,q),
(532,863,o),
(518.5,854.5,q),
(505,846,o),
(480,846,q),
(455,846,o),
(441.5,855,q),
(428,864,o),
(422,878,q),
(416,892,o),
(415,910,q),
(414,928,o),
(414,946,q),
(414,1190,l)
);
},
{
closed = 1;
nodes = (
(576,594,o),
(625,546,q),
(674,498,o),
(674,418,q),
(674,368,o),
(648.5,332.5,q),
(623,297,o),
(593,275,q),
(557,249,o),
(512,232,q),
(497,226,o),
(482,218.5,q),
(467,211,o),
(455,200.5,q),
(443,190,o),
(435.5,176.5,q),
(428,163,o),
(428,146,q),
(428,126,l),
(578,126,l),
(592,126,o),
(610,125,q),
(628,124,o),
(643.5,118,q),
(659,112,o),
(669.5,100,q),
(680,88,o),
(680,66,q),
(680,41,o),
(671,27.5,q),
(662,14,o),
(647.5,8,q),
(633,2,o),
(615,1,q),
(597,0,o),
(578,0,q),
(366,0,l),
(346,0,o),
(332,7,q),
(318,14,o),
(309.5,25.5,q),
(301,37,o),
(297.5,50.5,q),
(294,64,o),
(294,78,q),
(294,146,l),
(294,211,o),
(335,257,q),
(376,303,o),
(444,330,q),
(478,343,o),
(498,355,q),
(518,367,o),
(528.5,378.5,q),
(539,390,o),
(542.5,401.5,q),
(546,413,o),
(546,424,q),
(546,446,o),
(538.5,459,q),
(531,472,o),
(520.5,478.5,q),
(510,485,o),
(498.5,486.5,q),
(487,488,o),
(478,488,q),
(456,488,o),
(443.5,482,q),
(431,476,o),
(424.5,466.5,q),
(418,457,o),
(416,445.5,q),
(414,434,o),
(414,424,q),
(414,407,o),
(407.5,396,q),
(401,385,o),
(392,377.5,q),
(383,370,o),
(372,367,q),
(361,364,o),
(352,364,q),
(322,364,o),
(305,379.5,q),
(288,395,o),
(288,418,q),
(288,435,o),
(294.5,465,q),
(301,495,o),
(321,523.5,q),
(341,552,o),
(378.5,573,q),
(416,594,o),
(478,594,q)
);
}
);
width = 940;
}
);
unicode = 189;
},
{
glyphname = threequarters;
layers = (
{
layerId = "ee3f1d96-5840-4730-b38c-b1c88b21a886";
name = Fore;
shapes = (
{
closed = 1;
nodes = (
(226,664,o),
(214,665.5,q),
(202,667,o),
(193,673,q),
(184,679,o),
(178,690,q),
(172,701,o),
(172,720,q),
(172,739,o),
(178,750,q),
(184,761,o),
(193,766.5,q),
(202,772,o),
(214,773,q),
(226,774,o),
(238,774,q),
(724,774,l),
(736,774,o),
(748,773,q),
(760,772,o),
(769,766.5,q),
(778,761,o),
(784,750,q),
(790,739,o),
(790,720,q),
(790,701,o),
(784,690,q),
(778,679,o),
(769,673,q),
(760,667,o),
(748,665.5,q),
(736,664,o),
(724,664,q),
(264,664,l),
(238,664,l)
);
},
{
closed = 1;
nodes = (
(364,1278,l),
(350,1278,o),
(335.5,1279.5,q),
(321,1281,o),
(309,1286,q),
(297,1291,o),
(289.5,1301,q),
(282,1311,o),
(282,1328,q),
(282,1350,o),
(290,1362.5,q),
(298,1375,o),
(311,1381,q),
(324,1387,o),
(339.5,1388.5,q),
(355,1390,o),
(370,1390,q),
(538,1390,l),
(570,1390,o),
(586,1371,q),
(602,1352,o),
(602,1328,q),
(602,1325,o),
(601.5,1317.5,q),
(601,1310,o),
(598,1304,q),
(518,1178,l),
(556,1173,o),
(577,1155,q),
(598,1137,o),
(607.5,1112.5,q),
(617,1088,o),
(618.5,1060.5,q),
(620,1033,o),
(620,1010,q),
(620,1000,l),
(620,966,o),
(609,937.5,q),
(598,909,o),
(576,888,q),
(554,867,o),
(520.5,855.5,q),
(487,844,o),
(442,844,q),
(383,844,o),
(347.5,863.5,q),
(312,883,o),
(293.5,908.5,q),
(275,934,o),
(269.5,960,q),
(264,986,o),
(264,1000,q),
(264,1027,o),
(281,1042.5,q),
(298,1058,o),
(324,1058,q),
(332,1058,o),
(342,1055,q),
(352,1052,o),
(361,1045,q),
(370,1038,o),
(376,1027,q),
(382,1016,o),
(382,1000,q),
(382,990,o),
(384,979.5,q),
(386,969,o),
(392.5,960,q),
(399,951,o),
(410.5,945.5,q),
(422,940,o),
(442,940,q),
(450,940,o),
(461,942,q),
(472,944,o),
(482,952,q),
(492,960,o),
(499,975.5,q),
(506,991,o),
(506,1018,q),
(506,1040,o),
(504.5,1055,q),
(503,1070,o),
(497.5,1079,q),
(492,1088,o),
(481.5,1092,q),
(471,1096,o),
(452,1096,q),
(428,1096,o),
(414,1111,q),
(400,1126,o),
(400,1146,q),
(400,1157,o),
(404,1166,q),
(408,1175,o),
(414,1190,q),
(460,1278,l)
);
},
{
closed = 1;
nodes = (
(586,394,o),
(598.5,388,q),
(611,382,o),
(617.5,371.5,q),
(624,361,o),
(626,347.5,q),
(628,334,o),
(628,318,q),
(628,68,l),
(628,55,o),
(626,43,q),
(624,31,o),
(618,21.5,q),
(612,12,o),
(600.5,6,q),
(589,0,o),
(570,0,q),
(550,0,o),
(537.5,5,q),
(525,10,o),
(518.5,19,q),
(512,28,o),
(510,40,q),
(508,52,o),
(508,66,q),
(508,146,l),
(366,146,l),
(340,146,o),
(322.5,149.5,q),
(305,153,o),
(294.5,159,q),
(284,165,o),
(280,173.5,q),
(276,182,o),
(276,192,q),
(276,194,o),
(276.5,197,q),
(277,200,o),
(280,210.5,q),
(283,221,o),
(288.5,242,q),
(294,263,o),
(304.5,300,q),
(315,337,o),
(331,393,q),
(347,449,o),
(370,530,q),
(380,557,o),
(392,574.5,q),
(404,592,o),
(434,592,q),
(464,592,o),
(475,575.5,q),
(486,559,o),
(486,536,q),
(486,521,o),
(483,505.5,q),
(480,490,o),
(474,476,q),
(467,453,o),
(459,422,q),
(451,391,o),
(443.5,361,q),
(436,331,o),
(429.5,304.5,q),
(423,278,o),
(420,264,q),
(508,264,l),
(508,322,l),
(508,336,o),
(509.5,349,q),
(511,362,o),
(517,372,q),
(523,382,o),
(534,388,q),
(545,394,o),
(564,394,q)
);
}
);
width = 940;
}
);
unicode = 190;
},
{
glyphname = questiondown;
layers = (
{
layerId = "ee3f1d96-5840-4730-b38c-b1c88b21a886";
name = Fore;
shapes = (
{
closed = 1;
nodes = (
(1010,321,o),
(981,245.5,q),
(952,170,o),
(895,115.5,q),
(838,61,o),
(752.5,30.5,q),
(667,0,o),
(554,0,q),
(454,0,o),
(382,23,q),
(310,46,o),
(260,83,q),
(210,120,o),
(179,166,q),
(148,212,o),
(131,258,q),
(114,304,o),
(108,344.5,q),
(102,385,o),
(102,412,q),
(102,471,o),
(144,508.5,q),
(186,546,o),
(254,546,q),
(276,546,o),
(302.5,538,q),
(329,530,o),
(351.5,513,q),
(374,496,o),
(389,468.5,q),
(404,441,o),
(404,402,q),
(404,378,o),
(408.5,351.5,q),
(413,325,o),
(428.5,303,q),
(444,281,o),
(474,266.5,q),
(504,252,o),
(554,252,q),
(573,252,o),
(600.5,255.5,q),
(628,259,o),
(653.5,273.5,q),
(679,288,o),
(696.5,317.5,q),
(714,347,o),
(714,400,q),
(714,450,o),
(691,483.5,q),
(668,517,o),
(633,544,q),
(598,571,o),
(558,596,q),
(518,621,o),
(483,654.5,q),
(448,688,o),
(425,733.5,q),
(402,779,o),
(402,848,q),
(402,867,o),
(408.5,890,q),
(415,913,o),
(431.5,933,q),
(448,953,o),
(475.5,966.5,q),
(503,980,o),
(546,980,q),
(617,980,o),
(650.5,945,q),
(684,910,o),
(684,856,q),
(684,835,o),
(692,818.5,q),
(700,802,o),
(706,794,q),
(720,775,o),
(748.5,753.5,q),
(777,732,o),
(810.5,707,q),
(844,682,o),
(879.5,652,q),
(915,622,o),
(944,586,q),
(973,550,o),
(991.5,506.5,q),
(1010,463,o),
(1010,412,q)
);
},
{
closed = 1;
nodes = (
(718,1168,o),
(677.5,1129,q),
(637,1090,o),
(554,1090,q),
(474,1090,o),
(431,1129,q),
(388,1168,o),
(388,1254,q),
(388,1339,o),
(431,1379.5,q),
(474,1420,o),
(554,1420,q),
(632,1420,o),
(675,1379.5,q),
(718,1339,o),
(718,1254,q)
);
}
);
width = 1142;
}
);
unicode = 191;
},
{
glyphname = Agrave;
layers = (
{
layerId = "ee3f1d96-5840-4730-b38c-b1c88b21a886";
name = Fore;
shapes = (
{
closed = 1;
nodes = (
(712,604,l),
(564,1140,l),
(542,1140,l),
(394,604,l)
);
},
{
closed = 1;
nodes = (
(1024,438,o),
(1027,367,q),
(1030,296,o),
(1030,230,q),
(1030,200,l),
(1030,162,o),
(1027.5,126.5,q),
(1025,91,o),
(1012,62.5,q),
(999,34,o),
(971,17,q),
(943,0,o),
(892,0,q),
(840,0,o),
(812,17,q),
(784,34,o),
(770.5,62,q),
(757,90,o),
(754.5,126,q),
(752,162,o),
(752,200,q),
(752,340,l),
(352,340,l),
(352,200,l),
(352,162,o),
(349.5,126,q),
(347,90,o),
(333.5,62,q),
(320,34,o),
(292,17,q),
(264,0,o),
(212,0,q),
(160,0,o),
(132,17,q),
(104,34,o),
(91,62.5,q),
(78,91,o),
(76,126.5,q),
(74,162,o),
(74,200,q),
(74,230,l),
(74,261,o),
(74.5,296,q),
(75,331,o),
(76,367,q),
(77,403,o),
(78,438.5,q),
(79,474,o),
(80,506,q),
(130,680,o),
(185,858.5,q),
(240,1037,o),
(290,1212,q),
(300,1249,o),
(314,1283.5,q),
(328,1318,o),
(351,1343.5,q),
(374,1369,o),
(410,1384.5,q),
(446,1400,o),
(502,1400,q),
(602,1400,l),
(657,1400,o),
(693.5,1384.5,q),
(730,1369,o),
(753,1343.5,q),
(776,1318,o),
(789.5,1283.5,q),
(803,1249,o),
(814,1212,q),
(1022,506,l)
);
},
{
closed = 1;
nodes = (
(748,1689,o),
(763,1665.5,q),
(778,1642,o),
(778,1612,q),
(778,1598,o),
(773,1581.5,q),
(768,1565,o),
(756,1548,q),
(736,1519,o),
(712.5,1510.5,q),
(689,1502,o),
(662,1502,q),
(647,1502,o),
(631.5,1505.5,q),
(616,1509,o),
(602,1518,q),
(382,1652,l),
(362,1666,o),
(347,1688.5,q),
(332,1711,o),
(332,1738,q),
(332,1752,o),
(337,1770,q),
(342,1788,o),
(354,1806,q),
(374,1835,o),
(401,1843.5,q),
(428,1852,o),
(454,1852,q),
(483,1852,o),
(510,1834,q),
(734,1698,l)
);
}
);
width = 1104;
}
);
unicode = 192;
},
{
glyphname = Aacute;
layers = (
{
layerId = "ee3f1d96-5840-4730-b38c-b1c88b21a886";
name = Fore;
shapes = (
{
closed = 1;
nodes = (
(712,604,l),
(564,1140,l),
(542,1140,l),
(394,604,l)
);
},
{
closed = 1;
nodes = (
(1024,438,o),
(1027,367,q),
(1030,296,o),
(1030,230,q),
(1030,200,l),
(1030,162,o),
(1027.5,126.5,q),
(1025,91,o),
(1012,62.5,q),
(999,34,o),
(971,17,q),
(943,0,o),
(892,0,q),
(840,0,o),
(812,17,q),
(784,34,o),
(770.5,62,q),
(757,90,o),
(754.5,126,q),
(752,162,o),
(752,200,q),
(752,340,l),
(352,340,l),
(352,200,l),
(352,162,o),
(349.5,126,q),
(347,90,o),
(333.5,62,q),
(320,34,o),
(292,17,q),
(264,0,o),
(212,0,q),
(160,0,o),
(132,17,q),
(104,34,o),
(91,62.5,q),
(78,91,o),
(76,126.5,q),
(74,162,o),
(74,200,q),
(74,230,l),
(74,261,o),
(74.5,296,q),
(75,331,o),
(76,367,q),
(77,403,o),
(78,438.5,q),
(79,474,o),
(80,506,q),
(130,680,o),
(185,858.5,q),
(240,1037,o),
(290,1212,q),
(300,1249,o),
(314,1283.5,q),
(328,1318,o),
(351,1343.5,q),
(374,1369,o),
(410,1384.5,q),
(446,1400,o),
(502,1400,q),
(602,1400,l),
(657,1400,o),
(693.5,1384.5,q),
(730,1369,o),
(753,1343.5,q),
(776,1318,o),
(789.5,1283.5,q),
(803,1249,o),
(814,1212,q),
(1022,506,l)
);
},
{
closed = 1;
nodes = (
(631,1850,o),
(660,1850,q),
(686,1850,o),
(713,1841.5,q),
(740,1833,o),
(760,1804,q),
(772,1786,o),
(777,1768,q),
(782,1750,o),
(782,1736,q),
(782,1709,o),
(767,1686.5,q),
(752,1664,o),
(732,1650,q),
(512,1516,l),
(498,1507,o),
(482.5,1503.5,q),
(467,1500,o),
(452,1500,q),
(425,1500,o),
(401.5,1508.5,q),
(378,1517,o),
(358,1546,q),
(346,1563,o),
(341,1579.5,q),
(336,1596,o),
(336,1610,q),
(336,1640,o),
(351,1663.5,q),
(366,1687,o),
(380,1696,q),
(604,1832,l)
);
}
);
width = 1104;
}
);
unicode = 193;
},
{
glyphname = Acircumflex;
layers = (
{
layerId = "ee3f1d96-5840-4730-b38c-b1c88b21a886";
name = Fore;
shapes = (
{
closed = 1;
nodes = (
(712,604,l),
(564,1140,l),
(542,1140,l),
(394,604,l)
);
},
{
closed = 1;
nodes = (
(1024,438,o),
(1027,367,q),
(1030,296,o),
(1030,230,q),
(1030,200,l),
(1030,162,o),
(1027.5,126.5,q),
(1025,91,o),
(1012,62.5,q),
(999,34,o),
(971,17,q),
(943,0,o),
(892,0,q),
(840,0,o),
(812,17,q),
(784,34,o),
(770.5,62,q),
(757,90,o),
(754.5,126,q),
(752,162,o),
(752,200,q),
(752,340,l),
(352,340,l),
(352,200,l),
(352,162,o),
(349.5,126,q),
(347,90,o),
(333.5,62,q),
(320,34,o),
(292,17,q),
(264,0,o),
(212,0,q),
(160,0,o),
(132,17,q),
(104,34,o),
(91,62.5,q),
(78,91,o),
(76,126.5,q),
(74,162,o),
(74,200,q),
(74,230,l),
(74,261,o),
(74.5,296,q),
(75,331,o),
(76,367,q),
(77,403,o),
(78,438.5,q),
(79,474,o),
(80,506,q),
(130,680,o),
(185,858.5,q),
(240,1037,o),
(290,1212,q),
(300,1249,o),
(314,1283.5,q),
(328,1318,o),
(351,1343.5,q),
(374,1369,o),
(410,1384.5,q),
(446,1400,o),
(502,1400,q),
(602,1400,l),
(657,1400,o),
(693.5,1384.5,q),
(730,1369,o),
(753,1343.5,q),
(776,1318,o),
(789.5,1283.5,q),
(803,1249,o),
(814,1212,q),
(1022,506,l)
);
},
{
closed = 1;
nodes = (
(841,1669,o),
(849.5,1650.5,q),
(858,1632,o),
(858,1608,q),
(858,1582,o),
(846.5,1563,q),
(835,1544,o),
(820,1530,q),
(802,1513,o),
(785,1506.5,q),
(768,1500,o),
(750,1500,q),
(726,1500,o),
(702,1507.5,q),
(678,1515,o),
(664,1532,q),
(554,1636,l),
(444,1532,l),
(430,1515,o),
(406,1507.5,q),
(382,1500,o),
(358,1500,q),
(340,1500,o),
(323,1506.5,q),
(306,1513,o),
(288,1530,q),
(273,1544,o),
(261.5,1563,q),
(250,1582,o),
(250,1608,q),
(250,1632,o),
(258.5,1650.5,q),
(267,1669,o),
(278,1680,q),
(468,1860,l),
(483,1875,o),
(501.5,1883.5,q),
(520,1892,o),
(544,1894,q),
(564,1894,l),
(609,1891,o),
(640,1860,q),
(830,1680,l)
);
}
);
width = 1104;
}
);
unicode = 194;
},
{
glyphname = Atilde;
layers = (
{
layerId = "ee3f1d96-5840-4730-b38c-b1c88b21a886";
name = Fore;
shapes = (
{
closed = 1;
nodes = (
(490,1585,o),
(475,1590.5,q),
(460,1596,o),
(448,1596,q),
(430,1596,o),
(412,1583.5,q),
(394,1571,o),
(368,1544,q),
(353,1527,o),
(336,1516.5,q),
(319,1506,o),
(304,1506,q),
(286,1506,o),
(261.5,1517.5,q),
(237,1529,o),
(222,1550,q),
(200,1575,o),
(200,1602,q),
(200,1623,o),
(214,1647.5,q),
(228,1672,o),
(260,1702,q),
(334,1768,l),
(358,1789,o),
(382.5,1801.5,q),
(407,1814,o),
(436,1814,q),
(457,1814,o),
(477.5,1806,q),
(498,1798,o),
(522,1786,q),
(565,1764,o),
(591.5,1751,q),
(618,1738,o),
(633,1731,q),
(648,1724,o),
(654,1722,q),
(660,1720,o),
(664,1720,q),
(679,1720,o),
(694.5,1730,q),
(710,1740,o),
(728,1760,q),
(745,1775,o),
(763,1785.5,q),
(781,1796,o),
(802,1796,q),
(816,1794,o),
(829.5,1787.5,q),
(843,1781,o),
(860,1764,q),
(878,1746,o),
(884,1729,q),
(890,1712,o),
(890,1694,q),
(888,1682,o),
(881,1669,q),
(874,1656,o),
(864.5,1643.5,q),
(855,1631,o),
(844.5,1620,q),
(834,1609,o),
(826,1602,q),
(791,1566,o),
(767,1545.5,q),
(743,1525,o),
(726.5,1515,q),
(710,1505,o),
(699,1502.5,q),
(688,1500,o),
(678,1500,q),
(670,1500,o),
(660.5,1501.5,q),
(651,1503,o),
(633,1510.5,q),
(615,1518,o),
(586,1533,q),
(557,1548,o),
(510,1574,q)
);
},
{
closed = 1;
nodes = (
(712,604,l),
(564,1140,l),
(542,1140,l),
(394,604,l)
);
},
{
closed = 1;
nodes = (
(1024,438,o),
(1027,367,q),
(1030,296,o),
(1030,230,q),
(1030,200,l),
(1030,162,o),
(1027.5,126.5,q),
(1025,91,o),
(1012,62.5,q),
(999,34,o),
(971,17,q),
(943,0,o),
(892,0,q),
(840,0,o),
(812,17,q),
(784,34,o),
(770.5,62,q),
(757,90,o),
(754.5,126,q),
(752,162,o),
(752,200,q),
(752,340,l),
(352,340,l),
(352,200,l),
(352,162,o),
(349.5,126,q),
(347,90,o),
(333.5,62,q),
(320,34,o),
(292,17,q),
(264,0,o),
(212,0,q),
(160,0,o),
(132,17,q),
(104,34,o),
(91,62.5,q),
(78,91,o),
(76,126.5,q),
(74,162,o),
(74,200,q),
(74,230,l),
(74,261,o),
(74.5,296,q),
(75,331,o),
(76,367,q),
(77,403,o),
(78,438.5,q),
(79,474,o),
(80,506,q),
(130,680,o),
(185,858.5,q),
(240,1037,o),
(290,1212,q),
(300,1249,o),
(314,1283.5,q),
(328,1318,o),
(351,1343.5,q),
(374,1369,o),
(410,1384.5,q),
(446,1400,o),
(502,1400,q),
(602,1400,l),
(657,1400,o),
(693.5,1384.5,q),
(730,1369,o),
(753,1343.5,q),
(776,1318,o),
(789.5,1283.5,q),
(803,1249,o),
(814,1212,q),
(1022,506,l)
);
}
);
width = 1104;
}
);
unicode = 195;
},
{
glyphname = Adieresis;
layers = (
{
layerId = "ee3f1d96-5840-4730-b38c-b1c88b21a886";
name = Fore;
shapes = (
{
closed = 1;
nodes = (
(712,604,l),
(564,1140,l),
(542,1140,l),
(394,604,l)
);
},
{
closed = 1;
nodes = (
(1024,438,o),
(1027,367,q),
(1030,296,o),
(1030,230,q),
(1030,200,l),
(1030,162,o),
(1027.5,126.5,q),
(1025,91,o),
(1012,62.5,q),
(999,34,o),
(971,17,q),
(943,0,o),
(892,0,q),
(840,0,o),
(812,17,q),
(784,34,o),
(770.5,62,q),
(757,90,o),
(754.5,126,q),
(752,162,o),
(752,200,q),
(752,340,l),
(352,340,l),
(352,200,l),
(352,162,o),
(349.5,126,q),
(347,90,o),
(333.5,62,q),
(320,34,o),
(292,17,q),
(264,0,o),
(212,0,q),
(160,0,o),
(132,17,q),
(104,34,o),
(91,62.5,q),
(78,91,o),
(76,126.5,q),
(74,162,o),
(74,200,q),
(74,230,l),
(74,261,o),
(74.5,296,q),
(75,331,o),
(76,367,q),
(77,403,o),
(78,438.5,q),
(79,474,o),
(80,506,q),
(130,680,o),
(185,858.5,q),
(240,1037,o),
(290,1212,q),
(300,1249,o),
(314,1283.5,q),
(328,1318,o),
(351,1343.5,q),
(374,1369,o),
(410,1384.5,q),
(446,1400,o),
(502,1400,q),
(602,1400,l),
(657,1400,o),
(693.5,1384.5,q),
(730,1369,o),
(753,1343.5,q),
(776,1318,o),
(789.5,1283.5,q),
(803,1249,o),
(814,1212,q),
(1022,506,l)
);
},
{
closed = 1;
nodes = (
(494,1575,o),
(454,1537.5,q),
(414,1500,o),
(342,1500,q),
(270,1500,o),
(230,1537.5,q),
(190,1575,o),
(190,1652,q),
(190,1732,o),
(230,1768,q),
(270,1804,o),
(342,1804,q),
(419,1804,o),
(456.5,1768,q),
(494,1732,o),
(494,1652,q)
);
},
{
closed = 1;
nodes = (
(910,1575,o),
(870,1537.5,q),
(830,1500,o),
(758,1500,q),
(686,1500,o),
(646,1537.5,q),
(606,1575,o),
(606,1652,q),
(606,1732,o),
(646,1768,q),
(686,1804,o),
(758,1804,q),
(835,1804,o),
(872.5,1768,q),
(910,1732,o),
(910,1652,q)
);
}
);
width = 1104;
}
);
unicode = 196;
},
{
glyphname = Aring;
layers = (
{
layerId = "ee3f1d96-5840-4730-b38c-b1c88b21a886";
name = Fore;
shapes = (
{
closed = 1;
nodes = (
(712,604,l),
(564,1140,l),
(542,1140,l),
(394,604,l)
);
},
{
closed = 1;
nodes = (
(1024,438,o),
(1027,367,q),
(1030,296,o),
(1030,230,q),
(1030,200,l),
(1030,162,o),
(1027.5,126.5,q),
(1025,91,o),
(1012,62.5,q),
(999,34,o),
(971,17,q),
(943,0,o),
(892,0,q),
(840,0,o),
(812,17,q),
(784,34,o),
(770.5,62,q),
(757,90,o),
(754.5,126,q),
(752,162,o),
(752,200,q),
(752,340,l),
(352,340,l),
(352,200,l),
(352,162,o),
(349.5,126,q),
(347,90,o),
(333.5,62,q),
(320,34,o),
(292,17,q),
(264,0,o),
(212,0,q),
(160,0,o),
(132,17,q),
(104,34,o),
(91,62.5,q),
(78,91,o),
(76,126.5,q),
(74,162,o),
(74,200,q),
(74,230,l),
(74,261,o),
(74.5,296,q),
(75,331,o),
(76,367,q),
(77,403,o),
(78,438.5,q),
(79,474,o),
(80,506,q),
(130,680,o),
(185,858.5,q),
(240,1037,o),
(290,1212,q),
(300,1249,o),
(314,1283.5,q),
(328,1318,o),
(351,1343.5,q),
(374,1369,o),
(410,1384.5,q),
(446,1400,o),
(502,1400,q),
(602,1400,l),
(657,1400,o),
(693.5,1384.5,q),
(730,1369,o),
(753,1343.5,q),
(776,1318,o),
(789.5,1283.5,q),
(803,1249,o),
(814,1212,q),
(1022,506,l)
);
},
{
closed = 1;
nodes = (
(668,1790,o),
(639.5,1817,q),
(611,1844,o),
(554,1844,q),
(500,1844,o),
(470,1817,q),
(440,1790,o),
(440,1730,q),
(440,1673,o),
(470,1644.5,q),
(500,1616,o),
(554,1616,q),
(608,1616,o),
(638,1644.5,q),
(668,1673,o),
(668,1730,q)
);
},
{
closed = 1;
nodes = (
(782,1612,o),
(723,1556,q),
(664,1500,o),
(554,1500,q),
(444,1500,o),
(384,1556,q),
(324,1612,o),
(324,1730,q),
(324,1849,o),
(384,1903.5,q),
(444,1958,o),
(554,1958,q),
(670,1958,o),
(726,1903.5,q),
(782,1849,o),
(782,1730,q)
);
}
);
width = 1104;
}
);
unicode = 197;
},
{
glyphname = AE;
layers = (
{
layerId = "ee3f1d96-5840-4730-b38c-b1c88b21a886";
name = Fore;
shapes = (
{
closed = 1;
nodes = (
(182,680,o),
(286,858.5,q),
(390,1037,o),
(488,1212,q),
(509,1249,o),
(536.5,1283.5,q),
(564,1318,o),
(599.5,1343.5,q),
(635,1369,o),
(679.5,1384.5,q),
(724,1400,o),
(780,1400,q),
(1296,1400,l),
(1336,1400,o),
(1377,1397,q),
(1418,1394,o),
(1451,1380.5,q),
(1484,1367,o),
(1505,1339,q),
(1526,1311,o),
(1526,1260,q),
(1526,1209,o),
(1505,1179.5,q),
(1484,1150,o),
(1451,1135,q),
(1418,1120,o),
(1377,1116,q),
(1336,1112,o),
(1296,1112,q),
(1058,1112,l),
(1058,840,l),
(1184,840,l),
(1224,840,o),
(1264.5,838,q),
(1305,836,o),
(1336.5,823.5,q),
(1368,811,o),
(1388,784,q),
(1408,757,o),
(1408,708,q),
(1408,658,o),
(1388,631.5,q),
(1368,605,o),
(1336.5,592.5,q),
(1305,580,o),
(1264.5,578,q),
(1224,576,o),
(1184,576,q),
(1058,576,l),
(1058,288,l),
(1296,288,l),
(1336,288,o),
(1377,284,q),
(1418,280,o),
(1451,265,q),
(1484,250,o),
(1505,221,q),
(1526,192,o),
(1526,142,q),
(1526,90,o),
(1504.5,61.5,q),
(1483,33,o),
(1450,19.5,q),
(1417,6,o),
(1376,3,q),
(1335,0,o),
(1296,0,q),
(920,0,l),
(864,0,o),
(833.5,20,q),
(803,40,o),
(789,72.5,q),
(775,105,o),
(772.5,146,q),
(770,187,o),
(770,230,q),
(770,340,l),
(356,340,l),
(356,200,l),
(356,162,o),
(353.5,126,q),
(351,90,o),
(337.5,62,q),
(324,34,o),
(296,17,q),
(268,0,o),
(216,0,q),
(164,0,o),
(136,17,q),
(108,34,o),
(95,62.5,q),
(82,91,o),
(80,126.5,q),
(78,162,o),
(78,200,q),
(78,230,l),
(78,261,o),
(78.5,296,q),
(79,331,o),
(80,367,q),
(81,403,o),
(82,438.5,q),
(83,474,o),
(84,506,q)
);
},
{
closed = 1;
nodes = (
(770,604,l),
(770,1140,l),
(748,1140,l),
(452,604,l)
);
}
);
width = 1600;
}
);
unicode = 198;
},
{
glyphname = Ccedilla;
layers = (
{
layerId = "ee3f1d96-5840-4730-b38c-b1c88b21a886";
name = Fore;
shapes = (
{
closed = 1;
nodes = (
(603,230,o),
(633,249.5,q),
(663,269,o),
(680,302,q),
(697,335,o),
(703.5,378,q),
(710,421,o),
(710,468,q),
(710,483,o),
(715,499,q),
(720,515,o),
(738,528.5,q),
(756,542,o),
(791,551,q),
(826,560,o),
(886,560,q),
(946,560,o),
(978.5,546.5,q),
(1011,533,o),
(1026,515.5,q),
(1041,498,o),
(1043.5,481.5,q),
(1046,465,o),
(1046,460,q),
(1046,361,o),
(1015.5,281,q),
(985,201,o),
(929.5,142.5,q),
(874,84,o),
(796,47.5,q),
(718,11,o),
(624,0,q),
(612,-22,l),
(657,-26,o),
(692.5,-28,q),
(728,-30,o),
(753,-45,q),
(778,-60,o),
(791,-93.5,q),
(804,-127,o),
(804,-194,q),
(804,-202,l),
(804,-260,o),
(781,-297,q),
(758,-334,o),
(720.5,-355,q),
(683,-376,o),
(634.5,-384,q),
(586,-392,o),
(534,-392,q),
(465,-392,o),
(417.5,-379.5,q),
(370,-367,o),
(341,-343,q),
(312,-319,o),
(299,-283.5,q),
(286,-248,o),
(286,-202,q),
(286,-189,o),
(294,-177.5,q),
(302,-166,o),
(315,-158.5,q),
(328,-151,o),
(344,-146.5,q),
(360,-142,o),
(376,-142,q),
(386,-142,o),
(401.5,-145.5,q),
(417,-149,o),
(430.5,-157,q),
(444,-165,o),
(454,-177.5,q),
(464,-190,o),
(464,-208,q),
(464,-219,o),
(466,-233,q),
(468,-247,o),
(475.5,-259.5,q),
(483,-272,o),
(497,-281,q),
(511,-290,o),
(534,-290,q),
(543,-290,o),
(555.5,-286,q),
(568,-282,o),
(580,-270,q),
(592,-258,o),
(600,-237.5,q),
(608,-217,o),
(608,-184,q),
(608,-159,o),
(606,-145.5,q),
(604,-132,o),
(597.5,-125.5,q),
(591,-119,o),
(578.5,-117.5,q),
(566,-116,o),
(544,-116,q),
(515,-116,o),
(500.5,-98,q),
(486,-80,o),
(486,-56,q),
(486,-47,o),
(489.5,-34.5,q),
(493,-22,o),
(502,-4,q),
(472,-2,o),
(430.5,4.5,q),
(389,11,o),
(343,27,q),
(297,43,o),
(252,71.5,q),
(207,100,o),
(171,145.5,q),
(135,191,o),
(112.5,256,q),
(90,321,o),
(90,410,q),
(90,968,l),
(90,1050,o),
(110,1113,q),
(130,1176,o),
(162.5,1222.5,q),
(195,1269,o),
(237,1300.5,q),
(279,1332,o),
(323,1353,q),
(425,1401,o),
(556,1408,q),
(666,1408,o),
(745.5,1383,q),
(825,1358,o),
(879.5,1318,q),
(934,1278,o),
(967,1227.5,q),
(1000,1177,o),
(1017.5,1125,q),
(1035,1073,o),
(1040.5,1025,q),
(1046,977,o),
(1046,942,q),
(1046,927,o),
(1043.5,905.5,q),
(1041,884,o),
(1026,864,q),
(1011,844,o),
(978.5,830,q),
(946,816,o),
(886,816,q),
(866,816,o),
(836,818.5,q),
(806,821,o),
(778,831.5,q),
(750,842,o),
(730,861.5,q),
(710,881,o),
(710,916,q),
(710,970,o),
(703.5,1013,q),
(697,1056,o),
(680,1086,q),
(663,1116,o),
(633,1132,q),
(603,1148,o),
(556,1148,q),
(507,1148,o),
(480.5,1127.5,q),
(454,1107,o),
(442,1083,q),
(428,1054,o),
(426,1018,q),
(426,384,l),
(428,340,o),
(442,307,q),
(454,278,o),
(480.5,254,q),
(507,230,o),
(556,230,q)
);
}
);
width = 1110;
}
);
unicode = 199;
},
{
glyphname = Egrave;
layers = (
{
layerId = "ee3f1d96-5840-4730-b38c-b1c88b21a886";
name = Fore;
shapes = (
{
closed = 1;
nodes = (
(722,1400,o),
(763,1396,q),
(804,1392,o),
(837,1377,q),
(870,1362,o),
(891,1332.5,q),
(912,1303,o),
(912,1252,q),
(912,1201,o),
(891,1171.5,q),
(870,1142,o),
(837,1127,q),
(804,1112,o),
(763,1108,q),
(722,1104,o),
(682,1104,q),
(444,1104,l),
(444,844,l),
(570,844,l),
(610,844,o),
(650.5,841.5,q),
(691,839,o),
(722.5,825.5,q),
(754,812,o),
(774,784.5,q),
(794,757,o),
(794,708,q),
(794,658,o),
(774,631,q),
(754,604,o),
(722.5,590.5,q),
(691,577,o),
(650.5,574.5,q),
(610,572,o),
(570,572,q),
(444,572,l),
(444,296,l),
(682,296,l),
(722,296,o),
(763,292,q),
(804,288,o),
(837,273,q),
(870,258,o),
(891,229,q),
(912,200,o),
(912,150,q),
(912,98,o),
(890.5,68,q),
(869,38,o),
(836,23,q),
(803,8,o),
(762,4,q),
(721,0,o),
(682,0,q),
(290,0,l),
(234,0,o),
(203.5,20,q),
(173,40,o),
(159,72.5,q),
(145,105,o),
(142.5,146,q),
(140,187,o),
(140,230,q),
(140,1170,l),
(140,1213,o),
(142.5,1254,q),
(145,1295,o),
(159,1327.5,q),
(173,1360,o),
(203.5,1380,q),
(234,1400,o),
(290,1400,q),
(682,1400,l)
);
},
{
closed = 1;
nodes = (
(686,1687,o),
(701,1663.5,q),
(716,1640,o),
(716,1610,q),
(716,1596,o),
(711,1579.5,q),
(706,1563,o),
(694,1546,q),
(674,1517,o),
(650.5,1508.5,q),
(627,1500,o),
(600,1500,q),
(585,1500,o),
(569.5,1503.5,q),
(554,1507,o),
(540,1516,q),
(320,1650,l),
(300,1664,o),
(285,1686.5,q),
(270,1709,o),
(270,1736,q),
(270,1750,o),
(275,1768,q),
(280,1786,o),
(292,1804,q),
(312,1833,o),
(339,1841.5,q),
(366,1850,o),
(392,1850,q),
(421,1850,o),
(448,1832,q),
(672,1696,l)
);
}
);
width = 986;
}
);
unicode = 200;
},
{
glyphname = Eacute;
layers = (
{
layerId = "ee3f1d96-5840-4730-b38c-b1c88b21a886";
name = Fore;
shapes = (
{
closed = 1;
nodes = (
(722,1400,o),
(763,1396,q),
(804,1392,o),
(837,1377,q),
(870,1362,o),
(891,1332.5,q),
(912,1303,o),
(912,1252,q),
(912,1201,o),
(891,1171.5,q),
(870,1142,o),
(837,1127,q),
(804,1112,o),
(763,1108,q),
(722,1104,o),
(682,1104,q),
(444,1104,l),
(444,844,l),
(570,844,l),
(610,844,o),
(650.5,841.5,q),
(691,839,o),
(722.5,825.5,q),
(754,812,o),
(774,784.5,q),
(794,757,o),
(794,708,q),
(794,658,o),
(774,631,q),
(754,604,o),
(722.5,590.5,q),
(691,577,o),
(650.5,574.5,q),
(610,572,o),
(570,572,q),
(444,572,l),
(444,296,l),
(682,296,l),
(722,296,o),
(763,292,q),
(804,288,o),
(837,273,q),
(870,258,o),
(891,229,q),
(912,200,o),
(912,150,q),
(912,98,o),
(890.5,68,q),
(869,38,o),
(836,23,q),
(803,8,o),
(762,4,q),
(721,0,o),
(682,0,q),
(290,0,l),
(234,0,o),
(203.5,20,q),
(173,40,o),
(159,72.5,q),
(145,105,o),
(142.5,146,q),
(140,187,o),
(140,230,q),
(140,1170,l),
(140,1213,o),
(142.5,1254,q),
(145,1295,o),
(159,1327.5,q),
(173,1360,o),
(203.5,1380,q),
(234,1400,o),
(290,1400,q),
(682,1400,l)
);
},
{
closed = 1;
nodes = (
(569,1850,o),
(598,1850,q),
(624,1850,o),
(651,1841.5,q),
(678,1833,o),
(698,1804,q),
(710,1786,o),
(715,1768,q),
(720,1750,o),
(720,1736,q),
(720,1709,o),
(705,1686.5,q),
(690,1664,o),
(670,1650,q),
(450,1516,l),
(436,1507,o),
(420.5,1503.5,q),
(405,1500,o),
(390,1500,q),
(363,1500,o),
(339.5,1508.5,q),
(316,1517,o),
(296,1546,q),
(284,1563,o),
(279,1579.5,q),
(274,1596,o),
(274,1610,q),
(274,1640,o),
(289,1663.5,q),
(304,1687,o),
(318,1696,q),
(542,1832,l)
);
}
);
width = 986;
}
);
unicode = 201;
},
{
glyphname = Ecircumflex;
layers = (
{
layerId = "ee3f1d96-5840-4730-b38c-b1c88b21a886";
name = Fore;
shapes = (
{
closed = 1;
nodes = (
(722,1400,o),
(763,1396,q),
(804,1392,o),
(837,1377,q),
(870,1362,o),
(891,1332.5,q),
(912,1303,o),
(912,1252,q),
(912,1201,o),
(891,1171.5,q),
(870,1142,o),
(837,1127,q),
(804,1112,o),
(763,1108,q),
(722,1104,o),
(682,1104,q),
(444,1104,l),
(444,844,l),
(570,844,l),
(610,844,o),
(650.5,841.5,q),
(691,839,o),
(722.5,825.5,q),
(754,812,o),
(774,784.5,q),
(794,757,o),
(794,708,q),
(794,658,o),
(774,631,q),
(754,604,o),
(722.5,590.5,q),
(691,577,o),
(650.5,574.5,q),
(610,572,o),
(570,572,q),
(444,572,l),
(444,296,l),
(682,296,l),
(722,296,o),
(763,292,q),
(804,288,o),
(837,273,q),
(870,258,o),
(891,229,q),
(912,200,o),
(912,150,q),
(912,98,o),
(890.5,68,q),
(869,38,o),
(836,23,q),
(803,8,o),
(762,4,q),
(721,0,o),
(682,0,q),
(290,0,l),
(234,0,o),
(203.5,20,q),
(173,40,o),
(159,72.5,q),
(145,105,o),
(142.5,146,q),
(140,187,o),
(140,230,q),
(140,1170,l),
(140,1213,o),
(142.5,1254,q),
(145,1295,o),
(159,1327.5,q),
(173,1360,o),
(203.5,1380,q),
(234,1400,o),
(290,1400,q),
(682,1400,l)
);
},
{
closed = 1;
nodes = (
(803,1669,o),
(811.5,1650.5,q),
(820,1632,o),
(820,1608,q),
(820,1582,o),
(808.5,1563,q),
(797,1544,o),
(782,1530,q),
(764,1513,o),
(747,1506.5,q),
(730,1500,o),
(712,1500,q),
(688,1500,o),
(664,1507.5,q),
(640,1515,o),
(626,1532,q),
(516,1636,l),
(406,1532,l),
(392,1515,o),
(368,1507.5,q),
(344,1500,o),
(320,1500,q),
(302,1500,o),
(285,1506.5,q),
(268,1513,o),
(250,1530,q),
(235,1544,o),
(223.5,1563,q),
(212,1582,o),
(212,1608,q),
(212,1632,o),
(220.5,1650.5,q),
(229,1669,o),
(240,1680,q),
(430,1860,l),
(445,1875,o),
(463.5,1883.5,q),
(482,1892,o),
(506,1894,q),
(526,1894,l),
(571,1891,o),
(602,1860,q),
(792,1680,l)
);
}
);
width = 986;
}
);
unicode = 202;
},
{
glyphname = Edieresis;
layers = (
{
layerId = "ee3f1d96-5840-4730-b38c-b1c88b21a886";
name = Fore;
shapes = (
{
closed = 1;
nodes = (
(722,1400,o),
(763,1396,q),
(804,1392,o),
(837,1377,q),
(870,1362,o),
(891,1332.5,q),
(912,1303,o),
(912,1252,q),
(912,1201,o),
(891,1171.5,q),
(870,1142,o),
(837,1127,q),
(804,1112,o),
(763,1108,q),
(722,1104,o),
(682,1104,q),
(444,1104,l),
(444,844,l),
(570,844,l),
(610,844,o),
(650.5,841.5,q),
(691,839,o),
(722.5,825.5,q),
(754,812,o),
(774,784.5,q),
(794,757,o),
(794,708,q),
(794,658,o),
(774,631,q),
(754,604,o),
(722.5,590.5,q),
(691,577,o),
(650.5,574.5,q),
(610,572,o),
(570,572,q),
(444,572,l),
(444,296,l),
(682,296,l),
(722,296,o),
(763,292,q),
(804,288,o),
(837,273,q),
(870,258,o),
(891,229,q),
(912,200,o),
(912,150,q),
(912,98,o),
(890.5,68,q),
(869,38,o),
(836,23,q),
(803,8,o),
(762,4,q),
(721,0,o),
(682,0,q),
(290,0,l),
(234,0,o),
(203.5,20,q),
(173,40,o),
(159,72.5,q),
(145,105,o),
(142.5,146,q),
(140,187,o),
(140,230,q),
(140,1170,l),
(140,1213,o),
(142.5,1254,q),
(145,1295,o),
(159,1327.5,q),
(173,1360,o),
(203.5,1380,q),
(234,1400,o),
(290,1400,q),
(682,1400,l)
);
},
{
closed = 1;
nodes = (
(462,1575,o),
(422,1537.5,q),
(382,1500,o),
(310,1500,q),
(238,1500,o),
(198,1537.5,q),
(158,1575,o),
(158,1652,q),
(158,1732,o),
(198,1768,q),
(238,1804,o),
(310,1804,q),
(387,1804,o),
(424.5,1768,q),
(462,1732,o),
(462,1652,q)
);
},
{
closed = 1;
nodes = (
(878,1575,o),
(838,1537.5,q),
(798,1500,o),
(726,1500,q),
(654,1500,o),
(614,1537.5,q),
(574,1575,o),
(574,1652,q),
(574,1732,o),
(614,1768,q),
(654,1804,o),
(726,1804,q),
(803,1804,o),
(840.5,1768,q),
(878,1732,o),
(878,1652,q)
);
}
);
width = 986;
}
);
unicode = 203;
},
{
glyphname = Igrave;
layers = (
{
layerId = "ee3f1d96-5840-4730-b38c-b1c88b21a886";
name = Fore;
shapes = (
{
closed = 1;
nodes = (
(168,1213,o),
(172.5,1254,q),
(177,1295,o),
(193.5,1327.5,q),
(210,1360,o),
(243,1380,q),
(276,1400,o),
(334,1400,q),
(392,1400,o),
(425,1380,q),
(458,1360,o),
(474.5,1327.5,q),
(491,1295,o),
(495.5,1254,q),
(500,1213,o),
(500,1170,q),
(500,230,l),
(500,186,o),
(496,145,q),
(492,104,o),
(475.5,71.5,q),
(459,39,o),
(425.5,19.5,q),
(392,0,o),
(334,0,q),
(276,0,o),
(243,19.5,q),
(210,39,o),
(193.5,71.5,q),
(177,104,o),
(172.5,145,q),
(168,186,o),
(168,230,q),
(168,1170,l)
);
},
{
closed = 1;
nodes = (
(512,1687,o),
(527,1663.5,q),
(542,1640,o),
(542,1610,q),
(542,1596,o),
(537,1579.5,q),
(532,1563,o),
(520,1546,q),
(500,1517,o),
(476.5,1508.5,q),
(453,1500,o),
(426,1500,q),
(411,1500,o),
(395.5,1503.5,q),
(380,1507,o),
(366,1516,q),
(146,1650,l),
(126,1664,o),
(111,1686.5,q),
(96,1709,o),
(96,1736,q),
(96,1750,o),
(101,1768,q),
(106,1786,o),
(118,1804,q),
(138,1833,o),
(165,1841.5,q),
(192,1850,o),
(218,1850,q),
(247,1850,o),
(274,1832,q),
(498,1696,l)
);
}
);
width = 666;
}
);
unicode = 204;
},
{
glyphname = Iacute;
layers = (
{
layerId = "ee3f1d96-5840-4730-b38c-b1c88b21a886";
name = Fore;
shapes = (
{
closed = 1;
nodes = (
(168,1213,o),
(172.5,1254,q),
(177,1295,o),
(193.5,1327.5,q),
(210,1360,o),
(243,1380,q),
(276,1400,o),
(334,1400,q),
(392,1400,o),
(425,1380,q),
(458,1360,o),
(474.5,1327.5,q),
(491,1295,o),
(495.5,1254,q),
(500,1213,o),
(500,1170,q),
(500,230,l),
(500,186,o),
(496,145,q),
(492,104,o),
(475.5,71.5,q),
(459,39,o),
(425.5,19.5,q),
(392,0,o),
(334,0,q),
(276,0,o),
(243,19.5,q),
(210,39,o),
(193.5,71.5,q),
(177,104,o),
(172.5,145,q),
(168,186,o),
(168,230,q),
(168,1170,l)
);
},
{
closed = 1;
nodes = (
(409,1850,o),
(438,1850,q),
(464,1850,o),
(491,1841.5,q),
(518,1833,o),
(538,1804,q),
(550,1786,o),
(555,1768,q),
(560,1750,o),
(560,1736,q),
(560,1709,o),
(545,1686.5,q),
(530,1664,o),
(510,1650,q),
(290,1516,l),
(276,1507,o),
(260.5,1503.5,q),
(245,1500,o),
(230,1500,q),
(203,1500,o),
(179.5,1508.5,q),
(156,1517,o),
(136,1546,q),
(124,1563,o),
(119,1579.5,q),
(114,1596,o),
(114,1610,q),
(114,1640,o),
(129,1663.5,q),
(144,1687,o),
(158,1696,q),
(382,1832,l)
);
}
);
width = 666;
}
);
unicode = 205;
},
{
glyphname = Icircumflex;
layers = (
{
layerId = "ee3f1d96-5840-4730-b38c-b1c88b21a886";
name = Fore;
shapes = (
{
closed = 1;
nodes = (
(168,1213,o),
(172.5,1254,q),
(177,1295,o),
(193.5,1327.5,q),
(210,1360,o),
(243,1380,q),
(276,1400,o),
(334,1400,q),
(392,1400,o),
(425,1380,q),
(458,1360,o),
(474.5,1327.5,q),
(491,1295,o),
(495.5,1254,q),
(500,1213,o),
(500,1170,q),
(500,230,l),
(500,186,o),
(496,145,q),
(492,104,o),
(475.5,71.5,q),
(459,39,o),
(425.5,19.5,q),
(392,0,o),
(334,0,q),
(276,0,o),
(243,19.5,q),
(210,39,o),
(193.5,71.5,q),
(177,104,o),
(172.5,145,q),
(168,186,o),
(168,230,q),
(168,1170,l)
);
},
{
closed = 1;
nodes = (
(621,1669,o),
(629.5,1650.5,q),
(638,1632,o),
(638,1608,q),
(638,1582,o),
(626.5,1563,q),
(615,1544,o),
(600,1530,q),
(582,1513,o),
(565,1506.5,q),
(548,1500,o),
(530,1500,q),
(506,1500,o),
(482,1507.5,q),
(458,1515,o),
(444,1532,q),
(334,1636,l),
(224,1532,l),
(210,1515,o),
(186,1507.5,q),
(162,1500,o),
(138,1500,q),
(120,1500,o),
(103,1506.5,q),
(86,1513,o),
(68,1530,q),
(53,1544,o),
(41.5,1563,q),
(30,1582,o),
(30,1608,q),
(30,1632,o),
(38.5,1650.5,q),
(47,1669,o),
(58,1680,q),
(248,1860,l),
(263,1875,o),
(281.5,1883.5,q),
(300,1892,o),
(324,1894,q),
(344,1894,l),
(389,1891,o),
(420,1860,q),
(610,1680,l)
);
}
);
width = 666;
}
);
unicode = 206;
},
{
glyphname = Idieresis;
layers = (
{
layerId = "ee3f1d96-5840-4730-b38c-b1c88b21a886";
name = Fore;
shapes = (
{
closed = 1;
nodes = (
(168,1213,o),
(172.5,1254,q),
(177,1295,o),
(193.5,1327.5,q),
(210,1360,o),
(243,1380,q),
(276,1400,o),
(334,1400,q),
(392,1400,o),
(425,1380,q),
(458,1360,o),
(474.5,1327.5,q),
(491,1295,o),
(495.5,1254,q),
(500,1213,o),
(500,1170,q),
(500,230,l),
(500,186,o),
(496,145,q),
(492,104,o),
(475.5,71.5,q),
(459,39,o),
(425.5,19.5,q),
(392,0,o),
(334,0,q),
(276,0,o),
(243,19.5,q),
(210,39,o),
(193.5,71.5,q),
(177,104,o),
(172.5,145,q),
(168,186,o),
(168,230,q),
(168,1170,l)
);
},
{
closed = 1;
nodes = (
(278,1575,o),
(238,1537.5,q),
(198,1500,o),
(126,1500,q),
(54,1500,o),
(14,1537.5,q),
(-26,1575,o),
(-26,1652,q),
(-26,1732,o),
(14,1768,q),
(54,1804,o),
(126,1804,q),
(203,1804,o),
(240.5,1768,q),
(278,1732,o),
(278,1652,q)
);
},
{
closed = 1;
nodes = (
(694,1575,o),
(654,1537.5,q),
(614,1500,o),
(542,1500,q),
(470,1500,o),
(430,1537.5,q),
(390,1575,o),
(390,1652,q),
(390,1732,o),
(430,1768,q),
(470,1804,o),
(542,1804,q),
(619,1804,o),
(656.5,1768,q),
(694,1732,o),
(694,1652,q)
);
}
);
width = 666;
}
);
unicode = 207;
},
{
glyphname = Eth;
layers = (
{
layerId = "ee3f1d96-5840-4730-b38c-b1c88b21a886";
name = Fore;
shapes = (
{
closed = 1;
nodes = (
(695,1400,o),
(773.5,1377,q),
(852,1354,o),
(910.5,1308.5,q),
(969,1263,o),
(1002.5,1195,q),
(1036,1127,o),
(1036,1036,q),
(1036,416,l),
(1036,338,o),
(1019,278.5,q),
(1002,219,o),
(974.5,175.5,q),
(947,132,o),
(912,101.5,q),
(877,71,o),
(841,52,q),
(755,6,o),
(646,0,q),
(314,0,l),
(257,0,o),
(226,19.5,q),
(195,39,o),
(181,71.5,q),
(167,104,o),
(164.5,145,q),
(162,186,o),
(162,230,q),
(162,594,l),
(126,594,l),
(98,594,o),
(72,597.5,q),
(46,601,o),
(26,613.5,q),
(6,626,o),
(-6,649.5,q),
(-18,673,o),
(-18,714,q),
(-18,758,o),
(-6,783,q),
(6,808,o),
(26,820,q),
(46,832,o),
(72,835,q),
(98,838,o),
(126,838,q),
(162,838,l),
(162,1172,l),
(162,1215,o),
(164.5,1256,q),
(167,1297,o),
(181,1329,q),
(195,1361,o),
(226,1380.5,q),
(257,1400,o),
(314,1400,q),
(604,1400,l)
);
},
{
closed = 1;
nodes = (
(750,1021,o),
(743.5,1046.5,q),
(737,1072,o),
(726,1091,q),
(715,1110,o),
(701,1123,q),
(687,1136,o),
(673,1144,q),
(639,1163,o),
(596,1166,q),
(466,1166,l),
(466,838,l),
(518,838,l),
(543,838,o),
(569,835,q),
(595,832,o),
(615.5,820,q),
(636,808,o),
(649,783,q),
(662,758,o),
(662,714,q),
(662,673,o),
(649,649.5,q),
(636,626,o),
(615.5,613.5,q),
(595,601,o),
(569,597.5,q),
(543,594,o),
(518,594,q),
(466,594,l),
(466,238,l),
(596,238,l),
(639,240,o),
(673,258,q),
(687,265,o),
(701,277,q),
(715,289,o),
(726,305.5,q),
(737,322,o),
(743.5,345,q),
(750,368,o),
(750,398,q),
(750,988,l)
);
}
);
width = 1126;
}
);
unicode = 208;
},
